SplineFontDB: 3.0
FontName: BenchNine-Bold
FullName: BenchNine Bold
FamilyName: BenchNine Bold
Weight: Book
Version: 
ItalicAngle: 0
UnderlinePosition: 0
UnderlineWidth: 0
Ascent: 1638
Descent: 410
sfntRevision: 0x00010000
LayerCount: 2
Layer: 0 1 "Back"  1
Layer: 1 1 "Fore"  0
XUID: [1021 332 1330122705 4084112]
FSType: 8
OS2Version: 1
OS2_WeightWidthSlopeOnly: 0
OS2_UseTypoMetrics: 1
CreationTime: 1348080930
ModificationTime: 1348149450
PfmFamily: 81
TTFWeight: 400
TTFWidth: 5
LineGap: 0
VLineGap: 0
Panose: 0 0 0 0 0 0 0 0 0 0
OS2TypoAscent: 2020
OS2TypoAOffset: 0
OS2TypoDescent: -720
OS2TypoDOffset: 0
OS2TypoLinegap: 0
OS2WinAscent: 2020
OS2WinAOffset: 0
OS2WinDescent: 720
OS2WinDOffset: 0
HheadAscent: 2020
HheadAOffset: 0
HheadDescent: -720
HheadDOffset: 0
OS2SubXSize: 3863
OS2SubYSize: 3575
OS2SubXOff: 0
OS2SubYOff: 607
OS2SupXSize: 3863
OS2SupYSize: 3575
OS2SupXOff: 0
OS2SupYOff: 2351
OS2StrikeYSize: 209
OS2StrikeYPos: 1567
OS2Vendor: 'newt'
OS2CodePages: 00000093.00000000
OS2UnicodeRanges: a00000ef.4000204a.00000000.00000000
Lookup: 258 0 0 "'kern' Horizontal Kerning in Latin lookup 0"  {"'kern' Horizontal Kerning in Latin lookup 0 per glyph data 0"  "'kern' Horizontal Kerning in Latin lookup 0 kerning class 1"  } ['kern' ('DFLT' <'dflt' > 'latn' <'dflt' > ) ]
MarkAttachClasses: 1
DEI: 91125
KernClass2: 30 29 "'kern' Horizontal Kerning in Latin lookup 0 kerning class 1" 
 89 A Agrave Aacute Acircumflex Atilde Adieresis Aring Amacron Abreve Aogonek uni0200 uni0202
 47 C Ccedilla Cacute Ccircumflex Cdotaccent Ccaron
 16 D Dcaron uni1E0A
 9 F uni1E1E
 52 G Gcircumflex Gbreve Gdotaccent Gcommaaccent uni01F4
 14 K Kcommaaccent
 28 L Lacute Lcommaaccent Lcaron
 89 O Ograve Oacute Ocircumflex Otilde Odieresis Omacron Obreve Ohungarumlaut uni020C uni020E
 9 P uni1E56
 44 R Racute Rcommaaccent Rcaron uni0210 uni0212
 24 T Tcaron uni021A uni1E6A
 1 V
 37 W Wcircumflex Wgrave Wacute Wdieresis
 37 Y Yacute Ycircumflex Ydieresis Ygrave
 9 b uni1E03

StartChar: .notdef
Encoding: 65536 -1 0
Width: 349
Flags: W
LayerCount: 2
Fore
SplineSet
35 -299 m 1,0,-1
 35 1475 l 1,1,-1
 314 1475 l 1,2,-1
 314 -299 l 1,3,-1
 35 -299 l 1,0,-1
70 -197 m 1,4,-1
 280 -197 l 1,5,-1
 280 1373 l 1,6,-1
 70 1373 l 1,7,-1
 70 -197 l 1,4,-1
EndSplineSet
EndChar

StartChar: exclam
Encoding: 33 33 4
Width: 402
GlyphClass: 2
Flags: W
LayerCount: 2
Fore
SplineSet
260 1502 m 2,0,1
 286 1502 286 1502 286 1441 c 2,2,-1
 286 1429 l 1,3,-1
 243 541 l 2,4,5
 240 468 240 468 221 468 c 2,6,-1
 183 468 l 2,7,8
 163 468 163 468 160 541 c 2,9,-1
 116 1428 l 1,10,-1
 116 1437 l 2,11,12
 116 1465 116 1465 123.5 1483.5 c 128,-1,13
 131 1502 131 1502 142 1502 c 2,14,-1
 260 1502 l 2,0,1
269 253 m 2,15,16
 295 253 295 253 295 203 c 2,17,-1
 295 51 l 2,18,19
 295 0 295 0 269 0 c 2,20,-1
 132 0 l 2,21,22
 105 0 105 0 105 51 c 2,23,-1
 105 203 l 2,24,25
 105 253 105 253 132 253 c 2,26,-1
 269 253 l 2,15,16
EndSplineSet
EndChar

StartChar: quotedbl
Encoding: 34 34 5
Width: 533
GlyphClass: 2
Flags: W
LayerCount: 2
Fore
SplineSet
445 1438 m 2,0,1
 468 1438 468 1438 468 1376 c 2,2,-1
 468 1364 l 1,3,-1
 431 835 l 1,4,5
 428 765 428 765 409 765 c 2,6,-1
 383 765 l 2,7,8
 364 765 364 765 360 835 c 1,9,-1
 321 1364 l 1,10,-1
 321 1373 l 2,11,12
 321 1400 321 1400 328.5 1419 c 128,-1,13
 336 1438 336 1438 346 1438 c 2,14,-1
 445 1438 l 2,0,1
130 765 m 2,15,16
 110 765 110 765 107 835 c 1,17,-1
 69 1364 l 1,18,-1
 69 1375 l 2,19,20
 69 1401 69 1401 76.5 1419.5 c 128,-1,21
 84 1438 84 1438 94 1438 c 2,22,-1
 192 1438 l 2,23,24
 202 1438 202 1438 209 1419 c 128,-1,25
 216 1400 216 1400 216 1373 c 2,26,-1
 216 1364 l 1,27,-1
 179 835 l 2,28,29
 174 765 174 765 156 765 c 2,30,-1
 130 765 l 2,15,16
EndSplineSet
EndChar

StartChar: numbersign
Encoding: 35 35 6
Width: 731
GlyphClass: 2
Flags: W
LayerCount: 2
Fore
SplineSet
287 480 m 1,0,-1
 423 480 l 1,1,-1
 451 844 l 1,2,-1
 315 844 l 1,3,-1
 287 480 l 1,0,-1
140 -159 m 2,4,5
 136 -159 136 -159 133 -148 c 128,-1,6
 130 -137 130 -137 132 -124 c 2,7,-1
 170 347 l 1,8,-1
 113 347 l 2,9,10
 89 347 89 347 89 397 c 2,11,-1
 89 430 l 2,12,13
 89 480 89 480 111 480 c 2,14,-1
 184 480 l 1,15,-1
 213 844 l 1,16,-1
 147 844 l 2,17,18
 123 844 123 844 123 894 c 2,19,-1
 123 930 l 2,20,21
 123 980 123 980 146 980 c 2,22,-1
 228 980 l 1,23,-1
 273 1492 l 2,24,25
 275 1527 275 1527 289 1527 c 2,26,-1
 366 1527 l 2,27,28
 377 1527 377 1527 375 1492 c 1,29,-1
 330 980 l 1,30,-1
 466 980 l 1,31,-1
 512 1492 l 1,32,33
 514 1527 514 1527 528 1527 c 2,34,-1
 602 1527 l 2,35,36
 606 1527 606 1527 609 1516 c 128,-1,37
 612 1505 612 1505 610 1492 c 2,38,-1
 565 980 l 1,39,-1
 626 980 l 2,40,41
 648 980 648 980 648 930 c 2,42,-1
 648 894 l 2,43,44
 648 844 648 844 627 844 c 2,45,-1
 551 844 l 1,46,-1
 522 480 l 1,47,-1
 589 480 l 2,48,49
 614 480 614 480 614 430 c 2,50,-1
 614 397 l 2,51,52
 614 347 614 347 591 347 c 2,53,-1
 507 347 l 1,54,-1
 469 -124 l 2,55,56
 466 -159 466 -159 453 -159 c 2,57,-1
 378 -159 l 2,58,59
 368 -159 368 -159 370 -124 c 2,60,-1
 408 347 l 1,61,-1
 272 347 l 1,62,-1
 234 -124 l 2,63,64
 231 -159 231 -159 218 -159 c 2,65,-1
 140 -159 l 2,4,5
EndSplineSet
EndChar

StartChar: dollar
Encoding: 36 36 7
Width: 776
GlyphClass: 2
Flags: W
LayerCount: 2
Fore
SplineSet
403 -198 m 2,0,1
 388 -198 388 -198 388 -132 c 2,2,-1
 388 -15 l 1,3,-1
 381 -15 l 2,4,5
 169 -15 169 -15 47 168 c 0,6,7
 41 177 41 177 41 201.5 c 128,-1,8
 41 226 41 226 69.5 267.5 c 128,-1,9
 98 309 98 309 116 309 c 128,-1,10
 134 309 134 309 142 300 c 0,11,12
 254 157 254 157 381 157 c 2,13,-1
 388 157 l 1,14,-1
 388 618 l 1,15,-1
 277 693 l 1,16,17
 85 821 85 821 85 1050 c 0,18,19
 85 1223 85 1223 167.5 1336 c 128,-1,20
 250 1449 250 1449 388 1454 c 1,21,-1
 388 1578 l 2,22,23
 388 1643 388 1643 403 1643 c 2,24,-1
 425 1643 l 2,25,26
 439 1643 439 1643 439 1578 c 2,27,-1
 439 1453 l 1,28,29
 604 1443 604 1443 700 1317 c 0,30,31
 710 1304 710 1304 710 1277.5 c 128,-1,32
 710 1251 710 1251 680.5 1212 c 128,-1,33
 651 1173 651 1173 638 1173 c 128,-1,34
 625 1173 625 1173 622 1177 c 0,35,36
 544 1271 544 1271 439 1283 c 1,37,-1
 439 834 l 1,38,-1
 523 780 l 2,39,40
 724 650 724 650 724 400 c 0,41,42
 724 236 724 236 647.5 123.5 c 128,-1,43
 571 11 571 11 439 -10 c 1,44,-1
 439 -132 l 2,45,46
 439 -198 439 -198 425 -198 c 2,47,-1
 403 -198 l 2,0,1
439 168 m 1,48,49
 491 189 491 189 519 243.5 c 128,-1,50
 547 298 547 298 547 371 c 128,-1,51
 547 444 547 444 520 493 c 128,-1,52
 493 542 493 542 439 583 c 1,53,-1
 439 168 l 1,48,49
388 1283 m 1,54,55
 329 1273 329 1273 293 1217 c 128,-1,56
 257 1161 257 1161 257 1084.5 c 128,-1,57
 257 1008 257 1008 291 958 c 128,-1,58
 325 908 325 908 388 867 c 1,59,-1
 388 1283 l 1,54,55
EndSplineSet
EndChar

StartChar: percent
Encoding: 37 37 8
Width: 1073
GlyphClass: 2
Flags: W
LayerCount: 2
Fore
SplineSet
849 768 m 0,0,1
 1028 768 1028 768 1028 384 c 128,-1,2
 1028 0 1028 0 848.5 0 c 128,-1,3
 669 0 669 0 669 385 c 0,4,5
 669 586 669 586 714 677 c 128,-1,6
 759 768 759 768 849 768 c 0,0,1
766 381 m 0,7,8
 766 115 766 115 849 115 c 0,9,10
 892 115 892 115 911.5 178.5 c 128,-1,11
 931 242 931 242 931 382.5 c 128,-1,12
 931 523 931 523 911.5 588 c 128,-1,13
 892 653 892 653 848.5 653 c 128,-1,14
 805 653 805 653 785.5 588 c 128,-1,15
 766 523 766 523 766 381 c 0,7,8
404 1055 m 0,16,17
 404 670 404 670 225 670 c 128,-1,18
 46 670 46 670 46 1055 c 0,19,20
 46 1256 46 1256 91 1347 c 128,-1,21
 136 1438 136 1438 225.5 1438 c 128,-1,22
 315 1438 315 1438 359.5 1347 c 128,-1,23
 404 1256 404 1256 404 1055 c 0,16,17
162.5 848.5 m 128,-1,25
 182 785 182 785 225.5 785 c 128,-1,26
 269 785 269 785 288.5 848.5 c 128,-1,27
 308 912 308 912 308 1052.5 c 128,-1,28
 308 1193 308 1193 288.5 1258 c 128,-1,29
 269 1323 269 1323 225.5 1323 c 128,-1,30
 182 1323 182 1323 162.5 1258 c 128,-1,31
 143 1193 143 1193 143 1052.5 c 128,-1,24
 143 912 143 912 162.5 848.5 c 128,-1,25
673 1485 m 2,32,33
 689 1485 689 1485 689 1456.5 c 128,-1,34
 689 1428 689 1428 687 1415 c 2,35,-1
 464 -3 l 2,36,37
 453 -73 453 -73 428 -73 c 2,38,-1
 387 -73 l 2,39,40
 380 -73 380 -73 374.5 -58 c 128,-1,41
 369 -43 369 -43 369 -29.5 c 128,-1,42
 369 -16 369 -16 371 -3 c 2,43,-1
 595 1415 l 2,44,45
 606 1485 606 1485 632 1485 c 2,46,-1
 673 1485 l 2,32,33
EndSplineSet
EndChar

StartChar: ampersand
Encoding: 38 38 9
Width: 1181
GlyphClass: 2
Flags: W
LayerCount: 2
Fore
SplineSet
455.5 151.5 m 128,-1,1
 481 144 481 144 510 144 c 128,-1,2
 539 144 539 144 566.5 149.5 c 128,-1,3
 594 155 594 155 613.5 162.5 c 128,-1,4
 633 170 633 170 650.5 182.5 c 128,-1,5
 668 195 668 195 678.5 205 c 128,-1,6
 689 215 689 215 699 229.5 c 128,-1,7
 709 244 709 244 713 252 c 0,8,9
 727 280 727 280 727 283 c 2,10,-1
 723 641 l 2,11,12
 723 669 723 669 708 669 c 2,13,-1
 473 669 l 1,14,15
 404 668 404 668 357 593 c 128,-1,16
 310 518 310 518 310 433 c 128,-1,17
 310 348 310 348 323 301 c 128,-1,18
 336 254 336 254 356 225 c 128,-1,19
 376 196 376 196 403 177.5 c 128,-1,0
 430 159 430 159 455.5 151.5 c 128,-1,1
540.5 -13 m 128,-1,21
 510 -18 510 -18 454 -18 c 128,-1,22
 398 -18 398 -18 334 4.5 c 128,-1,23
 270 27 270 27 219 75 c 0,24,25
 112 176 112 176 112 405 c 0,26,27
 112 536 112 536 169.5 629.5 c 128,-1,28
 227 723 227 723 299 745 c 1,29,30
 227 764 227 764 168.5 844.5 c 128,-1,31
 110 925 110 925 110 1058 c 0,32,33
 110 1259 110 1259 198 1359 c 128,-1,34
 286 1459 286 1459 437 1459 c 0,35,36
 535 1459 535 1459 586 1430 c 0,37,38
 611 1416 611 1416 611 1398 c 128,-1,39
 611 1380 611 1380 610 1375 c 2,40,-1
 604 1296 l 1,41,42
 603 1251 603 1251 577 1264 c 0,43,44
 575 1264 575 1264 567 1268 c 128,-1,45
 559 1272 559 1272 550 1276 c 0,46,47
 526 1286 526 1286 467.5 1285.5 c 128,-1,48
 409 1285 409 1285 359 1235 c 0,49,50
 308 1184 308 1184 308 1077 c 0,51,52
 308 974 308 974 348 905 c 0,53,54
 388 835 388 835 463 835 c 2,55,-1
 708 835 l 2,56,57
 723 835 723 835 723 865 c 2,58,-1
 730 1354 l 2,59,60
 731 1408 731 1408 761 1408 c 2,61,-1
 891 1408 l 2,62,63
 920 1408 920 1408 920 1354 c 2,64,-1
 920 865 l 2,65,66
 920 835 920 835 934 835 c 2,67,-1
 1083 835 l 2,68,69
 1114 835 1114 835 1114 776 c 2,70,-1
 1114 731 l 2,71,72
 1114 669 1114 669 1083 669 c 2,73,-1
 934 669 l 2,74,75
 920 669 920 669 920 640 c 2,76,-1
 920 365 l 2,77,78
 920 157 920 157 1024 157 c 0,79,80
 1066 157 1066 157 1114 189 c 0,81,82
 1126 196 1126 196 1134.5 185 c 128,-1,83
 1143 174 1143 174 1145 150 c 1,84,-1
 1146 91 l 1,85,-1
 1146 81 l 2,86,87
 1146 35 1146 35 1123 20 c 1,88,89
 1059 -18 1059 -18 992 -18 c 128,-1,90
 925 -18 925 -18 858 18.5 c 128,-1,91
 791 55 791 55 764 125 c 1,92,93
 763 124 763 124 748 106.5 c 128,-1,94
 733 89 733 89 727.5 83.5 c 128,-1,95
 722 78 722 78 704 61 c 128,-1,96
 686 44 686 44 673 36.5 c 128,-1,97
 660 29 660 29 637 16 c 128,-1,98
 614 3 614 3 592.5 -2.5 c 128,-1,20
 571 -8 571 -8 540.5 -13 c 128,-1,21
EndSplineSet
EndChar

StartChar: quotesingle
Encoding: 39 39 10
Width: 363
GlyphClass: 2
Flags: W
LayerCount: 2
Fore
SplineSet
169 765 m 2,0,1
 150 765 150 765 146 835 c 1,2,-1
 108 1364 l 1,3,-1
 108 1375 l 2,4,5
 108 1401 108 1401 115.5 1419.5 c 128,-1,6
 123 1438 123 1438 133 1438 c 2,7,-1
 231 1438 l 2,8,9
 241 1438 241 1438 248 1419 c 128,-1,10
 255 1400 255 1400 255 1373 c 2,11,-1
 255 1364 l 1,12,-1
 218 835 l 2,13,14
 213 765 213 765 195 765 c 2,15,-1
 169 765 l 2,0,1
EndSplineSet
EndChar

StartChar: parenleft
Encoding: 40 40 11
Width: 446
GlyphClass: 2
Flags: W
LayerCount: 2
Fore
SplineSet
318 -143 m 1,0,1
 247 -117 247 -117 197 10.5 c 128,-1,2
 147 138 147 138 125.5 313.5 c 128,-1,3
 104 489 104 489 104 698 c 128,-1,4
 104 907 104 907 125.5 1082.5 c 128,-1,5
 147 1258 147 1258 197 1386 c 128,-1,6
 247 1514 247 1514 318 1540 c 1,7,-1
 320 1540 l 2,8,9
 329 1540 329 1540 336.5 1518.5 c 128,-1,10
 344 1497 344 1497 344 1470 c 2,11,-1
 344 1399 l 2,12,13
 344 1351 344 1351 338.5 1331.5 c 128,-1,14
 333 1312 333 1312 307 1274 c 0,15,16
 281 1236 281 1236 260.5 1083.5 c 128,-1,17
 240 931 240 931 240 698 c 0,18,19
 240 221 240 221 316 112 c 0,20,21
 333 87 333 87 338.5 67 c 128,-1,22
 344 47 344 47 344 -2 c 2,23,-1
 344 -73 l 2,24,25
 344 -100 344 -100 336.5 -121.5 c 128,-1,26
 329 -143 329 -143 320 -143 c 2,27,-1
 318 -143 l 1,0,1
EndSplineSet
EndChar

StartChar: parenright
Encoding: 41 41 12
Width: 450
GlyphClass: 2
Flags: W
LayerCount: 2
Fore
SplineSet
129 -143 m 1,0,-1
 127 -143 l 2,1,2
 118 -143 118 -143 110.5 -121.5 c 128,-1,3
 103 -100 103 -100 103 -73 c 2,4,-1
 103 -1 l 2,5,6
 103 47 103 47 109 67 c 128,-1,7
 115 87 115 87 132 112 c 0,8,9
 208 223 208 223 208 698 c 0,10,11
 208 1175 208 1175 132 1286 c 1,12,13
 111 1319 111 1319 107 1343 c 128,-1,14
 103 1367 103 1367 103 1400 c 2,15,-1
 103 1470 l 2,16,17
 103 1497 103 1497 110.5 1518.5 c 128,-1,18
 118 1540 118 1540 127 1540 c 2,19,-1
 129 1540 l 1,20,21
 200 1514 200 1514 250 1386 c 0,22,23
 342 1147 342 1147 343 698 c 0,24,25
 342 248 342 248 250 10 c 0,26,27
 200 -118 200 -118 129 -143 c 1,0,-1
EndSplineSet
EndChar

StartChar: asterisk
Encoding: 42 42 13
Width: 709
GlyphClass: 2
Flags: W
LayerCount: 2
Fore
SplineSet
184 460 m 0,0,1
 184 515 184 515 321 698 c 1,2,-1
 135 753 l 2,3,4
 99 764 99 764 99 802 c 0,5,6
 99 878 99 878 141 878 c 0,7,8
 162 878 162 878 244 814 c 128,-1,9
 326 750 326 750 336 743 c 1,10,11
 333 768 333 768 325 822 c 0,12,13
 309 931 309 931 309 976 c 128,-1,14
 309 1021 309 1021 322 1033.5 c 128,-1,15
 335 1046 335 1046 355 1046 c 0,16,17
 400 1046 400 1046 400 1001 c 1,18,-1
 379 743 l 1,19,-1
 537 843 l 1,20,21
 547 848 547 848 561 848 c 128,-1,22
 575 848 575 848 589.5 830 c 128,-1,23
 604 812 604 812 604 790 c 0,24,25
 604 753 604 753 564 743 c 2,26,-1
 388 698 l 1,27,28
 524 548 524 548 541 527 c 128,-1,29
 558 506 558 506 558 491 c 128,-1,30
 558 476 558 476 541.5 461.5 c 128,-1,31
 525 447 525 447 505 447 c 128,-1,32
 485 447 485 447 472 467 c 2,33,-1
 353 667 l 1,34,-1
 269 431 l 2,35,36
 266 422 266 422 245.5 422 c 128,-1,37
 225 422 225 422 204.5 432.5 c 128,-1,38
 184 443 184 443 184 460 c 0,0,1
EndSplineSet
EndChar

StartChar: plus
Encoding: 43 43 14
Width: 801
GlyphClass: 2
Flags: W
LayerCount: 2
Fore
SplineSet
489 545 m 2,0,1
 472 545 472 545 472 523 c 2,2,-1
 472 316 l 2,3,4
 472 288 472 288 464.5 279.5 c 128,-1,5
 457 271 457 271 441 271 c 2,6,-1
 369 271 l 2,7,8
 352 271 352 271 344 279.5 c 128,-1,9
 336 288 336 288 336 316 c 2,10,-1
 336 523 l 2,11,12
 336 545 336 545 321 545 c 2,13,-1
 142 545 l 2,14,15
 111 545 111 545 111 587 c 2,16,-1
 111 620 l 2,17,18
 111 646 111 646 119 653.5 c 128,-1,19
 127 661 127 661 142 661 c 2,20,-1
 321 661 l 2,21,22
 336 661 336 661 336 683 c 2,23,-1
 336 881 l 2,24,25
 336 909 336 909 344 917.5 c 128,-1,26
 352 926 352 926 369 926 c 2,27,-1
 441 926 l 2,28,29
 457 926 457 926 464.5 917.5 c 128,-1,30
 472 909 472 909 472 881 c 2,31,-1
 472 683 l 2,32,33
 472 661 472 661 489 661 c 2,34,-1
 665 661 l 2,35,36
 680 661 680 661 688 653.5 c 128,-1,37
 696 646 696 646 696 620 c 2,38,-1
 696 587 l 2,39,40
 696 545 696 545 665 545 c 2,41,-1
 489 545 l 2,0,1
EndSplineSet
EndChar

StartChar: comma
Encoding: 44 44 15
Width: 400
GlyphClass: 2
Flags: W
LayerCount: 2
Fore
SplineSet
155 -288 m 0,0,1
 128 -318 128 -318 110 -318 c 129,-1,2
 92 -318 92 -318 92 -275 c 2,3,-1
 92 -257 l 2,4,5
 92 -226 92 -226 95 -218 c 128,-1,6
 98 -210 98 -210 117.5 -187 c 128,-1,7
 137 -164 137 -164 149.5 -116 c 128,-1,8
 162 -68 162 -68 162 -34 c 128,-1,9
 162 0 162 0 156 0 c 2,10,-1
 111 0 l 2,11,12
 90 0 90 0 90 57 c 2,13,-1
 90 204 l 2,14,15
 90 264 90 264 117 264 c 2,16,-1
 233 264 l 2,17,18
 259 264 259 264 259 200 c 2,19,-1
 259 50 l 2,20,21
 259 -172 259 -172 155 -288 c 0,0,1
EndSplineSet
EndChar

StartChar: hyphen
Encoding: 45 45 16
Width: 656
GlyphClass: 2
Flags: W
LayerCount: 2
Fore
SplineSet
89 634 m 2,0,1
 89 684 89 684 115 684 c 2,2,-1
 542 684 l 2,3,4
 567 684 567 684 567 634 c 2,5,-1
 567 583 l 2,6,7
 567 532 567 532 542 532 c 2,8,-1
 115 532 l 2,9,10
 89 532 89 532 89 583 c 2,11,-1
 89 634 l 2,0,1
EndSplineSet
EndChar

StartChar: period
Encoding: 46 46 17
Width: 377
GlyphClass: 2
Flags: W
LayerCount: 2
Fore
SplineSet
120 0 m 2,0,1
 94 0 94 0 94 51 c 2,2,-1
 94 203 l 2,3,4
 94 253 94 253 120 253 c 2,5,-1
 257 253 l 2,6,7
 284 253 284 253 284 203 c 2,8,-1
 284 51 l 2,9,10
 284 0 284 0 257 0 c 2,11,-1
 120 0 l 2,0,1
EndSplineSet
EndChar

StartChar: slash
Encoding: 47 47 18
Width: 564
GlyphClass: 2
Flags: W
LayerCount: 2
Fore
SplineSet
84 -179 m 1,0,-1
 319 1612 l 2,1,2
 324 1647 324 1647 337 1647 c 2,3,-1
 474 1647 l 2,4,5
 484 1647 484 1647 484 1631 c 128,-1,6
 484 1615 484 1615 483 1612 c 2,7,-1
 248 -171 l 2,8,9
 243 -206 243 -206 232 -206 c 2,10,-1
 93 -205 l 2,11,12
 84 -205 84 -205 84 -179 c 1,0,-1
EndSplineSet
EndChar

StartChar: zero
Encoding: 48 48 19
Width: 891
GlyphClass: 2
Flags: W
LayerCount: 2
Fore
SplineSet
103 724 m 0,0,1
 103 980 103 980 129.5 1097.5 c 128,-1,2
 156 1215 156 1215 181 1271.5 c 128,-1,3
 206 1328 206 1328 234 1362.5 c 0,4,5
 262 1396 262 1396 298 1418 c 0,6,7
 360 1455 360 1455 431 1455.5 c 128,-1,8
 502 1456 502 1456 548.5 1440 c 128,-1,9
 595 1424 595 1424 641 1376.5 c 0,10,11
 688 1328 688 1328 718 1250 c 0,12,13
 786 1074 786 1074 786 724 c 0,14,15
 786 -18 786 -18 444.5 -18 c 128,-1,16
 103 -18 103 -18 103 724 c 0,0,1
324.5 277 m 128,-1,18
 359 145 359 145 444.5 145 c 128,-1,19
 530 145 530 145 564 276.5 c 128,-1,20
 598 408 598 408 598 721 c 128,-1,21
 598 1034 598 1034 563.5 1164 c 128,-1,22
 529 1294 529 1294 443 1294 c 128,-1,23
 357 1294 357 1294 323.5 1164.5 c 128,-1,24
 290 1035 290 1035 290 722 c 128,-1,17
 290 409 290 409 324.5 277 c 128,-1,18
EndSplineSet
EndChar

StartChar: one
Encoding: 49 49 20
Width: 539
GlyphClass: 2
Flags: W
LayerCount: 2
Fore
SplineSet
216 0 m 2,0,1
 191 0 191 0 191 67 c 2,2,-1
 191 1172 l 2,3,4
 191 1204 191 1204 178 1202 c 1,5,6
 99 1182 99 1182 98 1182 c 0,7,8
 76 1180 76 1180 76 1226 c 2,9,-1
 76 1322 l 2,10,11
 76 1362 76 1362 100 1367 c 1,12,-1
 364 1435 l 2,13,14
 367 1436 367 1436 373 1436 c 0,15,16
 395 1436 395 1436 395 1389 c 2,17,-1
 395 67 l 2,18,19
 395 0 395 0 369 0 c 2,20,-1
 216 0 l 2,0,1
EndSplineSet
EndChar

StartChar: two
Encoding: 50 50 21
Width: 727
GlyphClass: 2
Flags: W
LayerCount: 2
Fore
SplineSet
316.5 390.5 m 128,-1,1
 284 302 284 302 274 252.5 c 128,-1,2
 264 203 264 203 264 174.5 c 128,-1,3
 264 146 264 146 278 146 c 2,4,-1
 611 146 l 2,5,6
 629 146 629 146 629 96 c 2,7,-1
 629 48 l 2,8,9
 629 1 629 1 611 1 c 2,10,-1
 111 1 l 2,11,12
 84 1 84 1 84 70 c 1,13,-1
 85 130 l 1,14,15
 94 275 94 275 140 405 c 128,-1,16
 186 535 186 535 245 626 c 0,17,18
 304 718 304 718 362 798 c 0,19,20
 498 989 498 989 498 1093.5 c 128,-1,21
 498 1198 498 1198 452 1244 c 128,-1,22
 406 1290 406 1290 353 1290 c 128,-1,23
 300 1290 300 1290 262.5 1282 c 128,-1,24
 225 1274 225 1274 205 1266 c 0,25,26
 165 1250 165 1250 119 1227 c 1,27,28
 100 1209 100 1209 98 1240 c 1,29,30
 80 1317 80 1317 80 1343.5 c 128,-1,31
 80 1370 80 1370 89 1383 c 1,32,33
 195 1454 195 1454 342 1454 c 0,34,35
 586 1454 586 1454 648 1272 c 0,36,37
 668 1215 668 1215 668 1144.5 c 128,-1,38
 668 1074 668 1074 650.5 1012 c 128,-1,39
 633 950 633 950 604 896.5 c 128,-1,40
 575 843 575 843 538.5 788.5 c 128,-1,41
 502 734 502 734 462 672 c 128,-1,42
 422 610 422 610 385.5 544.5 c 128,-1,0
 349 479 349 479 316.5 390.5 c 128,-1,1
EndSplineSet
EndChar

StartChar: three
Encoding: 51 51 22
Width: 662
GlyphClass: 2
Flags: W
LayerCount: 2
Fore
SplineSet
73 35 m 0,0,1
 59 47 59 47 59 108 c 128,-1,2
 59 169 59 169 66 169 c 1,3,4
 67 197 67 197 71.5 197 c 128,-1,5
 76 197 76 197 80 194 c 0,6,7
 161 146 161 146 251 146 c 0,8,9
 437 146 437 146 437 397 c 1,10,11
 436 514 436 514 391.5 580.5 c 128,-1,12
 347 647 347 647 262 648 c 1,13,-1
 226 648 l 2,14,15
 209 648 209 648 203.5 655.5 c 128,-1,16
 198 663 198 663 198 684 c 2,17,-1
 198 791 l 2,18,19
 198 815 198 815 226 815 c 2,20,-1
 261 815 l 1,21,22
 427 819 427 819 427 1053 c 0,23,24
 427 1182 427 1182 387 1237 c 128,-1,25
 347 1292 347 1292 252 1292 c 128,-1,26
 157 1292 157 1292 78 1245 c 1,27,28
 64 1235 64 1235 64 1271 c 1,29,30
 62 1271 62 1271 59 1304.5 c 128,-1,31
 56 1338 56 1338 56 1345.5 c 128,-1,32
 56 1353 56 1353 60.5 1375 c 128,-1,33
 65 1397 65 1397 71 1402 c 1,34,35
 154 1454 154 1454 293 1454 c 0,36,37
 428 1454 428 1454 512 1368 c 0,38,39
 602 1275 602 1275 602 1061 c 0,40,41
 602 780 602 780 405 730 c 1,42,43
 506 707 506 707 557.5 612 c 128,-1,44
 609 517 609 517 609 387.5 c 128,-1,45
 609 258 609 258 581.5 181.5 c 0,46,47
 554 106 554 106 506 64 c 0,48,49
 414 -15 414 -15 274 -15 c 129,-1,50
 134 -15 134 -15 73 35 c 0,0,1
EndSplineSet
EndChar

StartChar: four
Encoding: 52 52 23
Width: 894
GlyphClass: 2
Flags: W
LayerCount: 2
Fore
SplineSet
351 1438 m 2,0,1
 386 1438 386 1438 386 1387 c 0,2,3
 386 1376 386 1376 385 1370 c 2,4,-1
 287 489 l 2,5,6
 286 482 286 482 291 471 c 128,-1,7
 296 460 296 460 305 460 c 2,8,-1
 534 460 l 1,9,-1
 534 1377 l 2,10,11
 534 1438 534 1438 571 1438 c 2,12,-1
 668 1438 l 2,13,14
 705 1438 705 1438 705 1377 c 2,15,-1
 705 460 l 1,16,-1
 835 460 l 2,17,18
 879 460 879 460 879 404 c 2,19,-1
 879 341 l 2,20,21
 879 285 879 285 835 285 c 2,22,-1
 705 285 l 1,23,-1
 705 60 l 2,24,25
 705 -1 705 -1 668 -1 c 2,26,-1
 571 -1 l 2,27,28
 534 -1 534 -1 534 60 c 2,29,-1
 534 285 l 1,30,-1
 136 285 l 2,31,32
 115 285 115 285 101 299.5 c 128,-1,33
 87 314 87 314 87 330.5 c 128,-1,34
 87 347 87 347 88 352 c 2,35,-1
 231 1370 l 2,36,37
 237 1407 237 1407 244.5 1422.5 c 128,-1,38
 252 1438 252 1438 269 1438 c 2,39,-1
 351 1438 l 2,0,1
EndSplineSet
EndChar

StartChar: five
Encoding: 53 53 24
Width: 841
GlyphClass: 2
Flags: W
LayerCount: 2
Fore
SplineSet
479 938 m 0,0,1
 761 938 761 938 761 464 c 0,2,3
 762 56 762 56 520 -2 c 0,4,5
 470 -14 470 -14 416 -15 c 0,6,7
 414 -14 414 -14 412 -14 c 0,8,9
 356 -14 356 -14 260.5 8.5 c 128,-1,10
 165 31 165 31 141.5 47.5 c 128,-1,11
 118 64 118 64 118 104 c 0,12,13
 118 212 118 212 137 212 c 0,14,15
 140 212 140 212 143 210 c 128,-1,16
 146 208 146 208 158 202.5 c 128,-1,17
 170 197 170 197 183 190.5 c 128,-1,18
 196 184 196 184 217.5 176 c 128,-1,19
 239 168 239 168 261 162 c 0,20,21
 312 148 312 148 368 148 c 0,22,23
 494 148 494 148 539 227.5 c 128,-1,24
 584 307 584 307 584 477 c 0,25,26
 584 644 584 644 539 718 c 0,27,28
 497 788 497 788 407 788 c 0,29,30
 328 788 328 788 286 736 c 0,31,32
 268 714 268 714 255 692 c 0,33,34
 224 640 224 640 203 641 c 2,35,-1
 155 641 l 2,36,37
 141 642 141 642 137 658 c 0,38,39
 132 679 132 679 132 721 c 1,40,-1
 112 1345 l 1,41,-1
 112 1358 l 2,42,43
 112 1438 112 1438 141 1438 c 2,44,-1
 688 1438 l 2,45,46
 710 1438 710 1438 710 1393 c 1,47,-1
 708 1310 l 1,48,49
 705 1267 705 1267 693 1267 c 2,50,-1
 273 1267 l 2,51,52
 250 1267 250 1267 250 1217 c 2,53,-1
 253 822 l 1,54,55
 327 938 327 938 479 938 c 0,0,1
EndSplineSet
EndChar

StartChar: six
Encoding: 54 54 25
Width: 844
GlyphClass: 2
Flags: W
LayerCount: 2
Fore
SplineSet
447 147 m 0,0,1
 494 148 494 148 522 172 c 0,2,3
 584 226 584 226 585 456 c 0,4,5
 585 664 585 664 521 718 c 0,6,7
 495 740 495 740 444 740 c 128,-1,8
 393 740 393 740 302 696 c 1,9,-1
 302 576 l 2,10,11
 302 336 302 336 335.5 241.5 c 128,-1,12
 369 147 369 147 447 147 c 0,0,1
185.5 149.5 m 128,-1,14
 104 314 104 314 104 708 c 128,-1,15
 104 1102 104 1102 190.5 1278 c 128,-1,16
 277 1454 277 1454 480 1454 c 0,17,18
 542 1454 542 1454 608.5 1434.5 c 0,19,20
 674 1415 674 1415 692 1400 c 0,21,22
 718 1377 718 1377 719 1340 c 0,23,24
 719 1336 719 1336 715.5 1300 c 128,-1,25
 712 1264 712 1264 710 1252 c 0,26,27
 706 1219 706 1219 688 1232 c 0,28,29
 600 1289 600 1289 524.5 1289 c 0,30,31
 450 1289 450 1289 404 1255 c 0,32,33
 304 1180 304 1180 303 884 c 2,34,-1
 303 859 l 1,35,36
 416 905 416 905 483.5 905 c 128,-1,37
 551 905 551 905 612 870 c 0,38,39
 672 834 672 834 708 770 c 0,40,41
 776 646 776 646 777 441 c 0,42,43
 777 129 777 129 642 37 c 0,44,45
 566 -15 566 -15 442 -15 c 0,46,13
 267 -15 267 -15 185.5 149.5 c 128,-1,14
EndSplineSet
EndChar

StartChar: seven
Encoding: 55 55 26
Width: 586
GlyphClass: 2
Flags: W
LayerCount: 2
Fore
SplineSet
189 0 m 2,0,1
 165 0 165 0 165 50 c 0,2,3
 165 58 165 58 166 66 c 2,4,-1
 304 1210 l 2,5,6
 307 1237 307 1237 293 1237 c 2,7,-1
 98 1237 l 2,8,9
 72 1237 72 1237 72 1283 c 2,10,-1
 72 1394 l 2,11,12
 72 1438 72 1438 98 1438 c 2,13,-1
 490 1438 l 2,14,15
 514 1438 514 1438 514 1389 c 0,16,17
 514 1379 514 1379 513 1373 c 2,18,-1
 357 66 l 2,19,20
 349 0 349 0 330 0 c 2,21,-1
 189 0 l 2,0,1
EndSplineSet
EndChar

StartChar: eight
Encoding: 56 56 27
Width: 849
GlyphClass: 2
Flags: W
LayerCount: 2
Fore
SplineSet
427 175 m 0,0,1
 501 175 501 175 538.5 233.5 c 128,-1,2
 576 292 576 292 576 444 c 0,3,4
 576 598 576 598 502 646 c 0,5,6
 470 666 470 666 407 687.5 c 128,-1,7
 344 709 344 709 316 721 c 1,8,9
 298 683 298 683 284.5 603 c 128,-1,10
 271 523 271 523 271 457 c 0,11,12
 271 175 271 175 427 175 c 0,0,1
633 767 m 1,13,14
 744 672 744 672 744 425 c 0,15,16
 744 132 744 132 608 36 c 0,17,18
 536 -15 536 -15 426 -15 c 0,19,20
 272 -16 272 -16 204 64 c 0,21,22
 106 178 106 178 106 431 c 0,23,24
 106 557 106 557 139.5 655.5 c 128,-1,25
 173 754 173 754 217 794 c 1,26,27
 135 880 135 880 135 1068 c 0,28,29
 135 1454 135 1454 426 1454 c 0,30,31
 584 1454 584 1454 655 1337 c 0,32,33
 712 1243 712 1243 712 1064 c 0,34,35
 712 969 712 969 688.5 887 c 128,-1,36
 665 805 665 805 633 767 c 1,13,14
525 826 m 1,37,38
 537 840 537 840 550 915.5 c 128,-1,39
 563 991 563 991 563 1057 c 0,40,41
 563 1301 563 1301 426 1301 c 128,-1,42
 289 1301 289 1301 289 1071 c 0,43,44
 289 942 289 942 339.5 892.5 c 128,-1,45
 390 843 390 843 525 826 c 1,37,38
EndSplineSet
EndChar

StartChar: nine
Encoding: 57 57 28
Width: 866
GlyphClass: 2
Flags: W
LayerCount: 2
Fore
SplineSet
325.5 767.5 m 128,-1,1
 354 692 354 692 425.5 692 c 128,-1,2
 497 692 497 692 564 745 c 1,3,-1
 564 912 l 2,4,5
 564 1192 564 1192 504 1260 c 0,6,7
 476 1292 476 1292 420 1292 c 0,8,9
 298 1292 298 1292 297 982 c 0,10,0
 297 843 297 843 325.5 767.5 c 128,-1,1
408 -15 m 0,11,12
 353 -15 353 -15 277 12 c 128,-1,13
 201 39 201 39 171 68 c 1,14,15
 157 79 157 79 157 121 c 1,16,-1
 163 199 l 1,17,18
 165 238 165 238 176 236 c 0,19,20
 181 236 181 236 195 224 c 128,-1,21
 209 212 209 212 271 186 c 128,-1,22
 333 160 333 160 399 160 c 0,23,24
 490 160 490 160 526.5 245 c 128,-1,25
 563 330 563 330 563 527 c 2,26,-1
 563 581 l 1,27,28
 476 527 476 527 411 527 c 0,29,30
 305 527 305 527 235 588 c 0,31,32
 103 703 103 703 103 994 c 0,33,34
 104 1388 104 1388 326 1449 c 0,35,36
 374 1462 374 1462 433 1462 c 0,37,38
 548 1462 548 1462 618 1396 c 0,39,40
 764 1260 764 1260 763 749 c 0,41,42
 763 186 763 186 613 52 c 0,43,44
 538 -16 538 -16 408 -15 c 0,11,12
EndSplineSet
EndChar

StartChar: colon
Encoding: 58 58 29
Width: 340
GlyphClass: 2
Flags: W
LayerCount: 2
Fore
SplineSet
126 690 m 2,0,1
 99 690 99 690 99 754 c 2,2,-1
 99 958 l 2,3,4
 99 1022 99 1022 126 1022 c 2,5,-1
 214 1022 l 2,6,7
 241 1022 241 1022 241 958 c 2,8,-1
 241 754 l 2,9,10
 241 690 241 690 214 690 c 2,11,-1
 126 690 l 2,0,1
126 0 m 2,12,13
 99 0 99 0 99 64 c 2,14,-1
 99 268 l 2,15,16
 99 332 99 332 126 332 c 2,17,-1
 214 332 l 2,18,19
 241 332 241 332 241 268 c 2,20,-1
 241 64 l 2,21,22
 241 0 241 0 214 0 c 2,23,-1
 126 0 l 2,12,13
EndSplineSet
EndChar

StartChar: semicolon
Encoding: 59 59 30
Width: 356
GlyphClass: 2
Flags: W
LayerCount: 2
Fore
SplineSet
125 690 m 2,0,1
 98 690 98 690 98 754 c 2,2,-1
 98 958 l 2,3,4
 98 1022 98 1022 125 1022 c 2,5,-1
 230 1022 l 2,6,7
 256 1022 256 1022 256 958 c 2,8,-1
 256 754 l 2,9,10
 256 690 256 690 230 690 c 2,11,-1
 125 690 l 2,0,1
120 -328 m 0,12,13
 118 -329 118 -329 115 -329 c 0,14,15
 96 -329 96 -329 96 -283 c 2,16,-1
 96 -266 l 2,17,18
 96 -222 96 -222 101 -214 c 128,-1,19
 106 -206 106 -206 123.5 -185 c 128,-1,20
 141 -164 141 -164 153.5 -116 c 128,-1,21
 166 -68 166 -68 166 -34 c 128,-1,22
 166 0 166 0 160 0 c 2,23,-1
 117 0 l 2,24,25
 96 0 96 0 96 57 c 2,26,-1
 96 248 l 2,27,28
 96 308 96 308 117 308 c 2,29,-1
 237 308 l 2,30,31
 263 308 263 308 263 244 c 2,32,-1
 263 50 l 2,33,34
 263 -108 263 -108 216 -206.5 c 128,-1,35
 169 -305 169 -305 120 -328 c 0,12,13
EndSplineSet
EndChar

StartChar: less
Encoding: 60 60 31
Width: 1073
GlyphClass: 2
Flags: W
LayerCount: 2
Fore
SplineSet
549.5 157.5 m 128,-1,1
 540 145 540 145 529.5 145 c 128,-1,2
 519 145 519 145 500 158 c 1,3,-1
 209 499 l 2,4,5
 172 541 172 541 163 562.5 c 128,-1,6
 154 584 154 584 154 606 c 2,7,-1
 154 655 l 2,8,9
 154 694 154 694 170 714.5 c 128,-1,10
 186 735 186 735 210 762 c 1,11,-1
 500 1112 l 1,12,13
 511 1122 511 1122 525.5 1122 c 128,-1,14
 540 1122 540 1122 549.5 1109.5 c 128,-1,15
 559 1097 559 1097 559 1079 c 2,16,-1
 559 1023 l 2,17,18
 559 995 559 995 553 984 c 128,-1,19
 547 973 547 973 546 970 c 128,-1,20
 545 967 545 967 538.5 959 c 128,-1,21
 532 951 532 951 531 950 c 128,-1,22
 530 949 530 949 521 939 c 128,-1,23
 512 929 512 929 511 928 c 2,24,-1
 287 648 l 1,25,26
 278 639 278 639 278 630 c 128,-1,27
 278 621 278 621 287 612 c 1,28,-1
 511 342 l 1,29,30
 523 330 523 330 528 324 c 128,-1,31
 533 318 533 318 538.5 311.5 c 128,-1,32
 544 305 544 305 546 301.5 c 128,-1,33
 548 298 548 298 551.5 291.5 c 0,34,35
 555 286 555 286 556 280 c 0,36,37
 559 264 559 264 559 250 c 2,38,-1
 559 187 l 2,39,0
 559 170 559 170 549.5 157.5 c 128,-1,1
EndSplineSet
EndChar

StartChar: equal
Encoding: 61 61 32
Width: 560
GlyphClass: 2
Flags: W
LayerCount: 2
Fore
SplineSet
72 617 m 2,0,1
 59 617 59 617 53.5 625 c 128,-1,2
 48 633 48 633 48 663 c 2,3,-1
 48 704 l 2,4,5
 48 734 48 734 53.5 742 c 128,-1,6
 59 750 59 750 72 750 c 2,7,-1
 488 750 l 2,8,9
 501 750 501 750 506.5 742 c 128,-1,10
 512 734 512 734 512 704 c 2,11,-1
 512 663 l 2,12,13
 512 633 512 633 506.5 625 c 128,-1,14
 501 617 501 617 488 617 c 2,15,-1
 72 617 l 2,0,1
72 338 m 2,16,17
 59 338 59 338 53.5 346 c 128,-1,18
 48 354 48 354 48 384 c 2,19,-1
 48 425 l 2,20,21
 48 455 48 455 53.5 462.5 c 128,-1,22
 59 470 59 470 72 470 c 2,23,-1
 488 470 l 2,24,25
 501 470 501 470 506.5 462.5 c 128,-1,26
 512 455 512 455 512 425 c 2,27,-1
 512 384 l 2,28,29
 512 354 512 354 506.5 346 c 128,-1,30
 501 338 501 338 488 338 c 2,31,-1
 72 338 l 2,16,17
EndSplineSet
EndChar

StartChar: greater
Encoding: 62 62 33
Width: 1073
GlyphClass: 2
Flags: W
LayerCount: 2
Fore
SplineSet
154 1081 m 2,0,1
 154 1122 154 1122 187 1122 c 0,2,3
 197 1122 197 1122 212 1110 c 1,4,-1
 503 768 l 1,5,6
 540 726 540 726 549.5 705 c 128,-1,7
 559 684 559 684 559 662 c 2,8,-1
 559 613 l 2,9,10
 559 595 559 595 556 586.5 c 128,-1,11
 553 578 553 578 552 573.5 c 128,-1,12
 551 569 551 569 546 562 c 128,-1,13
 541 555 541 555 540 552 c 128,-1,14
 539 549 539 549 532 540.5 c 0,15,16
 526 532 526 532 524 530 c 0,17,18
 517 520 517 520 502 506 c 1,19,-1
 213 156 l 1,20,21
 199 145 199 145 187 145 c 0,22,23
 154 145 154 145 154 189 c 2,24,-1
 154 244 l 2,25,26
 154 276 154 276 162.5 289.5 c 128,-1,27
 171 303 171 303 172.5 305.5 c 128,-1,28
 174 308 174 308 178.5 314 c 128,-1,29
 183 320 183 320 185 322 c 0,30,31
 197 334 197 334 201 340 c 2,32,-1
 426 619 l 2,33,34
 434 628 434 628 434 638 c 128,-1,35
 434 648 434 648 425 655 c 1,36,-1
 202 925 l 2,37,38
 199 929 199 929 190.5 937.5 c 128,-1,39
 182 946 182 946 179.5 949.5 c 128,-1,40
 177 953 177 953 171 960 c 128,-1,41
 165 967 165 967 163.5 971.5 c 128,-1,42
 162 976 162 976 159 984 c 0,43,44
 154 996 154 996 154 1017 c 2,45,-1
 154 1081 l 2,0,1
EndSplineSet
EndChar

StartChar: question
Encoding: 63 63 34
Width: 772
GlyphClass: 2
Flags: W
LayerCount: 2
Fore
SplineSet
257 0 m 2,0,1
 236 0 236 0 222.5 17.5 c 128,-1,2
 209 35 209 35 209 65 c 2,3,-1
 209 176 l 2,4,5
 209 206 209 206 222.5 223.5 c 128,-1,6
 236 241 236 241 257 241 c 2,7,-1
 362 241 l 2,8,9
 383 241 383 241 396.5 223.5 c 128,-1,10
 410 206 410 206 410 176 c 2,11,-1
 410 65 l 2,12,13
 410 35 410 35 396.5 17.5 c 128,-1,14
 383 0 383 0 362 0 c 2,15,-1
 257 0 l 2,0,1
316 525 m 1,16,17
 304 509 304 509 291.5 509 c 128,-1,18
 279 509 279 509 273.5 517 c 128,-1,19
 268 525 268 525 261 537.5 c 128,-1,20
 254 550 254 550 251 556 c 0,21,22
 242 574 242 574 240 594 c 1,23,24
 231 620 231 620 250 641 c 1,25,26
 284 708 284 708 317.5 743 c 128,-1,27
 351 778 351 778 422 827 c 0,28,29
 548 912 548 912 548 1070 c 1,30,31
 545 1176 545 1176 491.5 1234.5 c 128,-1,32
 438 1293 438 1293 362 1293 c 0,33,34
 247 1293 247 1293 141 1218 c 0,35,36
 121 1205 121 1205 108 1247 c 1,37,38
 103 1247 103 1247 92.5 1283 c 128,-1,39
 82 1319 82 1319 82 1342 c 128,-1,40
 82 1365 82 1365 106 1379 c 1,41,42
 157 1415 157 1415 228.5 1440 c 128,-1,43
 300 1465 300 1465 359.5 1465 c 128,-1,44
 419 1465 419 1465 466.5 1452.5 c 128,-1,45
 514 1440 514 1440 558 1411 c 128,-1,46
 602 1382 602 1382 634 1338 c 0,47,48
 704 1242 704 1242 708 1073 c 1,49,50
 708 833 708 833 444 674 c 0,51,52
 368 628 368 628 316 525 c 1,16,17
EndSplineSet
EndChar

StartChar: at
Encoding: 64 64 35
Width: 1381
GlyphClass: 2
Flags: W
LayerCount: 2
Fore
SplineSet
561 415 m 128,-1,1
 607 327 607 327 695 327 c 128,-1,2
 783 327 783 327 835.5 410 c 128,-1,3
 888 493 888 493 888 650 c 128,-1,4
 888 807 888 807 835.5 892 c 128,-1,5
 783 977 783 977 694 977 c 128,-1,6
 605 977 605 977 560 889 c 128,-1,7
 515 801 515 801 515 652 c 128,-1,0
 515 503 515 503 561 415 c 128,-1,1
1024 487 m 2,8,9
 1024 331 1024 331 1095 331 c 0,10,11
 1189 331 1189 331 1189 705 c 0,12,13
 1189 1231 1189 1231 896 1352 c 0,14,15
 814 1386 814 1386 711.5 1386 c 128,-1,16
 609 1386 609 1386 525.5 1346 c 128,-1,17
 442 1306 442 1306 386 1238 c 128,-1,18
 330 1170 330 1170 292 1077 c 0,19,20
 218 899 218 899 218 664 c 0,21,22
 218 292 218 292 382 102 c 0,23,24
 440 36 440 36 529 -4.5 c 128,-1,25
 618 -45 618 -45 733 -45 c 128,-1,26
 848 -45 848 -45 974 15 c 1,27,-1
 975 16 l 2,28,29
 976 16 976 16 977 16 c 0,30,31
 989 16 989 16 1004 -14 c 128,-1,32
 1019 -44 1019 -44 1019 -62.5 c 128,-1,33
 1019 -81 1019 -81 1011 -86 c 0,34,35
 956 -117 956 -117 876 -137 c 128,-1,36
 796 -157 796 -157 721 -157 c 0,37,38
 566 -157 566 -157 443.5 -91.5 c 0,39,40
 320 -26 320 -26 244 88 c 0,41,42
 88 320 88 320 88 668 c 0,43,44
 88 1110 88 1110 307 1342 c 0,45,46
 460 1504 460 1504 707 1504 c 0,47,48
 1078 1504 1078 1504 1224 1178 c 0,49,50
 1310 984 1310 984 1310 725.5 c 128,-1,51
 1310 467 1310 467 1247 348.5 c 128,-1,52
 1184 230 1184 230 1097 230 c 0,53,54
 1031 230 1031 230 991.5 279 c 128,-1,55
 952 328 952 328 946 413 c 1,56,57
 942 450 942 450 936 450 c 128,-1,58
 930 450 930 450 924 423 c 1,59,60
 892 317 892 317 835 262 c 128,-1,61
 778 207 778 207 679 207 c 0,62,63
 550 207 550 207 468.5 324.5 c 128,-1,64
 387 442 387 442 387 657.5 c 128,-1,65
 387 873 387 873 465 989 c 128,-1,66
 543 1105 543 1105 670 1105 c 0,67,68
 853 1105 853 1105 914 883 c 0,69,70
 918 868 918 868 922 868 c 128,-1,71
 926 868 926 868 926 880 c 1,72,-1
 938 1011 l 1,73,74
 945 1060 945 1060 981 1060 c 2,75,-1
 989 1060 l 2,76,77
 1024 1060 1024 1060 1024 1003 c 2,78,-1
 1024 487 l 2,8,9
EndSplineSet
EndChar

StartChar: A
Encoding: 65 65 36
Width: 822
GlyphClass: 2
Flags: W
LayerCount: 2
Fore
SplineSet
306 443 m 2,0,-1
 510 443 l 2,1,2
 517 443 517 443 517 455 c 128,-1,3
 517 467 517 467 515 470 c 1,4,-1
 416 1241 l 2,5,6
 415 1248 415 1248 412.5 1248 c 128,-1,7
 410 1248 410 1248 409 1242 c 2,8,-1
 292 471 l 2,9,10
 291 464 291 464 291 462 c 0,11,12
 291 443 291 443 306 443 c 2,0,-1
776 63 m 1,13,-1
 780 28 l 1,14,15
 780 0 780 0 763 0 c 2,16,-1
 598 0 l 2,17,18
 574 0 574 0 567 41 c 1,19,-1
 530 296 l 2,20,21
 527 318 527 318 519 318 c 2,22,-1
 277 318 l 2,23,24
 270 318 270 318 266 295 c 2,25,-1
 224 42 l 2,26,27
 217 0 217 0 196 0 c 2,28,-1
 68 0 l 2,29,30
 53 0 53 0 53 29 c 2,31,-1
 53 46 l 2,32,33
 53 59 53 59 54 63 c 2,34,-1
 279 1388 l 2,35,36
 287 1436 287 1436 316 1438 c 1,37,-1
 519 1438 l 1,38,39
 547 1436 547 1436 555 1388 c 2,40,-1
 776 63 l 1,13,-1
EndSplineSet
EndChar

StartChar: B
Encoding: 66 66 37
Width: 896
GlyphClass: 2
Flags: W
LayerCount: 2
Fore
SplineSet
327 833 m 2,0,-1
 493 833 l 2,1,2
 548 833 548 833 581 887.5 c 128,-1,3
 614 942 614 942 614 1049.5 c 128,-1,4
 614 1157 614 1157 571.5 1219.5 c 128,-1,5
 529 1282 529 1282 455 1282 c 2,6,-1
 327 1282 l 2,7,8
 313 1282 313 1282 313 1260 c 2,9,-1
 313 853 l 2,10,11
 313 833 313 833 327 833 c 2,0,-1
327 150 m 2,12,-1
 454 150 l 2,13,14
 542 150 542 150 590.5 224 c 128,-1,15
 639 298 639 298 639 418 c 128,-1,16
 639 538 639 538 596 611 c 128,-1,17
 553 684 553 684 486 684 c 2,18,-1
 327 684 l 2,19,20
 313 684 313 684 313 660 c 2,21,-1
 313 170 l 2,22,23
 313 150 313 150 327 150 c 2,12,-1
143 0 m 2,24,25
 129 0 129 0 122.5 8 c 128,-1,26
 116 16 116 16 116 44 c 2,27,-1
 116 1393 l 2,28,29
 116 1422 116 1422 122.5 1430 c 128,-1,30
 129 1438 129 1438 143 1438 c 2,31,-1
 509 1438 l 2,32,33
 794 1438 794 1438 794 1041 c 0,34,35
 794 856 794 856 705 782 c 1,36,37
 696 773 696 773 696 770 c 128,-1,38
 696 767 696 767 706 757 c 1,39,40
 831 668 831 668 831 424 c 0,41,42
 831 90 831 90 629 20 c 0,43,44
 569 0 569 0 490 0 c 2,45,-1
 143 0 l 2,24,25
EndSplineSet
EndChar

StartChar: C
Encoding: 67 67 38
Width: 717
GlyphClass: 2
Flags: W
LayerCount: 2
Fore
SplineSet
646 8 m 1,0,1
 585 -15 585 -15 513.5 -15 c 128,-1,2
 442 -15 442 -15 403.5 -10 c 128,-1,3
 365 -5 365 -5 320 12.5 c 128,-1,4
 275 30 275 30 243.5 61 c 128,-1,5
 212 92 212 92 180.5 147 c 128,-1,6
 149 202 149 202 130 278 c 0,7,8
 87 451 87 451 87 681.5 c 128,-1,9
 87 912 87 912 110.5 1050 c 128,-1,10
 134 1188 134 1188 170 1265 c 128,-1,11
 206 1342 206 1342 263.5 1386 c 128,-1,12
 321 1430 321 1430 373.5 1442 c 128,-1,13
 426 1454 426 1454 509 1454 c 128,-1,14
 592 1454 592 1454 652 1426 c 0,15,16
 653 1425 653 1425 655 1423.5 c 0,17,18
 656 1422 656 1422 658 1420 c 0,19,20
 662 1416 662 1416 662 1407 c 2,21,-1
 662 1286 l 2,22,23
 662 1272 662 1272 658 1272 c 128,-1,24
 654 1272 654 1272 647.5 1274 c 128,-1,25
 641 1276 641 1276 629 1279 c 128,-1,26
 617 1282 617 1282 603 1285 c 0,27,28
 570 1292 570 1292 528.5 1292 c 128,-1,29
 487 1292 487 1292 454 1281.5 c 128,-1,30
 421 1271 421 1271 387 1236.5 c 128,-1,31
 353 1202 353 1202 332 1141 c 0,32,33
 285 1004 285 1004 285 720 c 0,34,35
 285 297 285 297 376 200 c 0,36,37
 408 166 408 166 440 156 c 128,-1,38
 472 146 472 146 531.5 146 c 128,-1,39
 591 146 591 146 646 165 c 0,40,41
 647 165 647 165 650.5 155 c 128,-1,42
 654 145 654 145 654 144 c 2,43,-1
 654 29 l 2,44,45
 654 16 654 16 646 8 c 1,0,1
EndSplineSet
EndChar

StartChar: D
Encoding: 68 68 39
Width: 935
GlyphClass: 2
Flags: W
LayerCount: 2
Fore
SplineSet
116 1398 m 2,0,1
 116 1438 116 1438 141 1438 c 2,2,-1
 485 1438 l 2,3,4
 760 1438 760 1438 824 1068 c 0,5,6
 848 928 848 928 848.5 757.5 c 128,-1,7
 849 587 849 587 840 478.5 c 128,-1,8
 831 370 831 370 816.5 292.5 c 128,-1,9
 802 215 802 215 775 161.5 c 128,-1,10
 748 108 748 108 719 76.5 c 128,-1,11
 690 45 690 45 646 28 c 0,12,13
 574 0 574 0 458 0 c 2,14,-1
 141 0 l 2,15,16
 128 0 128 0 122 8 c 128,-1,17
 116 16 116 16 116 44 c 2,18,-1
 116 1398 l 2,0,1
326 159 m 2,19,-1
 449 159 l 2,20,21
 526 159 526 159 568 205 c 0,22,23
 651 296 651 296 651 726 c 0,24,25
 651 1134 651 1134 563 1233 c 0,26,27
 522 1279 522 1279 456 1279 c 2,28,-1
 325 1279 l 2,29,30
 313 1279 313 1279 313 1257 c 2,31,-1
 313 181 l 2,32,33
 313 159 313 159 326 159 c 2,19,-1
EndSplineSet
EndChar

StartChar: E
Encoding: 69 69 40
Width: 752
GlyphClass: 2
Flags: W
LayerCount: 2
Fore
SplineSet
696 40 m 2,0,1
 696 0 696 0 670 0 c 2,2,-1
 141 0 l 2,3,4
 128 0 128 0 122 7.5 c 128,-1,5
 116 15 116 15 116 42 c 2,6,-1
 116 1396 l 2,7,8
 116 1438 116 1438 141 1438 c 2,9,-1
 667 1438 l 2,10,11
 683 1438 683 1438 687.5 1427 c 128,-1,12
 692 1416 692 1416 692 1398 c 2,13,-1
 692 1319 l 2,14,15
 692 1279 692 1279 667 1279 c 2,16,-1
 325 1279 l 2,17,18
 313 1279 313 1279 313 1246 c 2,19,-1
 313 842 l 2,20,21
 313 815 313 815 323 815 c 2,22,-1
 598 815 l 2,23,24
 623 815 623 815 623 769 c 2,25,-1
 623 692 l 2,26,27
 623 646 623 646 598 646 c 2,28,-1
 324 646 l 2,29,30
 313 646 313 646 313 616 c 2,31,-1
 313 159 l 1,32,-1
 670 159 l 2,33,34
 687 159 687 159 691.5 148 c 128,-1,35
 696 137 696 137 696 119 c 2,36,-1
 696 40 l 2,0,1
EndSplineSet
EndChar

StartChar: F
Encoding: 70 70 41
Width: 684
GlyphClass: 2
Flags: W
LayerCount: 2
Fore
SplineSet
324 623 m 2,0,1
 313 623 313 623 313 598 c 2,2,-1
 313 42 l 2,3,4
 313 15 313 15 307 7.5 c 128,-1,5
 301 0 301 0 288 0 c 2,6,-1
 141 0 l 2,7,8
 128 0 128 0 122 7.5 c 128,-1,9
 116 15 116 15 116 42 c 2,10,-1
 116 1396 l 2,11,12
 116 1438 116 1438 141 1438 c 2,13,-1
 632 1438 l 2,14,15
 648 1438 648 1438 652.5 1427 c 128,-1,16
 657 1416 657 1416 657 1398 c 2,17,-1
 657 1319 l 2,18,19
 657 1279 657 1279 632 1279 c 2,20,-1
 325 1279 l 2,21,22
 313 1279 313 1279 313 1253 c 2,23,-1
 313 812 l 2,24,25
 313 792 313 792 323 792 c 2,26,-1
 573 792 l 2,27,28
 586 792 586 792 592 785 c 128,-1,29
 598 778 598 778 598 753 c 2,30,-1
 598 663 l 2,31,32
 598 623 598 623 573 623 c 2,33,-1
 324 623 l 2,0,1
EndSplineSet
EndChar

StartChar: G
Encoding: 71 71 42
Width: 902
GlyphClass: 2
Flags: W
LayerCount: 2
Fore
SplineSet
501 714 m 2,0,1
 501 758 501 758 529 758 c 2,2,-1
 798 758 l 2,3,4
 824 758 824 758 824 696 c 2,5,-1
 824 51 l 2,6,7
 824 21 824 21 814 2.5 c 128,-1,8
 804 -16 804 -16 792 -16 c 0,9,10
 754 -16 754 -16 742 47 c 1,11,-1
 714 214 l 1,12,13
 714 224 714 224 711 224 c 128,-1,14
 708 224 708 224 705 215 c 1,15,16
 670 -15 670 -15 482 -15 c 1,17,18
 331 -15 331 -15 248 68 c 0,19,20
 92 224 92 224 92 720 c 0,21,22
 92 1332 92 1332 369 1426 c 0,23,24
 451 1454 451 1454 528 1454 c 0,25,26
 656 1454 656 1454 734 1419 c 0,27,28
 734 1418 734 1418 738 1416 c 0,29,30
 746 1412 746 1412 746 1400 c 2,31,-1
 746 1277 l 2,32,33
 746 1263 746 1263 741.5 1263 c 128,-1,34
 737 1263 737 1263 726.5 1266 c 128,-1,35
 716 1269 716 1269 698.5 1273.5 c 0,36,37
 680 1278 680 1278 660 1282 c 0,38,39
 609 1292 609 1292 565.5 1292 c 128,-1,40
 522 1292 522 1292 484 1281.5 c 128,-1,41
 446 1271 446 1271 407 1236.5 c 128,-1,42
 368 1202 368 1202 344 1141 c 0,43,44
 290 1004 290 1004 290 720 c 0,45,46
 290 224 290 224 434 158 c 0,47,48
 464 144 464 144 506.5 144 c 128,-1,49
 549 144 549 144 579.5 171 c 128,-1,50
 610 198 610 198 626 254 c 0,51,52
 652 350 652 350 652 544 c 0,53,54
 652 589 652 589 643 589 c 2,55,-1
 530 589 l 2,56,57
 501 589 501 589 501 632 c 2,58,-1
 501 714 l 2,0,1
EndSplineSet
EndChar

StartChar: H
Encoding: 72 72 43
Width: 947
GlyphClass: 2
Flags: W
LayerCount: 2
Fore
SplineSet
315 47 m 2,0,1
 315 0 315 0 289 0 c 2,2,-1
 142 0 l 2,3,4
 128 0 128 0 122 8.5 c 128,-1,5
 116 17 116 17 116 47 c 2,6,-1
 116 1391 l 2,7,8
 116 1421 116 1421 122 1429.5 c 128,-1,9
 128 1438 128 1438 142 1438 c 2,10,-1
 287 1438 l 2,11,12
 301 1438 301 1438 307 1429.5 c 128,-1,13
 313 1421 313 1421 313 1391 c 2,14,-1
 313 859 l 2,15,16
 313 836 313 836 323 836 c 2,17,-1
 623 836 l 2,18,19
 626 836 626 836 630 843.5 c 128,-1,20
 634 851 634 851 634 860 c 2,21,-1
 634 1391 l 2,22,23
 634 1438 634 1438 660 1438 c 2,24,-1
 807 1438 l 2,25,26
 820 1438 820 1438 826 1429.5 c 128,-1,27
 832 1421 832 1421 832 1391 c 2,28,-1
 832 47 l 2,29,30
 832 17 832 17 826 8.5 c 128,-1,31
 820 0 820 0 807 0 c 2,32,-1
 660 0 l 2,33,34
 633 0 633 0 633 47 c 2,35,-1
 633 658 l 2,36,37
 633 679 633 679 622 679 c 2,38,-1
 325 679 l 2,39,40
 315 679 315 679 315 658 c 2,41,-1
 315 47 l 2,0,1
EndSplineSet
EndChar

StartChar: I
Encoding: 73 73 44
Width: 430
GlyphClass: 2
Flags: W
LayerCount: 2
Fore
SplineSet
315 47 m 2,0,1
 315 0 315 0 290 0 c 2,2,-1
 143 0 l 2,3,4
 126 0 126 0 121.5 13.5 c 128,-1,5
 117 27 117 27 117 47 c 2,6,-1
 117 1391 l 2,7,8
 117 1438 117 1438 143 1438 c 2,9,-1
 290 1438 l 2,10,11
 315 1438 315 1438 315 1391 c 2,12,-1
 315 47 l 2,0,1
EndSplineSet
EndChar

StartChar: J
Encoding: 74 74 45
Width: 534
GlyphClass: 2
Flags: W
LayerCount: 2
Fore
SplineSet
63 -155 m 0,0,1
 50 -155 50 -155 50 -124 c 2,2,-1
 50 5 l 2,3,4
 50 37 50 37 63 39 c 1,5,6
 140 42 140 42 160 68 c 0,7,8
 191 108 191 108 197 144 c 0,9,10
 202 180 202 180 208 224 c 0,11,12
 218 300 218 300 218 464 c 2,13,-1
 218 1395 l 2,14,15
 218 1438 218 1438 234 1438 c 2,16,-1
 399 1438 l 2,17,18
 416 1438 416 1438 416 1395 c 2,19,-1
 416 412 l 2,20,21
 416 118 416 118 348 -26 c 0,22,23
 320 -84 320 -84 267 -114 c 128,-1,24
 214 -144 214 -144 173.5 -149.5 c 128,-1,25
 133 -155 133 -155 63 -155 c 0,0,1
EndSplineSet
EndChar

StartChar: K
Encoding: 75 75 46
Width: 814
GlyphClass: 2
Flags: W
LayerCount: 2
Fore
SplineSet
141 0 m 2,0,1
 116 0 116 0 116 54 c 2,2,-1
 116 1384 l 2,3,4
 116 1438 116 1438 141 1438 c 2,5,-1
 287 1438 l 2,6,7
 313 1438 313 1438 313 1384 c 2,8,-1
 313 725 l 1,9,-1
 558 1387 l 2,10,11
 576 1438 576 1438 601 1438 c 2,12,-1
 749 1438 l 2,13,14
 770 1438 770 1438 770 1415 c 0,15,16
 770 1401 770 1401 764 1386 c 2,17,-1
 522 770 l 1,18,19
 515 746 515 746 515 733 c 128,-1,20
 515 720 515 720 519 705 c 1,21,-1
 777 55 l 2,22,23
 784 36 784 36 784 18 c 0,24,25
 784 0 784 0 771 0 c 2,26,-1
 625 0 l 2,27,28
 598 0 598 0 578 52 c 1,29,-1
 314 678 l 1,30,-1
 314 52 l 2,31,32
 314 0 314 0 287 0 c 2,33,-1
 141 0 l 2,0,1
EndSplineSet
EndChar

StartChar: L
Encoding: 76 76 47
Width: 652
GlyphClass: 2
Flags: W
LayerCount: 2
Fore
SplineSet
612 40 m 2,0,1
 612 0 612 0 587 0 c 2,2,-1
 141 0 l 2,3,4
 128 0 128 0 122 8.5 c 128,-1,5
 116 17 116 17 116 47 c 2,6,-1
 116 1391 l 2,7,8
 116 1421 116 1421 122 1429.5 c 128,-1,9
 128 1438 128 1438 141 1438 c 2,10,-1
 288 1438 l 2,11,12
 301 1438 301 1438 307 1429.5 c 128,-1,13
 313 1421 313 1421 313 1391 c 2,14,-1
 313 181 l 2,15,16
 313 159 313 159 327 159 c 2,17,-1
 587 159 l 2,18,19
 600 159 600 159 606 152 c 128,-1,20
 612 145 612 145 612 120 c 2,21,-1
 612 40 l 2,0,1
EndSplineSet
EndChar

StartChar: M
Encoding: 77 77 48
Width: 1082
GlyphClass: 2
Flags: W
LayerCount: 2
Fore
SplineSet
121 0 m 2,0,1
 97 0 97 0 97 49 c 2,2,-1
 97 54 l 1,3,-1
 142 1381 l 2,4,5
 143 1436 143 1436 167 1438 c 1,6,-1
 325 1438 l 1,7,8
 357 1436 357 1436 365 1391 c 2,9,-1
 534 445 l 2,10,11
 537 434 537 434 541 437.5 c 128,-1,12
 545 441 545 441 545 445 c 2,13,-1
 715 1388 l 2,14,15
 724 1436 724 1436 754 1438 c 1,16,-1
 914 1438 l 1,17,18
 938 1436 938 1436 938 1381 c 1,19,-1
 985 54 l 1,20,-1
 985 48 l 2,21,22
 985 0 985 0 960 0 c 2,23,-1
 850 0 l 2,24,25
 826 0 826 0 824 54 c 2,26,-1
 793 1081 l 2,27,28
 793 1087 793 1087 790 1088 c 128,-1,29
 787 1089 787 1089 786 1085 c 2,30,-1
 604 48 l 2,31,32
 596 0 596 0 570 0 c 2,33,-1
 505 0 l 2,34,35
 481 0 481 0 471 48 c 1,36,-1
 294 1080 l 2,37,38
 293 1086 293 1086 291 1083 c 128,-1,39
 289 1080 289 1080 289 1076 c 2,40,-1
 257 54 l 1,41,42
 257 0 257 0 234 0 c 2,43,-1
 121 0 l 2,0,1
EndSplineSet
EndChar

StartChar: N
Encoding: 78 78 49
Width: 962
GlyphClass: 2
Flags: W
LayerCount: 2
Fore
SplineSet
290 50 m 2,0,1
 290 0 290 0 263 0 c 2,2,-1
 142 0 l 2,3,4
 116 0 116 0 116 50 c 2,5,-1
 116 1385 l 2,6,7
 116 1438 116 1438 142 1438 c 2,8,-1
 294 1438 l 2,9,10
 315 1438 315 1438 330 1399 c 2,11,-1
 669 488 l 2,12,13
 671 481 671 481 675 492 c 1,14,-1
 676 501 l 1,15,-1
 676 1385 l 2,16,17
 676 1438 676 1438 703 1438 c 2,18,-1
 822 1438 l 2,19,20
 847 1438 847 1438 847 1385 c 2,21,-1
 847 46 l 2,22,23
 847 16 847 16 841 7.5 c 128,-1,24
 835 -1 835 -1 822 -1 c 2,25,-1
 714 -1 l 2,26,27
 690 -1 690 -1 674 41 c 2,28,-1
 297 1025 l 1,29,30
 290 1039 290 1039 290 1013 c 2,31,-1
 290 50 l 2,0,1
EndSplineSet
EndChar

StartChar: O
Encoding: 79 79 50
Width: 924
GlyphClass: 2
Flags: W
LayerCount: 2
Fore
SplineSet
604 3 m 0,0,1
 546 -15 546 -15 462.5 -15 c 128,-1,2
 379 -15 379 -15 321.5 3 c 128,-1,3
 264 21 264 21 217 68.5 c 128,-1,4
 170 116 170 116 143 200 c 0,5,6
 87 374 87 374 87 726 c 0,7,8
 87 1147 87 1147 178 1313 c 0,9,10
 255 1454 255 1454 462 1454 c 0,11,12
 621 1454 621 1454 705 1370 c 0,13,14
 837 1238 837 1238 837 726 c 0,15,16
 837 369 837 369 782 198 c 0,17,18
 733 43 733 43 604 3 c 0,0,1
355.5 191.5 m 128,-1,20
 392 143 392 143 461.5 143 c 0,21,22
 531 142 531 142 568 190 c 0,23,24
 639 281 639 281 639 726 c 0,25,26
 639 957 639 957 623 1076 c 128,-1,27
 607 1195 607 1195 570.5 1243.5 c 128,-1,28
 534 1292 534 1292 463 1292 c 128,-1,29
 392 1292 392 1292 354.5 1242.5 c 128,-1,30
 317 1193 317 1193 301 1073 c 128,-1,31
 285 953 285 953 285 721 c 128,-1,32
 285 489 285 489 302 364.5 c 128,-1,19
 319 240 319 240 355.5 191.5 c 128,-1,20
EndSplineSet
EndChar

StartChar: P
Encoding: 80 80 51
Width: 866
GlyphClass: 2
Flags: W
LayerCount: 2
Fore
SplineSet
323 660 m 2,0,-1
 443 660 l 2,1,2
 521 660 521 660 549.5 684.5 c 128,-1,3
 578 709 578 709 588 744 c 0,4,5
 610 816 610 816 610 933 c 128,-1,6
 610 1050 610 1050 600.5 1109.5 c 128,-1,7
 591 1169 591 1169 577 1202 c 0,8,9
 562 1234 562 1234 536 1252 c 0,10,11
 496 1278 496 1278 424 1279 c 2,12,-1
 323 1279 l 2,13,14
 313 1279 313 1279 313 1259 c 2,15,-1
 313 678 l 2,16,17
 313 660 313 660 323 660 c 2,0,-1
116 1391 m 2,18,19
 116 1438 116 1438 141 1438 c 2,20,-1
 435 1438 l 2,21,22
 589 1438 589 1438 660 1390 c 0,23,24
 733 1341 733 1341 766 1251 c 0,25,26
 807 1139 807 1139 807 992 c 128,-1,27
 807 845 807 845 787.5 758 c 128,-1,28
 768 671 768 671 738 622 c 128,-1,29
 708 573 708 573 660.5 544.5 c 128,-1,30
 613 516 613 516 569 508 c 128,-1,31
 525 500 525 500 466 500 c 2,32,-1
 324 500 l 2,33,34
 313 500 313 500 313 482 c 2,35,-1
 313 52 l 2,36,37
 313 0 313 0 288 0 c 2,38,-1
 141 0 l 2,39,40
 116 0 116 0 116 52 c 2,41,-1
 116 1391 l 2,18,19
EndSplineSet
EndChar

StartChar: Q
Encoding: 81 81 52
Width: 952
GlyphClass: 2
Flags: W
LayerCount: 2
Fore
SplineSet
388.5 165.5 m 0,0,1
 422 143 422 143 484.5 143 c 0,2,3
 547 144 547 144 586 186 c 0,4,5
 667 274 667 274 667 722 c 0,6,7
 666 1158 666 1158 588 1247 c 0,8,9
 548 1292 548 1292 476 1292 c 128,-1,10
 404 1292 404 1292 364 1246 c 0,11,12
 284 1152 284 1152 285 722 c 0,13,14
 284 368 284 368 330 251 c 0,15,16
 354 188 354 188 388.5 165.5 c 0,0,1
542 -346 m 2,17,-1
 468 -15 l 1,18,19
 448 -17 448 -17 430 -17 c 0,20,21
 296 -17 296 -17 210 80 c 0,22,23
 88 218 88 218 87 722 c 0,24,25
 86 1236 86 1236 228 1372 c 0,26,27
 278 1420 278 1420 336 1437 c 128,-1,28
 394 1454 394 1454 476 1454 c 128,-1,29
 558 1454 558 1454 616 1436.5 c 128,-1,30
 674 1419 674 1419 724 1372.5 c 128,-1,31
 774 1326 774 1326 803 1244 c 0,32,33
 865 1069 865 1069 865 770.5 c 128,-1,34
 865 472 865 472 837.5 320 c 128,-1,35
 810 168 810 168 757.5 96.5 c 128,-1,36
 705 25 705 25 617 -1 c 1,37,38
 622 -28 622 -28 640 -108 c 0,39,40
 686 -314 686 -314 688 -333 c 0,41,42
 691 -371 691 -371 669 -379 c 1,43,44
 588 -399 588 -399 581 -399 c 1,45,46
 554 -399 554 -399 542 -346 c 2,17,-1
EndSplineSet
EndChar

StartChar: R
Encoding: 82 82 53
Width: 924
GlyphClass: 2
Flags: W
LayerCount: 2
Fore
SplineSet
323 804 m 2,0,-1
 452 804 l 2,1,2
 619 804 619 804 619 1047 c 0,3,4
 619 1176 619 1176 573.5 1227.5 c 128,-1,5
 528 1279 528 1279 421 1279 c 2,6,-1
 324 1279 l 2,7,8
 313 1279 313 1279 313 1259 c 2,9,-1
 313 831 l 2,10,11
 313 804 313 804 323 804 c 2,0,-1
313 45 m 2,12,13
 313 0 313 0 288 0 c 2,14,-1
 141 0 l 2,15,16
 116 0 116 0 116 45 c 2,17,-1
 116 1392 l 2,18,19
 116 1422 116 1422 122 1430 c 128,-1,20
 128 1438 128 1438 141 1438 c 2,21,-1
 477 1438 l 2,22,23
 682 1438 682 1438 752 1337 c 0,24,25
 818 1243 818 1243 817 1054 c 0,26,27
 818 851 818 851 726 779 c 0,28,29
 700 759 700 759 664 745 c 1,30,31
 661 742 661 742 661 739 c 128,-1,32
 661 736 661 736 680.5 726.5 c 128,-1,33
 700 717 700 717 722.5 699 c 0,34,35
 745 680 745 680 768 646 c 0,36,37
 812 580 812 580 818 408 c 1,38,39
 822 330 822 330 822 50 c 0,40,41
 822 0 822 0 804 0 c 0,42,43
 649 -1 649 -1 645 -1 c 0,44,45
 629 -1 629 -1 628 44 c 0,46,47
 628 51 628 51 622 268 c 128,-1,48
 616 485 616 485 609 518 c 1,49,50
 599 648 599 648 467 648 c 2,51,-1
 324 648 l 2,52,53
 313 648 313 648 313 626 c 2,54,-1
 313 45 l 2,12,13
EndSplineSet
EndChar

StartChar: S
Encoding: 83 83 54
Width: 776
GlyphClass: 2
Flags: W
LayerCount: 2
Fore
SplineSet
407 1454 m 0,0,1
 595 1454 595 1454 700 1317 c 0,2,3
 710 1304 710 1304 710 1277.5 c 128,-1,4
 710 1251 710 1251 680.5 1212 c 128,-1,5
 651 1173 651 1173 638 1173 c 128,-1,6
 625 1173 625 1173 622 1177 c 0,7,8
 533 1285 533 1285 410 1285 c 0,9,10
 341 1285 341 1285 299 1226.5 c 128,-1,11
 257 1168 257 1168 257 1086.5 c 128,-1,12
 257 1005 257 1005 293 955 c 128,-1,13
 329 905 329 905 396 862 c 2,14,-1
 523 780 l 2,15,16
 724 650 724 650 724 400 c 0,17,18
 724 217 724 217 631 101 c 128,-1,19
 538 -15 538 -15 381 -15 c 0,20,21
 169 -15 169 -15 47 168 c 0,22,23
 41 177 41 177 41 201.5 c 128,-1,24
 41 226 41 226 69.5 267.5 c 128,-1,25
 98 309 98 309 116 309 c 128,-1,26
 134 309 134 309 142 300 c 0,27,28
 254 157 254 157 381 157 c 0,29,30
 459 157 459 157 503 217.5 c 128,-1,31
 547 278 547 278 547 366.5 c 128,-1,32
 547 455 547 455 512 507.5 c 128,-1,33
 477 560 477 560 405 607 c 1,34,-1
 277 693 l 2,35,36
 85 821 85 821 85 1050 c 0,37,38
 85 1230 85 1230 172.5 1342 c 128,-1,39
 260 1454 260 1454 407 1454 c 0,0,1
EndSplineSet
EndChar

StartChar: T
Encoding: 84 84 55
Width: 663
GlyphClass: 2
Flags: W
LayerCount: 2
Fore
SplineSet
433 48 m 2,0,1
 433 0 433 0 407 0 c 2,2,-1
 260 0 l 2,3,4
 235 0 235 0 235 48 c 2,5,-1
 235 1252 l 2,6,7
 235 1277 235 1277 224 1277 c 2,8,-1
 50 1277 l 2,9,10
 32 1277 32 1277 28 1287 c 128,-1,11
 24 1297 24 1297 24 1315 c 2,12,-1
 24 1394 l 2,13,14
 24 1421 24 1421 30 1429.5 c 128,-1,15
 36 1438 36 1438 50 1438 c 2,16,-1
 615 1438 l 2,17,18
 640 1438 640 1438 640 1394 c 2,19,-1
 640 1315 l 2,20,21
 640 1290 640 1290 634.5 1283.5 c 128,-1,22
 629 1277 629 1277 615 1277 c 2,23,-1
 444 1277 l 2,24,25
 433 1277 433 1277 433 1252 c 2,26,-1
 433 48 l 2,0,1
EndSplineSet
EndChar

StartChar: U
Encoding: 85 85 56
Width: 953
GlyphClass: 2
Flags: W
LayerCount: 2
Fore
SplineSet
100 1391 m 2,0,1
 100 1438 100 1438 126 1438 c 2,2,-1
 273 1438 l 2,3,4
 298 1438 298 1438 298 1391 c 2,5,-1
 298 589 l 2,6,7
 298 364 298 364 318 288.5 c 0,8,9
 338 214 338 214 362 188 c 0,10,11
 401 146 401 146 466.5 145.5 c 128,-1,12
 532 145 532 145 561 157 c 128,-1,13
 590 169 590 169 614 214 c 0,14,15
 655 291 655 291 655 589 c 2,16,-1
 655 1391 l 2,17,18
 655 1421 655 1421 661 1429.5 c 128,-1,19
 667 1438 667 1438 680 1438 c 2,20,-1
 828 1438 l 2,21,22
 852 1438 852 1438 852 1391 c 2,23,-1
 852 583 l 2,24,25
 852 243 852 243 774 117 c 0,26,27
 703 3 703 3 569 -11 c 0,28,29
 532 -15 532 -15 479 -15 c 128,-1,30
 426 -15 426 -15 387 -10.5 c 128,-1,31
 348 -6 348 -6 306 8.5 c 128,-1,32
 264 23 264 23 235 49 c 128,-1,33
 206 75 206 75 178.5 119.5 c 128,-1,34
 151 164 151 164 135 227 c 0,35,36
 100 365 100 365 100 583 c 2,37,-1
 100 1391 l 2,0,1
EndSplineSet
EndChar

StartChar: V
Encoding: 86 86 57
Width: 800
GlyphClass: 2
Flags: W
LayerCount: 2
Fore
SplineSet
332 0 m 1,0,1
 307 2 307 2 295 64 c 2,2,-1
 45 1371 l 1,3,4
 43 1389 43 1389 43 1396 c 0,5,6
 43 1438 43 1438 59 1438 c 2,7,-1
 206 1438 l 2,8,9
 232 1438 232 1438 243 1373 c 2,10,-1
 416 326 l 1,11,-1
 584 1373 l 2,12,13
 594 1438 594 1438 621 1438 c 2,14,-1
 742 1438 l 2,15,16
 757 1438 757 1438 757 1410 c 0,17,18
 757 1382 757 1382 755 1371 c 2,19,-1
 516 64 l 2,20,21
 505 2 505 2 479 0 c 1,22,-1
 332 0 l 1,0,1
EndSplineSet
EndChar

StartChar: W
Encoding: 87 87 58
Width: 1130
GlyphClass: 2
Flags: W
LayerCount: 2
Fore
SplineSet
272 0 m 1,0,1
 246 2 246 2 236 69 c 2,2,-1
 55 1369 l 2,3,4
 53 1379 53 1379 53 1408.5 c 128,-1,5
 53 1438 53 1438 69 1438 c 2,6,-1
 200 1438 l 2,7,8
 227 1438 227 1438 236 1368 c 2,9,-1
 347 419 l 1,10,-1
 482 1365 l 2,11,12
 490 1429 490 1429 519 1429 c 2,13,-1
 627 1429 l 1,14,15
 653 1426 653 1426 662 1365 c 2,16,-1
 805 399 l 1,17,-1
 917 1369 l 2,18,19
 926 1438 926 1438 952 1438 c 2,20,-1
 1065 1438 l 2,21,22
 1081 1438 1081 1438 1081 1411 c 128,-1,23
 1081 1384 1081 1384 1078 1369 c 2,24,-1
 901 69 l 2,25,26
 891 2 891 2 867 0 c 1,27,-1
 745 0 l 1,28,29
 719 2 719 2 709 70 c 2,30,-1
 559 1003 l 1,31,-1
 414 69 l 1,32,33
 406 5 406 5 382 0 c 1,34,-1
 272 0 l 1,0,1
EndSplineSet
EndChar

StartChar: X
Encoding: 88 88 59
Width: 809
GlyphClass: 2
Flags: W
LayerCount: 2
Fore
SplineSet
61 0 m 2,0,1
 50 0 50 0 50 20 c 0,2,3
 50 40 50 40 56 57 c 2,4,-1
 305 698 l 1,5,-1
 66 1379 l 1,6,7
 60 1402 60 1402 60 1420 c 0,8,9
 60 1438 60 1438 71 1438 c 2,10,-1
 264 1438 l 2,11,12
 291 1438 291 1438 310 1385 c 2,13,-1
 438 1019 l 1,14,-1
 578 1388 l 2,15,16
 597 1438 597 1438 625 1438 c 2,17,-1
 744 1438 l 2,18,19
 757 1438 757 1438 757 1417 c 0,20,21
 757 1396 757 1396 752 1386 c 1,22,-1
 520 793 l 1,23,-1
 769 59 l 2,24,25
 774 48 774 48 774 24 c 0,26,27
 774 0 774 0 761 0 c 2,28,-1
 582 0 l 2,29,30
 555 0 555 0 537 52 c 2,31,-1
 389 476 l 1,32,-1
 223 50 l 2,33,34
 203 0 203 0 178 0 c 2,35,-1
 61 0 l 2,0,1
EndSplineSet
EndChar

StartChar: Y
Encoding: 89 89 60
Width: 732
GlyphClass: 2
Flags: W
LayerCount: 2
Fore
SplineSet
295 0 m 2,0,1
 270 0 270 0 270 51 c 2,2,-1
 270 478 l 1,3,-1
 39 1378 l 1,4,5
 34 1393 34 1393 34 1415.5 c 128,-1,6
 34 1438 34 1438 50 1438 c 2,7,-1
 198 1438 l 2,8,9
 226 1438 226 1438 240 1385 c 2,10,-1
 381 820 l 1,11,-1
 519 1384 l 2,12,13
 533 1438 533 1438 559 1438 c 2,14,-1
 684 1438 l 2,15,16
 700 1438 700 1438 700 1415.5 c 128,-1,17
 700 1393 700 1393 696 1378 c 2,18,-1
 468 481 l 1,19,-1
 468 51 l 2,20,21
 468 0 468 0 443 0 c 2,22,-1
 295 0 l 2,0,1
EndSplineSet
EndChar

StartChar: Z
Encoding: 90 90 61
Width: 715
GlyphClass: 2
Flags: W
LayerCount: 2
Fore
SplineSet
662 40 m 2,0,1
 662 0 662 0 636 0 c 2,2,-1
 108 0 l 2,3,4
 92 0 92 0 87.5 11 c 128,-1,5
 83 22 83 22 83 40 c 2,6,-1
 83 100 l 2,7,8
 83 135 83 135 99 185 c 1,9,-1
 411 1245 l 1,10,11
 415 1253 415 1253 415 1266 c 128,-1,12
 415 1279 415 1279 408 1279 c 2,13,-1
 117 1279 l 2,14,15
 101 1279 101 1279 96.5 1290 c 128,-1,16
 92 1301 92 1301 92 1319 c 2,17,-1
 92 1398 l 2,18,19
 92 1438 92 1438 117 1438 c 2,20,-1
 624 1438 l 2,21,22
 640 1438 640 1438 644.5 1427 c 128,-1,23
 649 1416 649 1416 649 1398 c 2,24,-1
 649 1353 l 2,25,26
 649 1312 649 1312 632 1251 c 1,27,-1
 316 189 l 2,28,29
 314 179 314 179 314 169 c 128,-1,30
 314 159 314 159 320 159 c 0,31,32
 480 159 480 159 564 159 c 128,-1,33
 648 159 648 159 652 158 c 0,34,35
 662 155 662 155 662 125 c 2,36,-1
 662 40 l 2,0,1
EndSplineSet
EndChar

StartChar: bracketleft
Encoding: 91 91 62
Width: 583
GlyphClass: 2
Flags: W
LayerCount: 2
Fore
SplineSet
144 -125 m 2,0,1
 116 -125 116 -125 117 -64 c 1,2,-1
 117 1408 l 1,3,4
 116 1466 116 1466 144 1466 c 2,5,-1
 455 1466 l 2,6,7
 481 1466 481 1466 481 1415 c 2,8,-1
 481 1307 l 2,9,10
 481 1256 481 1256 456 1256 c 2,11,-1
 326 1256 l 2,12,13
 314 1256 314 1256 314 1223 c 2,14,-1
 314 112 l 2,15,16
 314 80 314 80 326 80 c 2,17,-1
 455 80 l 2,18,19
 481 80 481 80 481 22 c 2,20,-1
 481 -71 l 2,21,22
 481 -125 481 -125 455 -125 c 2,23,-1
 144 -125 l 2,0,1
EndSplineSet
EndChar

StartChar: backslash
Encoding: 92 92 63
Width: 581
GlyphClass: 2
Flags: W
LayerCount: 2
Fore
SplineSet
94 1612 m 1,0,-1
 93 1621 l 1,1,2
 93 1647 93 1647 102 1647 c 2,3,-1
 241 1647 l 2,4,5
 254 1647 254 1647 257 1612 c 1,6,-1
 491 -170 l 2,7,8
 492 -174 492 -174 492 -189.5 c 128,-1,9
 492 -205 492 -205 484 -205 c 2,10,-1
 345 -206 l 2,11,12
 334 -206 334 -206 329 -171 c 2,13,-1
 94 1612 l 1,0,-1
EndSplineSet
EndChar

StartChar: bracketright
Encoding: 93 93 64
Width: 584
GlyphClass: 2
Flags: W
LayerCount: 2
Fore
SplineSet
129 -128 m 2,0,1
 103 -128 103 -128 103 -78 c 2,2,-1
 103 48 l 2,3,4
 103 99 103 99 129 99 c 2,5,-1
 258 99 l 2,6,7
 269 99 269 99 269 132 c 2,8,-1
 269 1210 l 2,9,10
 269 1242 269 1242 258 1242 c 2,11,-1
 129 1242 l 2,12,13
 103 1242 103 1242 103 1301 c 2,14,-1
 103 1409 l 2,15,16
 103 1466 103 1466 129 1466 c 2,17,-1
 441 1466 l 2,18,19
 452 1466 452 1466 460 1450 c 0,20,21
 467 1435 467 1435 467 1409 c 0,22,23
 467 1406 467 1406 467 1402 c 1,24,-1
 467 -71 l 1,25,26
 468 -128 468 -128 441 -128 c 2,27,-1
 129 -128 l 2,0,1
EndSplineSet
EndChar

StartChar: asciicircum
Encoding: 94 94 65
Width: 1030
GlyphClass: 2
Flags: W
LayerCount: 2
Fore
SplineSet
118 351 m 2,0,1
 90 351 90 351 90 380 c 0,2,3
 90 397 90 397 98 418 c 2,4,-1
 409 1290 l 1,5,6
 423 1326 423 1326 439 1341.5 c 128,-1,7
 455 1357 455 1357 488 1357 c 2,8,-1
 539 1357 l 2,9,10
 571 1357 571 1357 585.5 1342 c 128,-1,11
 600 1327 600 1327 616 1289 c 1,12,-1
 933 419 l 2,13,14
 941 395 941 395 941 382 c 0,15,16
 941 351 941 351 912 351 c 2,17,-1
 834 351 l 2,18,19
 793 351 793 351 772 420 c 1,20,-1
 534 1100 l 1,21,22
 524 1131 524 1131 515 1131 c 128,-1,23
 506 1131 506 1131 502 1125 c 128,-1,24
 498 1119 498 1119 492 1100 c 2,25,-1
 263 420 l 2,26,27
 250 379 250 379 236 365 c 128,-1,28
 222 351 222 351 195 351 c 2,29,-1
 118 351 l 2,0,1
EndSplineSet
EndChar

StartChar: underscore
Encoding: 95 95 66
Width: 949
GlyphClass: 2
Flags: W
LayerCount: 2
Fore
SplineSet
827 21 m 2,0,1
 876 21 876 21 876 -28 c 2,2,-1
 876 -76 l 2,3,4
 876 -126 876 -126 827 -126 c 2,5,-1
 122 -126 l 2,6,7
 72 -126 72 -126 72 -76 c 2,8,-1
 72 -29 l 2,9,10
 72 -1 72 -1 84 10 c 128,-1,11
 96 21 96 21 122 21 c 2,12,-1
 827 21 l 2,0,1
EndSplineSet
EndChar

StartChar: grave
Encoding: 96 96 67
Width: 597
GlyphClass: 2
Flags: W
LayerCount: 2
Fore
SplineSet
434 1169 m 2,0,1
 422 1169 422 1169 415 1208 c 2,2,-1
 352 1549 l 2,3,4
 348 1573 348 1573 348 1593.5 c 128,-1,5
 348 1614 348 1614 358 1614 c 2,6,-1
 440 1614 l 2,7,8
 461 1614 461 1614 464 1559 c 2,9,-1
 486 1236 l 2,10,11
 487 1222 487 1222 487 1195.5 c 128,-1,12
 487 1169 487 1169 472 1169 c 2,13,-1
 434 1169 l 2,0,1
EndSplineSet
EndChar

StartChar: a
Encoding: 97 97 68
Width: 724
GlyphClass: 2
Flags: W
LayerCount: 2
Fore
SplineSet
321 116 m 0,0,1
 391 116 391 116 433.5 208 c 128,-1,2
 476 300 476 300 476 402 c 128,-1,3
 476 504 476 504 467 504 c 0,4,5
 449 504 449 504 437 498 c 1,6,7
 228 446 228 446 228 251 c 0,8,9
 228 116 228 116 321 116 c 0,0,1
425.5 35 m 128,-1,11
 375 -12 375 -12 281 -12 c 128,-1,12
 187 -12 187 -12 132.5 52 c 128,-1,13
 78 116 78 116 78 222.5 c 128,-1,14
 78 329 78 329 105.5 397 c 128,-1,15
 133 465 133 465 174.5 500 c 128,-1,16
 216 535 216 535 266 558 c 128,-1,17
 316 581 316 581 359 588 c 0,18,19
 465 605 465 605 472 615 c 1,20,-1
 472 668 l 2,21,22
 472 775 472 775 448.5 828.5 c 128,-1,23
 425 882 425 882 368 882 c 128,-1,24
 311 882 311 882 283.5 849.5 c 128,-1,25
 256 817 256 817 237 750 c 1,26,27
 228 722 228 722 213 724 c 1,28,29
 108 750 108 750 107 758 c 1,30,31
 101 761 101 761 100.5 781 c 128,-1,32
 100 801 100 801 105 818 c 0,33,34
 131 916 131 916 194 966.5 c 128,-1,35
 257 1017 257 1017 374 1017 c 0,36,37
 572 1018 572 1018 618 802 c 0,38,39
 636 722 636 722 635 605 c 2,40,-1
 635 50 l 2,41,42
 635 -1 635 -1 614 -1 c 2,43,-1
 582 -1 l 2,44,45
 564 -1 564 -1 556 26 c 128,-1,46
 548 53 548 53 530.5 108 c 128,-1,47
 513 163 513 163 511.5 170 c 128,-1,48
 510 177 510 177 508 178 c 0,49,50
 502 182 502 182 503 174 c 1,51,10
 476 82 476 82 425.5 35 c 128,-1,11
EndSplineSet
EndChar

StartChar: b
Encoding: 98 98 69
Width: 765
GlyphClass: 2
Flags: W
LayerCount: 2
Fore
SplineSet
399 125 m 0,0,1
 518 125 518 125 518 511 c 0,2,3
 518 689 518 689 486 785.5 c 128,-1,4
 454 882 454 882 397 882 c 128,-1,5
 340 882 340 882 302.5 779.5 c 128,-1,6
 265 677 265 677 265 511 c 128,-1,7
 265 345 265 345 302.5 235 c 128,-1,8
 340 125 340 125 399 125 c 0,0,1
240 1428 m 2,9,10
 265 1428 265 1428 265 1355 c 2,11,-1
 265 884 l 2,12,13
 265 869 265 869 270 869 c 128,-1,14
 275 869 275 869 277 876 c 0,15,16
 333 1018 333 1018 446 1018 c 0,17,18
 542 1018 542 1018 610 908 c 0,19,20
 685 786 685 786 685 500 c 0,21,22
 684 120 684 120 524 17 c 0,23,24
 480 -11 480 -11 433 -11 c 0,25,26
 273 -11 273 -11 215 193 c 0,27,28
 213 198 213 198 210 198 c 128,-1,29
 207 198 207 198 199 148 c 0,30,31
 175 0 175 0 152 0 c 2,32,-1
 124 0 l 2,33,34
 104 0 104 0 104 62 c 2,35,-1
 104 1355 l 2,36,37
 104 1428 104 1428 129 1428 c 2,38,-1
 240 1428 l 2,9,10
EndSplineSet
EndChar

StartChar: c
Encoding: 99 99 70
Width: 582
GlyphClass: 2
Flags: W
LayerCount: 2
Fore
SplineSet
511 148 m 1,0,1
 524 145 524 145 524 127 c 2,2,-1
 524 28 l 2,3,4
 524 11 524 11 511 7 c 0,5,6
 447 -13 447 -13 388 -13 c 0,7,8
 324 -14 324 -14 266 10 c 0,9,10
 80 85 80 85 81 509 c 0,11,12
 80 857 80 857 210 963 c 0,13,14
 277 1018 277 1018 357.5 1018 c 128,-1,15
 438 1018 438 1018 511 995 c 0,16,17
 523 992 523 992 523 980 c 2,18,-1
 523 874 l 1,19,20
 524 867 524 867 520 861.5 c 128,-1,21
 516 856 516 856 483 866 c 128,-1,22
 450 876 450 876 420 876 c 128,-1,23
 390 876 390 876 370 871 c 128,-1,24
 350 866 350 866 326.5 845.5 c 0,25,26
 302 825 302 825 288 787 c 0,27,28
 254 699 254 699 254.5 552 c 128,-1,29
 255 405 255 405 264 332.5 c 128,-1,30
 273 260 273 260 286 221 c 128,-1,31
 299 182 299 182 322.5 161.5 c 128,-1,32
 346 141 346 141 366 136.5 c 128,-1,33
 386 132 386 132 422.5 132 c 128,-1,34
 459 132 459 132 511 148 c 1,0,1
EndSplineSet
EndChar

StartChar: d
Encoding: 100 100 71
Width: 789
GlyphClass: 2
Flags: W
LayerCount: 2
Fore
SplineSet
380 125 m 0,0,1
 510 125 510 125 510 503.5 c 128,-1,2
 510 882 510 882 381 882 c 0,3,4
 285 882 285 882 263 698 c 0,5,6
 254 622 254 622 254 489 c 128,-1,7
 254 356 254 356 270 269 c 128,-1,8
 286 182 286 182 312 153.5 c 128,-1,9
 338 125 338 125 380 125 c 0,0,1
342 -11 m 0,10,11
 79 -11 79 -11 79 503.5 c 128,-1,12
 79 1018 79 1018 335 1018 c 0,13,14
 446 1018 446 1018 499 878 c 1,15,16
 506 868 506 868 508.5 868 c 128,-1,17
 511 868 511 868 511 881 c 2,18,-1
 511 1368 l 2,19,20
 511 1428 511 1428 536 1428 c 2,21,-1
 660 1428 l 2,22,23
 685 1428 685 1428 685 1368 c 2,24,-1
 685 67 l 2,25,26
 685 0 685 0 661 0 c 2,27,-1
 632 0 l 2,28,29
 610 0 610 0 598 60 c 1,30,31
 571 214 571 214 566 216 c 1,32,33
 563 213 563 213 559 204 c 1,34,35
 532 80 532 80 477 34.5 c 128,-1,36
 422 -11 422 -11 342 -11 c 0,10,11
EndSplineSet
EndChar

StartChar: e
Encoding: 101 101 72
Width: 695
GlyphClass: 2
Flags: W
LayerCount: 2
Fore
SplineSet
255 572 m 2,0,-1
 484 572 l 2,1,2
 486 572 486 572 486 597 c 0,3,4
 478 883 478 883 372 883 c 0,5,6
 323 883 323 883 290 820 c 0,7,8
 257 756 257 756 254 664 c 0,9,10
 253 624 253 624 253 602 c 0,11,12
 253 572 253 572 255 572 c 2,0,-1
250 441 m 0,13,14
 252 125 252 125 390 125 c 0,15,16
 457 125 457 125 479 184 c 0,17,18
 497 230 497 230 502 288 c 0,19,20
 505 310 505 310 519 310 c 2,21,-1
 600 310 l 2,22,23
 623 310 623 310 623 258 c 2,24,-1
 623 242 l 2,25,26
 623 131 623 131 563 60 c 128,-1,27
 503 -11 503 -11 385 -11 c 0,28,29
 222 -12 222 -12 147 130 c 0,30,31
 81 254 81 254 81 504 c 0,32,33
 82 860 82 860 214 966 c 0,34,35
 279 1018 279 1018 373 1018 c 0,36,37
 631 1018 631 1018 631 536 c 0,38,39
 631 466 631 466 606 466 c 2,40,-1
 258 466 l 2,41,42
 250 466 250 466 250 441 c 0,13,14
EndSplineSet
EndChar

StartChar: f
Encoding: 102 102 73
Width: 485
GlyphClass: 2
Flags: W
LayerCount: 2
Fore
SplineSet
460 898 m 2,0,1
 460 857 460 857 438 857 c 2,2,-1
 302 857 l 2,3,4
 294 857 294 857 294 825 c 2,5,-1
 294 61 l 2,6,7
 294 0 294 0 268 0 c 2,8,-1
 152 0 l 2,9,10
 126 0 126 0 126 61 c 2,11,-1
 126 825 l 2,12,13
 126 857 126 857 119 857 c 2,14,-1
 67 857 l 2,15,16
 44 857 44 857 44 898 c 2,17,-1
 44 959 l 2,18,19
 44 1006 44 1006 67 1006 c 2,20,-1
 119 1006 l 2,21,22
 126 1006 126 1006 126 1088 c 128,-1,23
 126 1170 126 1170 140.5 1254.5 c 128,-1,24
 155 1339 155 1339 186 1383 c 128,-1,25
 217 1427 217 1427 254.5 1443 c 128,-1,26
 292 1459 292 1459 354 1459 c 128,-1,27
 416 1459 416 1459 441.5 1454 c 128,-1,28
 467 1449 467 1449 467 1417 c 2,29,-1
 467 1352 l 2,30,31
 467 1324 467 1324 465 1315.5 c 128,-1,32
 463 1307 463 1307 454 1307 c 2,33,-1
 391 1307 l 2,34,35
 338 1307 338 1307 316 1262.5 c 128,-1,36
 294 1218 294 1218 294 1100 c 2,37,-1
 294 1012 l 2,38,39
 294 1006 294 1006 297 1006 c 2,40,-1
 438 1006 l 2,41,42
 460 1006 460 1006 460 964 c 2,43,-1
 460 898 l 2,0,1
EndSplineSet
EndChar

StartChar: g
Encoding: 103 103 74
Width: 799
GlyphClass: 2
Flags: W
LayerCount: 2
Fore
SplineSet
219 -263 m 128,-1,1
 151 -219 151 -219 151 -133 c 128,-1,2
 151 -47 151 -47 236 80 c 0,3,4
 240 85 240 85 240 95 c 128,-1,5
 240 105 240 105 235.5 107.5 c 128,-1,6
 231 110 231 110 217.5 115.5 c 128,-1,7
 204 121 204 121 201 122 c 128,-1,8
 198 123 198 123 187 128 c 128,-1,9
 176 133 176 133 173.5 135.5 c 128,-1,10
 171 138 171 138 162.5 143.5 c 128,-1,11
 154 149 154 149 152 153.5 c 128,-1,12
 150 158 150 158 145 165.5 c 0,13,14
 140 172 140 172 138 180 c 0,15,16
 134 202 134 202 134 234 c 128,-1,17
 134 266 134 266 147 304.5 c 128,-1,18
 160 343 160 343 170.5 358.5 c 128,-1,19
 181 374 181 374 198 395.5 c 128,-1,20
 215 417 215 417 215 427 c 128,-1,21
 215 437 215 437 196 458 c 128,-1,22
 177 479 177 479 152 541 c 128,-1,23
 127 603 127 603 127 674 c 0,24,25
 127 829 127 829 200.5 923.5 c 128,-1,26
 274 1018 274 1018 418 1018 c 0,27,28
 444 1018 444 1018 471 1011.5 c 128,-1,29
 498 1005 498 1005 502 1008 c 128,-1,30
 506 1011 506 1011 507 1022 c 2,31,-1
 517 1280 l 2,32,33
 519 1316 519 1316 528.5 1320 c 128,-1,34
 538 1324 538 1324 548 1324 c 2,35,-1
 629 1324 l 2,36,37
 636 1324 636 1324 640 1308 c 128,-1,38
 644 1292 644 1292 641 1281 c 2,39,-1
 575 997 l 2,40,41
 571 980 571 980 574.5 973 c 128,-1,42
 578 966 578 966 591 958 c 1,43,44
 721 862 721 862 721 690 c 0,45,46
 721 346 721 346 442 346 c 0,47,48
 373 346 373 346 314 380 c 1,49,50
 300 370 300 370 286 338.5 c 128,-1,51
 272 307 272 307 272 272 c 0,52,53
 272 188 272 188 376 188 c 2,54,-1
 483 188 l 2,55,56
 633 188 633 188 699 137 c 128,-1,57
 765 86 765 86 765 -25 c 0,58,59
 766 -208 766 -208 600 -274 c 0,60,61
 517 -308 517 -308 402 -307.5 c 129,-1,0
 287 -307 287 -307 219 -263 c 128,-1,1
425 -202 m 0,62,63
 524 -202 524 -202 574 -159.5 c 128,-1,64
 624 -117 624 -117 624 -45 c 128,-1,65
 624 27 624 27 588.5 48 c 128,-1,66
 553 69 553 69 488 69 c 2,67,-1
 374 69 l 2,68,69
 365 68 365 68 349 44 c 0,70,71
 305 -23 305 -23 305 -101 c 0,72,73
 305 -202 305 -202 425 -202 c 0,62,63
436 456 m 128,-1,75
 498 456 498 456 530.5 513 c 128,-1,76
 563 570 563 570 563 672.5 c 128,-1,77
 563 775 563 775 525.5 841.5 c 128,-1,78
 488 908 488 908 428 908 c 128,-1,79
 368 908 368 908 333.5 846.5 c 128,-1,80
 299 785 299 785 299 679 c 128,-1,81
 299 573 299 573 336.5 514.5 c 128,-1,74
 374 456 374 456 436 456 c 128,-1,75
EndSplineSet
EndChar

StartChar: h
Encoding: 104 104 75
Width: 785
GlyphClass: 2
Flags: W
LayerCount: 2
Fore
SplineSet
282 49 m 2,0,1
 282 0 282 0 258 0 c 2,2,-1
 130 0 l 2,3,4
 104 0 104 0 104 49 c 2,5,-1
 104 1384 l 2,6,7
 104 1437 104 1437 130 1437 c 2,8,-1
 257 1437 l 2,9,10
 282 1437 282 1437 282 1384 c 2,11,-1
 282 878 l 2,12,13
 282 863 282 863 286 863 c 128,-1,14
 290 863 290 863 294 869 c 1,15,16
 325 946 325 946 378 982 c 128,-1,17
 431 1018 431 1018 482.5 1018 c 128,-1,18
 534 1018 534 1018 570 997 c 128,-1,19
 606 976 606 976 635 927 c 0,20,21
 694 827 694 827 694 574 c 2,22,-1
 694 49 l 2,23,24
 694 0 694 0 669 0 c 2,25,-1
 541 0 l 2,26,27
 516 0 516 0 516 49 c 2,28,-1
 516 595 l 2,29,30
 516 749 516 749 495 815.5 c 128,-1,31
 474 882 474 882 418.5 882 c 128,-1,32
 363 882 363 882 322.5 799.5 c 128,-1,33
 282 717 282 717 282 588 c 2,34,-1
 282 49 l 2,0,1
EndSplineSet
EndChar

StartChar: i
Encoding: 105 105 76
Width: 363
GlyphClass: 2
Flags: W
LayerCount: 2
Fore
SplineSet
129 1161 m 2,0,1
 104 1161 104 1161 104 1215 c 2,2,-1
 104 1344 l 2,3,4
 104 1397 104 1397 129 1397 c 2,5,-1
 248 1397 l 2,6,7
 273 1397 273 1397 273 1344 c 2,8,-1
 273 1215 l 2,9,10
 273 1161 273 1161 248 1161 c 2,11,-1
 129 1161 l 2,0,1
133 0 m 2,12,13
 108 0 108 0 108 67 c 2,14,-1
 108 940 l 2,15,16
 108 1006 108 1006 133 1006 c 2,17,-1
 245 1006 l 2,18,19
 269 1006 269 1006 269 940 c 2,20,-1
 269 67 l 2,21,22
 269 0 269 0 245 0 c 2,23,-1
 133 0 l 2,12,13
EndSplineSet
EndChar

StartChar: j
Encoding: 106 106 77
Width: 404
GlyphClass: 2
Flags: W
LayerCount: 2
Fore
SplineSet
167 1161 m 2,0,1
 142 1161 142 1161 142 1215 c 2,2,-1
 142 1344 l 2,3,4
 142 1397 142 1397 167 1397 c 2,5,-1
 286 1397 l 2,6,7
 311 1397 311 1397 311 1344 c 2,8,-1
 311 1215 l 2,9,10
 311 1161 311 1161 286 1161 c 2,11,-1
 167 1161 l 2,0,1
34 -335 m 2,12,13
 9 -335 9 -335 9 -277 c 2,14,-1
 9 -216 l 2,15,16
 9 -165 9 -165 33 -165 c 2,17,-1
 72 -165 l 2,18,19
 110 -165 110 -165 128 -133.5 c 128,-1,20
 146 -102 146 -102 146 -6 c 2,21,-1
 146 940 l 2,22,23
 146 1006 146 1006 171 1006 c 2,24,-1
 282 1006 l 2,25,26
 307 1006 307 1006 307 940 c 2,27,-1
 307 -3 l 2,28,29
 306 -248 306 -248 228 -306 c 0,30,31
 188 -336 188 -336 118 -335 c 2,32,-1
 34 -335 l 2,12,13
EndSplineSet
EndChar

StartChar: k
Encoding: 107 107 78
Width: 706
GlyphClass: 2
Flags: W
LayerCount: 2
Fore
SplineSet
130 0 m 2,0,1
 105 0 105 0 105 61 c 2,2,-1
 105 1402 l 2,3,4
 105 1462 105 1462 130 1462 c 2,5,-1
 243 1462 l 2,6,7
 268 1462 268 1462 268 1402 c 2,8,-1
 268 550 l 2,9,10
 268 535 268 535 274 535 c 1,11,-1
 277 538 l 1,12,-1
 337 680 l 1,13,-1
 473 953 l 2,14,15
 499 1006 499 1006 521 1006 c 2,16,-1
 651 1006 l 2,17,18
 660 1006 660 1006 660 987 c 128,-1,19
 660 968 660 968 651 953 c 1,20,-1
 459 575 l 2,21,22
 455 568 455 568 455 557 c 128,-1,23
 455 546 455 546 458 538 c 2,24,-1
 668 59 l 2,25,26
 674 45 674 45 674 22.5 c 128,-1,27
 674 0 674 0 663 0 c 2,28,-1
 536 0 l 2,29,30
 514 0 514 0 498 48 c 1,31,-1
 345 472 l 2,32,33
 341 482 341 482 336 482 c 0,34,35
 330 482 330 482 328 476 c 0,36,37
 324 465 324 465 287 390 c 1,38,-1
 275 365 l 1,39,40
 268 346 268 346 268 318 c 2,41,-1
 268 61 l 2,42,43
 268 0 268 0 243 0 c 2,44,-1
 130 0 l 2,0,1
EndSplineSet
EndChar

StartChar: l
Encoding: 108 108 79
Width: 363
GlyphClass: 2
Flags: W
LayerCount: 2
Fore
SplineSet
135 0 m 2,0,1
 110 0 110 0 110 54 c 2,2,-1
 110 1402 l 2,3,4
 110 1462 110 1462 135 1462 c 2,5,-1
 247 1462 l 2,6,7
 272 1462 272 1462 272 1402 c 2,8,-1
 272 54 l 2,9,10
 272 0 272 0 247 0 c 2,11,-1
 135 0 l 2,0,1
EndSplineSet
EndChar

StartChar: m
Encoding: 109 109 80
Width: 1104
GlyphClass: 2
Flags: W
LayerCount: 2
Fore
SplineSet
271 68 m 2,0,1
 271 0 271 0 246 0 c 2,2,-1
 129 0 l 2,3,4
 104 0 104 0 104 68 c 2,5,-1
 104 933 l 2,6,7
 104 1006 104 1006 128 1006 c 2,8,-1
 163 1006 l 2,9,10
 188 1006 188 1006 199 946 c 1,11,-1
 217 811 l 1,12,13
 220 799 220 799 224 799 c 128,-1,14
 228 799 228 799 231 812 c 0,15,16
 282 1018 282 1018 422 1018 c 0,17,18
 550 1018 550 1018 600 828 c 0,19,20
 603 820 603 820 607.5 820 c 128,-1,21
 612 820 612 820 613 828 c 1,22,23
 638 922 638 922 691.5 970 c 128,-1,24
 745 1018 745 1018 792.5 1018 c 128,-1,25
 840 1018 840 1018 869 1009 c 128,-1,26
 898 1000 898 1000 926.5 973.5 c 128,-1,27
 955 947 955 947 973 902 c 0,28,29
 1013 802 1013 802 1013 602 c 2,30,-1
 1013 68 l 2,31,32
 1013 0 1013 0 988 0 c 2,33,-1
 872 0 l 2,34,35
 847 0 847 0 847 68 c 2,36,-1
 847 620 l 2,37,38
 847 772 847 772 827 827 c 128,-1,39
 807 882 807 882 758 882 c 128,-1,40
 709 882 709 882 675.5 811.5 c 128,-1,41
 642 741 642 741 642 588 c 2,42,-1
 642 68 l 2,43,44
 642 0 642 0 617 0 c 2,45,-1
 502 0 l 2,46,47
 476 0 476 0 476 68 c 2,48,-1
 476 607 l 2,49,50
 476 764 476 764 455 823 c 128,-1,51
 434 882 434 882 391.5 882 c 0,52,53
 350 882 350 882 322 840 c 0,54,55
 272 762 272 762 271 577 c 2,56,-1
 271 68 l 2,0,1
EndSplineSet
EndChar

StartChar: n
Encoding: 110 110 81
Width: 789
GlyphClass: 2
Flags: W
LayerCount: 2
Fore
SplineSet
283 49 m 2,0,1
 283 0 283 0 258 0 c 2,2,-1
 129 0 l 2,3,4
 104 0 104 0 104 49 c 2,5,-1
 104 946 l 2,6,7
 104 1006 104 1006 128 1006 c 2,8,-1
 171 1006 l 2,9,10
 200 1006 200 1006 208 959 c 2,11,-1
 228 833 l 2,12,13
 230 822 230 822 234.5 822 c 128,-1,14
 239 822 239 822 248.5 856 c 128,-1,15
 258 890 258 890 284.5 929 c 128,-1,16
 311 968 311 968 343 986 c 0,17,18
 397 1018 397 1018 459.5 1018 c 128,-1,19
 522 1018 522 1018 562 998 c 128,-1,20
 602 978 602 978 634 930 c 0,21,22
 698 834 698 834 697 585 c 2,23,-1
 697 49 l 2,24,25
 697 0 697 0 672 0 c 2,26,-1
 544 0 l 2,27,28
 519 0 519 0 519 49 c 2,29,-1
 519 607 l 2,30,31
 519 748 519 748 497.5 815 c 128,-1,32
 476 882 476 882 420.5 882 c 128,-1,33
 365 882 365 882 324 801.5 c 128,-1,34
 283 721 283 721 283 600 c 2,35,-1
 283 49 l 2,0,1
EndSplineSet
EndChar

StartChar: o
Encoding: 111 111 82
Width: 768
GlyphClass: 2
Flags: W
LayerCount: 2
Fore
SplineSet
385 -11 m 128,-1,1
 352 -11 352 -11 326.5 -8 c 128,-1,2
 301 -5 301 -5 268 7 c 128,-1,3
 235 19 235 19 210.5 40 c 128,-1,4
 186 61 186 61 160 100 c 128,-1,5
 134 139 134 139 118 192 c 128,-1,6
 102 245 102 245 91.5 325.5 c 128,-1,7
 81 406 81 406 81 506 c 128,-1,8
 81 606 81 606 91.5 685.5 c 128,-1,9
 102 765 102 765 119 818 c 128,-1,10
 136 871 136 871 162 909.5 c 128,-1,11
 188 948 188 948 212.5 968.5 c 128,-1,12
 237 989 237 989 270.5 1000.5 c 128,-1,13
 304 1012 304 1012 328.5 1015 c 128,-1,14
 353 1018 353 1018 385 1018 c 128,-1,15
 417 1018 417 1018 441.5 1015 c 128,-1,16
 466 1012 466 1012 499 1000.5 c 128,-1,17
 532 989 532 989 556.5 968.5 c 128,-1,18
 581 948 581 948 607 909.5 c 128,-1,19
 633 871 633 871 649.5 818 c 128,-1,20
 666 765 666 765 676.5 685.5 c 128,-1,21
 687 606 687 606 687 506 c 128,-1,22
 687 406 687 406 676.5 325.5 c 128,-1,23
 666 245 666 245 650 192 c 128,-1,24
 634 139 634 139 608.5 100 c 128,-1,25
 583 61 583 61 558.5 40 c 128,-1,26
 534 19 534 19 501 7 c 128,-1,27
 468 -5 468 -5 443 -8 c 128,-1,0
 418 -11 418 -11 385 -11 c 128,-1,1
385 125 m 128,-1,29
 417 125 417 125 438 138.5 c 128,-1,30
 459 152 459 152 477 190 c 0,31,32
 513 267 513 267 513 445 c 128,-1,33
 513 623 513 623 504 700 c 128,-1,34
 495 777 495 777 476.5 815.5 c 128,-1,35
 458 854 458 854 437 868 c 128,-1,36
 416 882 416 882 385 882 c 128,-1,37
 354 882 354 882 332.5 868 c 0,38,39
 310 854 310 854 292 816 c 0,40,41
 256 740 256 740 256 563 c 128,-1,42
 256 386 256 386 264.5 308 c 128,-1,43
 273 230 273 230 291.5 191 c 128,-1,44
 310 152 310 152 331.5 138.5 c 128,-1,28
 353 125 353 125 385 125 c 128,-1,29
EndSplineSet
EndChar

StartChar: p
Encoding: 112 112 83
Width: 780
GlyphClass: 2
Flags: W
LayerCount: 2
Fore
SplineSet
399 125 m 0,0,1
 524 125 524 125 524 500 c 0,2,3
 524 679 524 679 489.5 780.5 c 128,-1,4
 455 882 455 882 396.5 882 c 128,-1,5
 338 882 338 882 302 779 c 128,-1,6
 266 676 266 676 266 498 c 128,-1,7
 266 320 266 320 302.5 222.5 c 128,-1,8
 339 125 339 125 399 125 c 0,0,1
127 -344 m 2,9,10
 104 -344 104 -344 104 -275 c 2,11,-1
 104 937 l 2,12,13
 104 1007 104 1007 127 1007 c 2,14,-1
 153 1007 l 2,15,16
 178 1007 178 1007 189 937 c 1,17,18
 212 822 212 822 213 805.5 c 128,-1,19
 214 789 214 789 217.5 789 c 128,-1,20
 221 789 221 789 224 798 c 0,21,22
 252 911 252 911 311.5 964 c 128,-1,23
 371 1017 371 1017 425 1017 c 128,-1,24
 479 1017 479 1017 515.5 999.5 c 128,-1,25
 552 982 552 982 586 943 c 128,-1,26
 620 904 620 904 645 846 c 0,27,28
 699 722 699 722 699 480 c 128,-1,29
 699 238 699 238 629.5 113.5 c 128,-1,30
 560 -11 560 -11 444 -11 c 0,31,32
 393 -11 393 -11 348 27.5 c 128,-1,33
 303 66 303 66 278 138 c 0,34,35
 276 144 276 144 271 144 c 128,-1,36
 266 144 266 144 266 131 c 2,37,-1
 266 -275 l 2,38,39
 266 -344 266 -344 242 -344 c 2,40,-1
 127 -344 l 2,9,10
EndSplineSet
EndChar

StartChar: q
Encoding: 113 113 84
Width: 769
GlyphClass: 2
Flags: W
LayerCount: 2
Fore
SplineSet
376 125 m 0,0,1
 435 125 435 125 470.5 222.5 c 128,-1,2
 506 320 506 320 506 498.5 c 128,-1,3
 506 677 506 677 471 779.5 c 128,-1,4
 436 882 436 882 378 882 c 128,-1,5
 320 882 320 882 287.5 781.5 c 128,-1,6
 255 681 255 681 255 500 c 0,7,8
 255 125 255 125 376 125 c 0,0,1
667 -292 m 2,9,10
 667 -344 667 -344 644 -344 c 2,11,-1
 529 -344 l 2,12,13
 506 -344 506 -344 506 -292 c 2,14,-1
 505 131 l 2,15,16
 505 144 505 144 499.5 144 c 128,-1,17
 494 144 494 144 493 138 c 1,18,19
 467 66 467 66 424 27.5 c 128,-1,20
 381 -11 381 -11 330 -11 c 0,21,22
 81 -11 81 -11 81 510 c 0,23,24
 82 891 82 891 246 991 c 0,25,26
 290 1018 290 1018 349.5 1018 c 128,-1,27
 409 1018 409 1018 464 962 c 128,-1,28
 519 906 519 906 547 790 c 0,29,30
 550 781 550 781 553.5 781 c 128,-1,31
 557 781 557 781 558 789.5 c 128,-1,32
 559 798 559 798 582 947 c 1,33,34
 593 1008 593 1008 618 1008 c 2,35,-1
 644 1008 l 2,36,37
 667 1008 667 1008 667 947 c 2,38,-1
 667 -292 l 2,9,10
EndSplineSet
EndChar

StartChar: r
Encoding: 114 114 85
Width: 496
GlyphClass: 2
Flags: W
LayerCount: 2
Fore
SplineSet
266 69 m 2,0,1
 266 0 266 0 241 0 c 2,2,-1
 129 0 l 2,3,4
 104 0 104 0 104 69 c 2,5,-1
 104 929 l 2,6,7
 104 1006 104 1006 123 1006 c 2,8,-1
 161 1006 l 2,9,10
 178 1006 178 1006 191 942 c 1,11,-1
 214 806 l 2,12,13
 216 791 216 791 220.5 791 c 128,-1,14
 225 791 225 791 227 806 c 1,15,16
 257 912 257 912 299 963 c 128,-1,17
 341 1014 341 1014 386 1016 c 1,18,-1
 402 1016 l 2,19,20
 428 1016 428 1016 437 1003 c 128,-1,21
 446 990 446 990 446 962 c 2,22,-1
 446 862 l 2,23,24
 446 824 446 824 428 824 c 0,25,26
 390 824 390 824 375 818 c 1,27,28
 320 802 320 802 293 711 c 128,-1,29
 266 620 266 620 266 519 c 2,30,-1
 266 69 l 2,0,1
EndSplineSet
EndChar

StartChar: s
Encoding: 115 115 86
Width: 596
GlyphClass: 2
Flags: W
LayerCount: 2
Fore
SplineSet
40 114 m 1,0,-1
 99 229 l 1,1,2
 190 125 190 125 283 125 c 0,3,4
 340 125 340 125 369.5 164.5 c 128,-1,5
 399 204 399 204 399 260 c 128,-1,6
 399 316 399 316 368.5 351.5 c 128,-1,7
 338 387 338 387 275 431 c 128,-1,8
 212 475 212 475 183.5 499.5 c 128,-1,9
 155 524 155 524 128 560 c 0,10,11
 76 629 76 629 76 746.5 c 128,-1,12
 76 864 76 864 141 941 c 128,-1,13
 206 1018 206 1018 322 1018 c 128,-1,14
 438 1018 438 1018 529 917 c 1,15,-1
 467 798 l 1,16,17
 396 876 396 876 324 876 c 0,18,19
 277 876 277 876 251 842.5 c 128,-1,20
 225 809 225 809 225 756 c 128,-1,21
 225 703 225 703 256 664.5 c 128,-1,22
 287 626 287 626 341 591.5 c 128,-1,23
 395 557 395 557 426.5 530 c 0,24,25
 458 502 458 502 488 464 c 0,26,27
 548 386 548 386 547.5 260 c 128,-1,28
 547 134 547 134 479.5 61.5 c 128,-1,29
 412 -11 412 -11 278 -11 c 128,-1,30
 144 -11 144 -11 40 114 c 1,0,-1
EndSplineSet
EndChar

StartChar: t
Encoding: 116 116 87
Width: 522
GlyphClass: 2
Flags: W
LayerCount: 2
Fore
SplineSet
312 855 m 2,0,1
 300 855 300 855 300 835 c 2,2,-1
 300 319 l 2,3,4
 300 166 300 166 358 142 c 0,5,6
 372 136 372 136 394 136 c 2,7,-1
 465 136 l 2,8,9
 492 136 492 136 492 99 c 2,10,-1
 492 39 l 2,11,12
 492 -2 492 -2 463 -2 c 2,13,-1
 361 -2 l 2,14,15
 228 -2 228 -2 178 82 c 0,16,17
 132 159 132 159 131 322 c 2,18,-1
 131 835 l 2,19,20
 131 855 131 855 120 855 c 2,21,-1
 58 855 l 2,22,23
 33 855 33 855 33 903 c 2,24,-1
 33 957 l 2,25,26
 33 1006 33 1006 58 1006 c 2,27,-1
 120 1006 l 2,28,29
 131 1006 131 1006 131 1033 c 1,30,-1
 149 1422 l 2,31,32
 152 1475 152 1475 175 1475 c 2,33,-1
 275 1475 l 2,34,35
 300 1475 300 1475 300 1422 c 2,36,-1
 300 1033 l 2,37,38
 300 1006 300 1006 312 1006 c 2,39,-1
 440 1006 l 2,40,41
 465 1006 465 1006 465 957 c 2,42,-1
 465 903 l 2,43,44
 465 855 465 855 440 855 c 2,45,-1
 312 855 l 2,0,1
EndSplineSet
EndChar

StartChar: u
Encoding: 117 117 88
Width: 755
GlyphClass: 2
Flags: W
LayerCount: 2
Fore
SplineSet
630 1006 m 2,0,1
 656 1006 656 1006 656 957 c 2,2,-1
 656 61 l 2,3,4
 656 0 656 0 631 0 c 2,5,-1
 605 0 l 2,6,7
 577 0 577 0 569 48 c 2,8,-1
 546 190 l 2,9,10
 543 203 543 203 539 203 c 128,-1,11
 535 203 535 203 532 191 c 0,12,13
 507 89 507 89 450 39 c 128,-1,14
 393 -11 393 -11 339 -11 c 128,-1,15
 285 -11 285 -11 252.5 -1.5 c 128,-1,16
 220 8 220 8 189 33.5 c 128,-1,17
 158 59 158 59 137 101 c 0,18,19
 91 193 91 193 91 372 c 2,20,-1
 91 957 l 2,21,22
 91 1006 91 1006 117 1006 c 2,23,-1
 235 1006 l 2,24,25
 260 1006 260 1006 260 957 c 2,26,-1
 260 345 l 2,27,28
 260 226 260 226 285 175.5 c 128,-1,29
 310 125 310 125 365 125 c 128,-1,30
 420 125 420 125 456 204.5 c 128,-1,31
 492 284 492 284 492 390 c 2,32,-1
 492 957 l 2,33,34
 492 1006 492 1006 518 1006 c 2,35,-1
 630 1006 l 2,0,1
EndSplineSet
EndChar

StartChar: v
Encoding: 118 118 89
Width: 663
GlyphClass: 2
Flags: W
LayerCount: 2
Fore
SplineSet
275 0 m 2,0,1
 251 0 251 0 238 68 c 1,2,-1
 57 942 l 2,3,4
 55 952 55 952 55 979 c 0,5,6
 55 1006 55 1006 70 1006 c 2,7,-1
 192 1006 l 2,8,9
 217 1006 217 1006 226 946 c 2,10,-1
 340 248 l 2,11,12
 342 238 342 238 345 238 c 128,-1,13
 348 238 348 238 349 248 c 2,14,-1
 446 946 l 2,15,16
 454 1006 454 1006 482 1006 c 2,17,-1
 594 1006 l 2,18,19
 609 1006 609 1006 609 985 c 0,20,21
 609 964 609 964 605 943 c 2,22,-1
 435 67 l 2,23,24
 422 0 422 0 397 0 c 2,25,-1
 275 0 l 2,0,1
EndSplineSet
EndChar

StartChar: w
Encoding: 119 119 90
Width: 922
GlyphClass: 2
Flags: W
LayerCount: 2
Fore
SplineSet
232 0 m 2,0,1
 205 0 205 0 197 57 c 2,2,-1
 59 941 l 2,3,4
 57 959 57 959 57 967 c 0,5,6
 57 1006 57 1006 74 1006 c 2,7,-1
 173 1006 l 2,8,9
 197 1006 197 1006 205 944 c 2,10,-1
 297 222 l 1,11,-1
 300 213 l 1,12,13
 304 213 304 213 304 221 c 1,14,-1
 398 945 l 2,15,16
 405 1006 405 1006 431 1006 c 2,17,-1
 521 1006 l 2,18,19
 544 1006 544 1006 552 945 c 2,20,-1
 645 220 l 1,21,22
 645 212 645 212 648 212 c 0,23,24
 651 212 651 212 652 220 c 2,25,-1
 739 944 l 2,26,27
 746 1006 746 1006 772 1006 c 2,28,-1
 849 1006 l 2,29,30
 865 1006 865 1006 865 982 c 0,31,32
 865 958 865 958 862 942 c 2,33,-1
 738 57 l 1,34,35
 729 0 729 0 702 0 c 2,36,-1
 597 0 l 2,37,38
 570 0 570 0 562 59 c 2,39,-1
 474 677 l 2,40,41
 474 684 474 684 471 684 c 128,-1,42
 468 684 468 684 466 677 c 2,43,-1
 376 59 l 2,44,45
 367 0 367 0 340 0 c 2,46,-1
 232 0 l 2,0,1
EndSplineSet
EndChar

StartChar: x
Encoding: 120 120 91
Width: 677
GlyphClass: 2
Flags: W
LayerCount: 2
Fore
SplineSet
59 0 m 2,0,1
 51 0 51 0 51 18.5 c 128,-1,2
 51 37 51 37 54 46 c 2,3,-1
 237 464 l 2,4,5
 240 472 240 472 240 481 c 128,-1,6
 240 490 240 490 238 500 c 1,7,-1
 50 958 l 2,8,9
 46 968 46 968 46 987 c 128,-1,10
 46 1006 46 1006 56 1006 c 2,11,-1
 191 1006 l 2,12,13
 214 1006 214 1006 234 956 c 2,14,-1
 334 699 l 2,15,16
 337 691 337 691 341.5 691 c 128,-1,17
 346 691 346 691 349 698 c 2,18,-1
 445 958 l 2,19,20
 463 1006 463 1006 489 1006 c 2,21,-1
 602 1006 l 2,22,23
 611 1006 611 1006 611 987 c 128,-1,24
 611 968 611 968 607 960 c 2,25,-1
 434 567 l 1,26,27
 429 559 429 559 429 549.5 c 128,-1,28
 429 540 429 540 433 530 c 2,29,-1
 635 48 l 2,30,31
 638 41 638 41 638 20.5 c 128,-1,32
 638 0 638 0 629 0 c 2,33,-1
 493 0 l 2,34,35
 467 0 467 0 447 50 c 1,36,-1
 348 318 l 2,37,38
 345 328 345 328 338.5 328 c 128,-1,39
 332 328 332 328 329 319 c 2,40,-1
 226 47 l 2,41,42
 209 0 209 0 181 0 c 2,43,-1
 59 0 l 2,0,1
EndSplineSet
EndChar

StartChar: y
Encoding: 121 121 92
Width: 662
GlyphClass: 2
Flags: W
LayerCount: 2
Fore
SplineSet
143 -102 m 1,0,-1
 223 -122 l 1,1,2
 246 -122 246 -122 263 -84.5 c 128,-1,3
 280 -47 280 -47 280 -4.5 c 128,-1,4
 280 38 280 38 260 133 c 1,5,-1
 64 948 l 1,6,7
 62 962 62 962 62 984 c 128,-1,8
 62 1006 62 1006 77 1006 c 2,9,-1
 198 1006 l 2,10,11
 227 1006 227 1006 235 958 c 2,12,-1
 365 270 l 1,13,14
 369 258 369 258 371.5 258 c 128,-1,15
 374 258 374 258 374 269 c 1,16,-1
 476 955 l 2,17,18
 483 1006 483 1006 510 1006 c 2,19,-1
 594 1006 l 2,20,21
 611 1006 611 1006 611 967 c 0,22,23
 611 958 611 958 609 944 c 2,24,-1
 431 17 l 1,25,26
 392 -197 392 -197 329 -242 c 0,27,28
 298 -264 298 -264 247 -265 c 1,29,-1
 237 -265 l 2,30,31
 156 -265 156 -265 127 -222 c 1,32,33
 119 -213 119 -213 119 -157.5 c 128,-1,34
 119 -102 119 -102 143 -102 c 1,0,-1
EndSplineSet
EndChar

StartChar: z
Encoding: 122 122 93
Width: 580
GlyphClass: 2
Flags: W
LayerCount: 2
Fore
SplineSet
97 852 m 1,0,1
 86 848 86 848 86 878 c 2,2,-1
 86 979 l 2,3,4
 86 1006 86 1006 97 1006 c 2,5,-1
 493 1006 l 2,6,7
 508 1006 508 1006 508 979 c 2,8,-1
 508 851 l 2,9,10
 508 819 508 819 498 796 c 1,11,-1
 273 153 l 1,12,-1
 506 153 l 1,13,14
 511 155 511 155 515 147.5 c 128,-1,15
 519 140 519 140 519 127 c 2,16,-1
 519 25 l 2,17,18
 519 0 519 0 506 0 c 2,19,-1
 100 0 l 2,20,21
 84 0 84 0 84 25 c 2,22,-1
 84 139 l 2,23,24
 84 165 84 165 97 199 c 2,25,-1
 329 852 l 1,26,-1
 97 852 l 1,0,1
EndSplineSet
EndChar

StartChar: braceleft
Encoding: 123 123 94
Width: 526
GlyphClass: 2
Flags: W
LayerCount: 2
Fore
SplineSet
198 1029 m 1,0,-1
 199 1168 l 2,1,2
 201 1447 201 1447 264 1512 c 0,3,4
 294 1543 294 1543 345 1543 c 2,5,-1
 427 1543 l 2,6,7
 438 1543 438 1543 445.5 1525.5 c 128,-1,8
 453 1508 453 1508 453 1482 c 2,9,-1
 453 1456 l 2,10,11
 453 1393 453 1393 417 1393 c 128,-1,12
 381 1393 381 1393 372.5 1352.5 c 128,-1,13
 364 1312 364 1312 363 1161 c 1,14,-1
 363 1005 l 1,15,16
 362 881 362 881 348.5 814 c 128,-1,17
 335 747 335 747 293 731 c 0,18,19
 289 729 289 729 289 721 c 128,-1,20
 289 713 289 713 293 711 c 0,21,22
 334 695 334 695 347 633.5 c 128,-1,23
 360 572 360 572 360 456 c 2,24,-1
 360 302 l 1,25,26
 361 140 361 140 370 93.5 c 128,-1,27
 379 47 379 47 416 47 c 0,28,29
 437 47 437 47 445 32 c 128,-1,30
 453 17 453 17 453 -16 c 2,31,-1
 453 -42 l 2,32,33
 453 -68 453 -68 445.5 -85.5 c 128,-1,34
 438 -103 438 -103 427 -103 c 2,35,-1
 345 -103 l 2,36,37
 268 -103 268 -103 234 -16 c 128,-1,38
 200 71 200 71 198 290 c 1,39,-1
 198 423 l 1,40,41
 197 534 197 534 182 576.5 c 128,-1,42
 167 619 167 619 137 620 c 128,-1,43
 107 621 107 621 98.5 637.5 c 128,-1,44
 90 654 90 654 90 696 c 2,45,-1
 90 751 l 2,46,47
 90 789 90 789 98.5 803 c 128,-1,48
 107 817 107 817 130 818 c 0,49,50
 166 819 166 819 181 868 c 128,-1,51
 196 917 196 917 198 1029 c 1,0,-1
EndSplineSet
EndChar

StartChar: bar
Encoding: 124 124 95
Width: 329
GlyphClass: 2
Flags: W
LayerCount: 2
Fore
SplineSet
212 -80 m 2,0,1
 212 -150 212 -150 185 -150 c 2,2,-1
 143 -150 l 2,3,4
 116 -150 116 -150 116 -80 c 2,5,-1
 116 1485 l 2,6,7
 116 1555 116 1555 143 1555 c 2,8,-1
 185 1555 l 2,9,10
 212 1555 212 1555 212 1485 c 2,11,-1
 212 -80 l 2,0,1
EndSplineSet
EndChar

StartChar: braceright
Encoding: 125 125 96
Width: 526
GlyphClass: 2
Flags: W
LayerCount: 2
Fore
SplineSet
127 1393 m 128,-1,1
 90 1393 90 1393 90 1456 c 2,2,-1
 90 1482 l 2,3,4
 90 1508 90 1508 97.5 1525.5 c 128,-1,5
 105 1543 105 1543 116 1543 c 2,6,-1
 198 1543 l 2,7,8
 275 1543 275 1543 309 1456.5 c 128,-1,9
 343 1370 343 1370 345 1151 c 1,10,-1
 345 1018 l 1,11,12
 347 907 347 907 362 864 c 128,-1,13
 377 821 377 821 406.5 820 c 128,-1,14
 436 819 436 819 444.5 803 c 128,-1,15
 453 787 453 787 453 745 c 2,16,-1
 453 690 l 2,17,18
 453 651 453 651 444.5 637 c 128,-1,19
 436 623 436 623 413 623 c 0,20,21
 377 622 377 622 362.5 572.5 c 128,-1,22
 348 523 348 523 346 456.5 c 128,-1,23
 344 390 344 390 343.5 257.5 c 128,-1,24
 343 125 343 125 326 42.5 c 128,-1,25
 309 -40 309 -40 279 -71.5 c 128,-1,26
 249 -103 249 -103 198 -103 c 2,27,-1
 116 -103 l 2,28,29
 105 -103 105 -103 97.5 -85.5 c 128,-1,30
 90 -68 90 -68 90 -42 c 2,31,-1
 90 -16 l 2,32,33
 90 17 90 17 98 32 c 128,-1,34
 106 47 106 47 127 47 c 0,35,36
 162 47 162 47 170.5 87.5 c 128,-1,37
 179 128 179 128 180 279 c 1,38,-1
 180 435 l 1,39,40
 181 560 181 560 194.5 626.5 c 128,-1,41
 208 693 208 693 250 709 c 0,42,43
 254 711 254 711 254 719.5 c 128,-1,44
 254 728 254 728 250 730 c 0,45,46
 209 745 209 745 196.5 806 c 128,-1,47
 184 867 184 867 183 984 c 1,48,-1
 183 1138 l 1,49,50
 182 1300 182 1300 173 1346.5 c 128,-1,0
 164 1393 164 1393 127 1393 c 128,-1,1
EndSplineSet
EndChar

StartChar: asciitilde
Encoding: 126 126 97
Width: 949
GlyphClass: 2
Flags: W
LayerCount: 2
Fore
SplineSet
92 653 m 0,0,1
 79 675 79 675 79 693 c 128,-1,2
 79 711 79 711 101.5 747.5 c 128,-1,3
 124 784 124 784 140 784 c 128,-1,4
 156 784 156 784 165 767 c 0,5,6
 195 711 195 711 222 693 c 128,-1,7
 249 675 249 675 293.5 675 c 128,-1,8
 338 675 338 675 403.5 707.5 c 128,-1,9
 469 740 469 740 537.5 772 c 128,-1,10
 606 804 606 804 660 804 c 0,11,12
 787 804 787 804 863 683 c 0,13,14
 870 672 870 672 870 650 c 128,-1,15
 870 628 870 628 851 595.5 c 128,-1,16
 832 563 832 563 814 563 c 128,-1,17
 796 563 796 563 773.5 594.5 c 128,-1,18
 751 626 751 626 729 643.5 c 128,-1,19
 707 661 707 661 672 661 c 128,-1,20
 637 661 637 661 586 641 c 0,21,22
 535 620 535 620 492 596 c 0,23,24
 379 532 379 532 270.5 532 c 128,-1,25
 162 532 162 532 92 653 c 0,0,1
EndSplineSet
EndChar

StartChar: cent
Encoding: 162 162 99
Width: 582
GlyphClass: 2
Flags: W
LayerCount: 2
Fore
SplineSet
372 136 m 1,0,-1
 372 871 l 1,1,2
 338 861 338 861 314 832 c 0,3,4
 256 760 256 760 255 509 c 0,5,6
 256 224 256 224 326 159 c 0,7,8
 346 141 346 141 372 136 c 1,0,-1
511 148 m 1,9,10
 524 145 524 145 524 127 c 2,11,-1
 524 28 l 2,12,13
 524 14 524 14 515.5 9.5 c 128,-1,14
 507 5 507 5 501.5 2.5 c 128,-1,15
 496 0 496 0 487 -1.5 c 128,-1,16
 478 -3 478 -3 473 -4 c 0,17,18
 458 -7 458 -7 446 -7 c 1,19,-1
 446 -127 l 2,20,21
 446 -181 446 -181 422 -181 c 2,22,-1
 396 -181 l 2,23,24
 372 -181 372 -181 372 -127 c 2,25,-1
 372 -11 l 1,26,27
 207 -4 207 -4 141 136 c 0,28,29
 81 263 81 263 81 509 c 0,30,31
 82 850 82 850 208 959 c 0,32,33
 275 1017 275 1017 372 1017 c 1,34,-1
 372 1177 l 2,35,36
 372 1230 372 1230 396 1230 c 2,37,-1
 422 1230 l 2,38,39
 446 1230 446 1230 446 1177 c 2,40,-1
 446 1010 l 1,41,42
 494 1010 494 1010 508.5 998 c 128,-1,43
 523 986 523 986 523 980 c 2,44,-1
 523 874 l 1,45,46
 524 868 524 868 520 863 c 128,-1,47
 516 858 516 858 512 858 c 2,48,-1
 446 873 l 1,49,-1
 446 133 l 1,50,51
 476 137 476 137 511 148 c 1,9,10
EndSplineSet
EndChar

StartChar: sterling
Encoding: 163 163 100
Width: 963
GlyphClass: 2
Flags: W
LayerCount: 2
Fore
SplineSet
215 808 m 1,0,-1
 214 958 l 1,1,2
 214 1172 214 1172 259 1272 c 0,3,4
 303 1370 303 1370 384 1414 c 0,5,6
 481 1467 481 1467 626 1467 c 128,-1,7
 771 1467 771 1467 876 1413 c 0,8,9
 892 1404 892 1404 896 1402 c 128,-1,10
 900 1400 900 1400 910 1393 c 0,11,12
 924 1382 924 1382 924 1371.5 c 128,-1,13
 924 1361 924 1361 922 1351 c 2,14,-1
 907 1282 l 2,15,16
 898 1244 898 1244 861 1253 c 1,17,18
 843 1255 843 1255 813 1268 c 0,19,20
 732 1303 732 1303 658.5 1303 c 128,-1,21
 585 1303 585 1303 546 1291 c 128,-1,22
 507 1279 507 1279 480.5 1255 c 128,-1,23
 454 1231 454 1231 440 1183 c 0,24,25
 416 1099 416 1099 417 918 c 2,26,-1
 417 808 l 1,27,-1
 701 808 l 2,28,29
 750 808 750 808 750 756 c 2,30,-1
 750 719 l 2,31,32
 750 667 750 667 701 667 c 2,33,-1
 415 667 l 1,34,-1
 415 194 l 2,35,36
 415 164 415 164 420.5 156 c 128,-1,37
 426 148 426 148 449 148 c 2,38,-1
 882 148 l 2,39,40
 924 148 924 148 924 103 c 2,41,-1
 924 37 l 2,42,43
 924 15 924 15 914.5 7.5 c 128,-1,44
 905 0 905 0 882 0 c 2,45,-1
 98 0 l 2,46,47
 69 0 69 0 59 11.5 c 128,-1,48
 49 23 49 23 49 51 c 2,49,-1
 49 94 l 2,50,51
 49 123 49 123 59 135.5 c 128,-1,52
 69 148 69 148 98 148 c 2,53,-1
 189 148 l 2,54,55
 209 148 209 148 214 152 c 128,-1,56
 219 156 219 156 219 171 c 2,57,-1
 219 624 l 2,58,59
 219 667 219 667 189 667 c 2,60,-1
 98 667 l 2,61,62
 49 667 49 667 49 719 c 2,63,-1
 49 756 l 2,64,65
 49 808 49 808 98 808 c 2,66,-1
 215 808 l 1,0,-1
EndSplineSet
EndChar

StartChar: currency
Encoding: 164 164 101
Width: 1193
GlyphClass: 2
Flags: W
LayerCount: 2
Fore
SplineSet
596 616 m 0,0,1
 672 616 672 616 734 637.5 c 128,-1,2
 796 659 796 659 836.5 694.5 c 0,3,4
 876 730 876 730 904 778 c 0,5,6
 956 867 956 867 956 956 c 128,-1,7
 956 1045 956 1045 936 1107.5 c 128,-1,8
 916 1170 916 1170 875 1223 c 128,-1,9
 834 1276 834 1276 762 1307.5 c 128,-1,10
 690 1339 690 1339 596 1339 c 128,-1,11
 502 1339 502 1339 430 1307.5 c 128,-1,12
 358 1276 358 1276 317 1223 c 0,13,14
 236 1118 236 1118 236 976 c 0,15,16
 236 798 236 798 356 694 c 0,17,18
 446 616 446 616 596 616 c 0,0,1
319 1363 m 1,19,20
 443 1444 443 1444 596.5 1444 c 128,-1,21
 750 1444 750 1444 874 1363 c 1,22,-1
 904 1393 l 2,23,24
 939 1428 939 1428 954.5 1428 c 128,-1,25
 970 1428 970 1428 982 1415 c 1,26,-1
 1013 1386 l 1,27,28
 1024 1373 1024 1373 1024 1360 c 128,-1,29
 1024 1347 1024 1347 988 1311 c 2,30,-1
 963 1286 l 1,31,32
 1073 1161 1073 1161 1073 979.5 c 128,-1,33
 1073 798 1073 798 966 673 c 1,34,-1
 988 651 l 2,35,36
 1023 616 1023 616 1023 601 c 128,-1,37
 1023 586 1023 586 1010 573 c 2,38,-1
 980 543 l 1,39,40
 967 532 967 532 953 532 c 128,-1,41
 939 532 939 532 905 568 c 1,42,-1
 877 596 l 1,43,44
 752 515 752 515 596 515 c 128,-1,45
 440 515 440 515 316 596 c 1,46,-1
 288 568 l 1,47,48
 254 532 254 532 238.5 532 c 128,-1,49
 223 532 223 532 213 543 c 2,50,-1
 183 572 l 1,51,52
 170 586 170 586 170 601 c 128,-1,53
 170 616 170 616 204 650 c 2,54,-1
 227 673 l 1,55,56
 119 798 119 798 119 978.5 c 128,-1,57
 119 1159 119 1159 229 1286 c 1,58,-1
 204 1311 l 2,59,60
 168 1347 168 1347 168 1361.5 c 128,-1,61
 168 1376 168 1376 180 1386 c 1,62,-1
 210 1415 l 1,63,64
 222 1428 222 1428 238 1428 c 128,-1,65
 254 1428 254 1428 288 1394 c 2,66,-1
 319 1363 l 1,19,20
EndSplineSet
EndChar

StartChar: yen
Encoding: 165 165 102
Width: 732
GlyphClass: 2
Flags: W
LayerCount: 2
Fore
SplineSet
637 369 m 2,0,1
 637 329 637 329 613 329 c 2,2,-1
 468 329 l 1,3,-1
 468 51 l 2,4,5
 468 0 468 0 443 0 c 2,6,-1
 295 0 l 2,7,8
 270 0 270 0 270 51 c 2,9,-1
 270 329 l 1,10,-1
 118 329 l 2,11,12
 93 329 93 329 93 369 c 2,13,-1
 93 439 l 2,14,15
 93 480 93 480 118 480 c 2,16,-1
 260 480 l 1,17,-1
 247 570 l 1,18,-1
 118 570 l 2,19,20
 93 570 93 570 93 611 c 2,21,-1
 93 681 l 2,22,23
 93 721 93 721 118 721 c 2,24,-1
 212 721 l 1,25,-1
 39 1378 l 1,26,27
 34 1393 34 1393 34 1415.5 c 128,-1,28
 34 1438 34 1438 50 1438 c 2,29,-1
 185 1438 l 2,30,31
 198 1438 198 1438 210 1424 c 128,-1,32
 222 1410 222 1410 227 1385 c 2,33,-1
 374 751 l 1,34,-1
 388 751 l 1,35,-1
 532 1384 l 2,36,37
 537 1408 537 1408 548.5 1423 c 128,-1,38
 560 1438 560 1438 572 1438 c 2,39,-1
 684 1438 l 2,40,41
 700 1438 700 1438 700 1415.5 c 128,-1,42
 700 1393 700 1393 696 1378 c 2,43,-1
 525 721 l 1,44,-1
 618 721 l 2,45,46
 642 721 642 721 642 681 c 2,47,-1
 642 611 l 2,48,49
 642 570 642 570 618 570 c 2,50,-1
 491 570 l 1,51,-1
 478 480 l 1,52,-1
 613 480 l 2,53,54
 637 480 637 480 637 439 c 2,55,-1
 637 369 l 2,0,1
EndSplineSet
EndChar

StartChar: brokenbar
Encoding: 166 166 103
Width: 388
GlyphClass: 2
Flags: W
LayerCount: 2
Fore
SplineSet
170 852 m 2,0,1
 144 852 144 852 144 912 c 2,2,-1
 144 1482 l 2,3,4
 144 1542 144 1542 170 1542 c 2,5,-1
 217 1542 l 2,6,7
 243 1542 243 1542 243 1482 c 2,8,-1
 243 912 l 2,9,10
 243 852 243 852 217 852 c 2,11,-1
 170 852 l 2,0,1
170 -123 m 2,12,13
 145 -123 145 -123 145 -63 c 2,14,-1
 145 506 l 2,15,16
 145 566 145 566 170 566 c 2,17,-1
 218 566 l 2,18,19
 243 566 243 566 243 506 c 2,20,-1
 243 -63 l 2,21,22
 243 -123 243 -123 218 -123 c 2,23,-1
 170 -123 l 2,12,13
EndSplineSet
EndChar

StartChar: section
Encoding: 167 167 104
Width: 836
GlyphClass: 2
Flags: W
LayerCount: 2
Fore
SplineSet
574 573 m 1,0,1
 589 582 589 582 607 627 c 128,-1,2
 625 672 625 672 625 705 c 0,3,4
 625 775 625 775 576.5 809 c 128,-1,5
 528 843 528 843 416 868 c 1,6,7
 332 882 332 882 291 898 c 1,8,9
 240 852 240 852 240 764 c 0,10,11
 240 708 240 708 289 675.5 c 128,-1,12
 338 643 338 643 443 610 c 1,13,14
 536 587 536 587 574 573 c 1,0,1
666.5 63 m 128,-1,16
 591 -15 591 -15 419 -15 c 128,-1,17
 247 -15 247 -15 121 86 c 1,18,19
 105 97 105 97 105 124 c 1,20,-1
 120 178 l 2,21,22
 126 197 126 197 139.5 206.5 c 128,-1,23
 153 216 153 216 164 209 c 0,24,25
 232 159 232 159 294 137 c 128,-1,26
 356 115 356 115 439 115 c 128,-1,27
 522 115 522 115 562.5 161 c 128,-1,28
 603 207 603 207 603 279.5 c 128,-1,29
 603 352 603 352 559 389 c 128,-1,30
 515 426 515 426 446 443.5 c 128,-1,31
 377 461 377 461 356 467 c 128,-1,32
 335 473 335 473 301 484 c 128,-1,33
 267 495 267 495 248.5 505.5 c 128,-1,34
 230 516 230 516 205.5 532.5 c 128,-1,35
 181 549 181 549 167.5 568 c 0,36,37
 154 586 154 586 140 612 c 0,38,39
 116 658 116 658 116 742 c 0,40,41
 116 873 116 873 200 949 c 1,42,43
 116 1026 116 1026 116 1159 c 0,44,45
 116 1350 116 1350 256 1418 c 0,46,47
 327 1452 327 1452 413.5 1452 c 128,-1,48
 500 1452 500 1452 558 1433.5 c 128,-1,49
 616 1415 616 1415 676 1371 c 1,50,51
 693 1360 693 1360 693 1335 c 1,52,-1
 675 1277 l 2,53,54
 670 1260 670 1260 655.5 1254 c 128,-1,55
 641 1248 641 1248 618.5 1264 c 128,-1,56
 596 1280 596 1280 577 1290 c 0,57,58
 525 1318 525 1318 431.5 1318.5 c 128,-1,59
 338 1319 338 1319 299 1283 c 128,-1,60
 260 1247 260 1247 260 1180.5 c 128,-1,61
 260 1114 260 1114 300 1084.5 c 128,-1,62
 340 1055 340 1055 425 1033 c 128,-1,63
 510 1011 510 1011 542.5 1001 c 128,-1,64
 575 991 575 991 621.5 967.5 c 128,-1,65
 668 944 668 944 688 914 c 0,66,67
 742 837 742 837 742 718.5 c 128,-1,68
 742 600 742 600 665 510 c 1,69,70
 742 424 742 424 742 282.5 c 128,-1,15
 742 141 742 141 666.5 63 c 128,-1,16
EndSplineSet
EndChar

StartChar: dieresis
Encoding: 168 168 105
Width: 317
GlyphClass: 2
Flags: W
LayerCount: 2
Fore
SplineSet
278 0 m 2,0,1
 252 0 252 0 252 57 c 2,2,-1
 252 139 l 2,3,4
 252 196 252 196 278 196 c 2,5,-1
 339 196 l 2,6,7
 365 196 365 196 365 139 c 2,8,-1
 365 57 l 2,9,10
 365 0 365 0 339 0 c 2,11,-1
 278 0 l 2,0,1
52 0 m 2,12,13
 25 0 25 0 25 57 c 2,14,-1
 25 139 l 2,15,16
 25 196 25 196 52 196 c 2,17,-1
 112 196 l 2,18,19
 139 196 139 196 139 139 c 2,20,-1
 139 57 l 2,21,22
 139 0 139 0 112 0 c 2,23,-1
 52 0 l 2,12,13
EndSplineSet
EndChar

StartChar: copyright
Encoding: 169 169 106
Width: 1443
GlyphClass: 2
Flags: W
LayerCount: 2
Fore
SplineSet
998.5 44 m 128,-1,1
 876 -16 876 -16 736.5 -16 c 128,-1,2
 597 -16 597 -16 493 23.5 c 128,-1,3
 389 63 389 63 316 131.5 c 128,-1,4
 243 200 243 200 192.5 293.5 c 128,-1,5
 142 387 142 387 118 495 c 128,-1,6
 94 603 94 603 94 721 c 128,-1,7
 94 839 94 839 118 946.5 c 128,-1,8
 142 1054 142 1054 192.5 1148 c 128,-1,9
 243 1242 243 1242 316 1310 c 0,10,11
 473 1458 473 1458 721 1458 c 0,12,13
 876 1458 876 1458 998.5 1398 c 128,-1,14
 1121 1338 1121 1338 1196 1234.5 c 128,-1,15
 1271 1131 1271 1131 1310 1000.5 c 128,-1,16
 1349 870 1349 870 1349 721 c 128,-1,17
 1349 572 1349 572 1310 441 c 128,-1,18
 1271 310 1271 310 1196 207 c 128,-1,0
 1121 104 1121 104 998.5 44 c 128,-1,1
724 93 m 0,19,20
 832 93 832 93 920 130 c 128,-1,21
 1008 167 1008 167 1065.5 227.5 c 128,-1,22
 1123 288 1123 288 1162 370 c 0,23,24
 1235 523 1235 523 1235 717 c 0,25,26
 1236 1034 1236 1034 1066 1212 c 0,27,28
 939 1346 939 1346 724 1346 c 1,29,30
 416 1346 416 1346 285 1070 c 0,31,32
 213 919 213 919 213 717 c 0,33,34
 214 406 214 406 382 228 c 0,35,36
 510 94 510 94 724 93 c 0,19,20
908 384 m 1,37,38
 823 337 823 337 749.5 337 c 128,-1,39
 676 337 676 337 623 360 c 128,-1,40
 570 383 570 383 527 429 c 0,41,42
 433 530 433 530 433 729 c 0,43,44
 433 1014 433 1014 621 1094 c 0,45,46
 671 1116 671 1116 725 1115 c 0,47,48
 836 1115 836 1115 911 1056 c 1,49,50
 922 1046 922 1046 922 1022.5 c 128,-1,51
 922 999 922 999 913 979 c 128,-1,52
 904 959 904 959 892 959 c 0,53,54
 890 959 890 959 885 962 c 0,55,56
 810 1012 810 1012 747 1012 c 0,57,58
 654 1012 654 1012 600.5 939 c 128,-1,59
 547 866 547 866 547 722.5 c 128,-1,60
 547 579 547 579 604 510.5 c 128,-1,61
 661 442 661 442 748 442 c 0,62,63
 810 442 810 442 845.5 461 c 128,-1,64
 881 480 881 480 882.5 480.5 c 128,-1,65
 884 481 884 481 886 482 c 1,66,-1
 888 482 l 2,67,68
 901 482 901 482 912 460.5 c 128,-1,69
 923 439 923 439 923 415 c 128,-1,70
 923 391 923 391 908 384 c 1,37,38
EndSplineSet
EndChar

StartChar: ordfeminine
Encoding: 170 170 107
Width: 650
GlyphClass: 2
Flags: W
LayerCount: 2
Fore
SplineSet
328 717 m 0,0,1
 384 717 384 717 418 791 c 128,-1,2
 452 865 452 865 452 946.5 c 128,-1,3
 452 1028 452 1028 445 1028 c 0,4,5
 431 1028 431 1028 421 1023 c 1,6,7
 254 981 254 981 254 825 c 0,8,9
 254 717 254 717 328 717 c 0,0,1
411.5 652.5 m 128,-1,11
 371 615 371 615 295.5 615 c 128,-1,12
 220 615 220 615 177 666 c 128,-1,13
 134 717 134 717 134 802.5 c 128,-1,14
 134 888 134 888 156 942.5 c 128,-1,15
 178 997 178 997 211 1024.5 c 128,-1,16
 244 1052 244 1052 284 1070.5 c 0,17,18
 324 1088 324 1088 358 1094 c 0,19,20
 442 1107 442 1107 449 1116 c 1,21,-1
 449 1159 l 2,22,23
 449 1245 449 1245 430.5 1287.5 c 128,-1,24
 412 1330 412 1330 366 1330 c 128,-1,25
 320 1330 320 1330 298 1304 c 128,-1,26
 276 1278 276 1278 266.5 1244.5 c 128,-1,27
 257 1211 257 1211 252.5 1207 c 128,-1,28
 248 1203 248 1203 242 1204 c 2,29,-1
 219 1210 l 1,30,31
 157 1229 157 1229 155 1231 c 128,-1,32
 153 1233 153 1233 152 1249.5 c 128,-1,33
 151 1266 151 1266 155 1279 c 0,34,35
 176 1357 176 1357 226.5 1397.5 c 128,-1,36
 277 1438 277 1438 375 1438 c 128,-1,37
 473 1438 473 1438 526 1363 c 128,-1,38
 579 1288 579 1288 579 1108 c 2,39,-1
 579 664 l 2,40,41
 579 624 579 624 562 624 c 2,42,-1
 537 624 l 2,43,44
 522 624 522 624 516 645.5 c 128,-1,45
 510 667 510 667 495.5 711 c 128,-1,46
 481 755 481 755 478.5 764.5 c 128,-1,47
 476 774 476 774 474 764 c 0,48,10
 452 690 452 690 411.5 652.5 c 128,-1,11
EndSplineSet
EndChar

StartChar: guillemotleft
Encoding: 171 171 108
Width: 829
GlyphClass: 2
Flags: W
LayerCount: 2
Fore
SplineSet
746 390 m 1,0,1
 754 382 754 382 754 304 c 128,-1,2
 754 226 754 226 744 226 c 1,3,4
 743 217 743 217 740 217 c 128,-1,5
 737 217 737 217 736 218 c 0,6,7
 717 238 717 238 680 275 c 0,8,9
 627 328 627 328 570 388 c 1,10,-1
 550 408 l 2,11,12
 533 425 533 425 486 490.5 c 128,-1,13
 439 556 439 556 439 575 c 1,14,15
 430 584 430 584 430 682 c 128,-1,16
 430 780 430 780 445 795 c 1,17,18
 445 804 445 804 540 899 c 128,-1,19
 635 994 635 994 660 1020 c 0,20,21
 698 1059 698 1059 735 1098 c 1,22,-1
 737 1098 l 2,23,24
 748 1098 748 1098 750 1071 c 1,25,26
 754 1071 754 1071 754 991 c 128,-1,27
 754 911 754 911 738 888 c 1,28,29
 738 876 738 876 678.5 820.5 c 128,-1,30
 619 765 619 765 617.5 764 c 128,-1,31
 616 763 616 763 574 715 c 128,-1,32
 532 667 532 667 531 661 c 128,-1,33
 530 655 530 655 531.5 652 c 128,-1,34
 533 649 533 649 550.5 632.5 c 128,-1,35
 568 616 568 616 589.5 596.5 c 128,-1,36
 611 577 611 577 629 560 c 2,37,-1
 647 543 l 2,38,39
 654 536 654 536 685 493 c 0,40,41
 746 410 746 410 746 390 c 1,0,1
405 390 m 1,42,43
 413 382 413 382 413 304 c 128,-1,44
 413 226 413 226 404 226 c 1,45,46
 403 217 403 217 400 217 c 128,-1,47
 397 217 397 217 396 217.5 c 128,-1,48
 395 218 395 218 376 237.5 c 0,49,50
 357 256 357 256 330 284 c 0,51,52
 278 337 278 337 230 388 c 1,53,-1
 210 408 l 2,54,55
 193 425 193 425 145.5 490.5 c 128,-1,56
 98 556 98 556 98 575 c 1,57,58
 90 584 90 584 90 682.5 c 128,-1,59
 90 781 90 781 105 795 c 1,60,61
 105 804 105 804 210.5 910 c 128,-1,62
 316 1016 316 1016 330 1031 c 128,-1,63
 344 1046 344 1046 359 1061.5 c 128,-1,64
 374 1077 374 1077 384 1087.5 c 128,-1,65
 394 1098 394 1098 395 1098 c 2,66,-1
 397 1098 l 2,67,68
 407 1098 407 1098 410 1071 c 1,69,70
 413 1071 413 1071 413 990.5 c 128,-1,71
 413 910 413 910 398 888 c 1,72,73
 398 876 398 876 338 820.5 c 128,-1,74
 278 765 278 765 276.5 764 c 128,-1,75
 275 763 275 763 233 715 c 128,-1,76
 191 667 191 667 190 661.5 c 128,-1,77
 189 656 189 656 191 652.5 c 128,-1,78
 193 649 193 649 210.5 632.5 c 128,-1,79
 228 616 228 616 249 596.5 c 128,-1,80
 270 577 270 577 288 560 c 2,81,-1
 306 543 l 1,82,83
 405 414 405 414 405 390 c 1,42,43
EndSplineSet
EndChar

StartChar: logicalnot
Encoding: 172 172 109
Width: 1106
GlyphClass: 2
Flags: W
LayerCount: 2
Fore
SplineSet
129 688 m 2,0,1
 129 742 129 742 181 742 c 2,2,-1
 915 742 l 2,3,4
 942 742 942 742 959 727 c 128,-1,5
 976 712 976 712 976 684 c 2,6,-1
 976 304 l 2,7,8
 976 239 976 239 925 239 c 2,9,-1
 837 239 l 2,10,11
 785 239 785 239 785 304 c 2,12,-1
 785 543 l 2,13,14
 785 558 785 558 776.5 566.5 c 128,-1,15
 768 575 768 575 756 575 c 2,16,-1
 181 575 l 2,17,18
 129 575 129 575 129 628 c 2,19,-1
 129 688 l 2,0,1
EndSplineSet
EndChar

StartChar: uni00AD
Encoding: 173 173 110
Width: 540
GlyphClass: 2
Flags: W
LayerCount: 2
Fore
SplineSet
98 590 m 2,0,1
 75 590 75 590 75 615 c 2,2,-1
 75 623 l 2,3,4
 75 646 75 646 82.5 648 c 128,-1,5
 90 650 90 650 98 650 c 2,6,-1
 462 650 l 2,7,8
 485 650 485 650 485 625 c 2,9,-1
 485 617 l 2,10,11
 485 594 485 594 477.5 592 c 128,-1,12
 470 590 470 590 462 590 c 2,13,-1
 98 590 l 2,0,1
EndSplineSet
EndChar

StartChar: registered
Encoding: 174 174 111
Width: 1443
GlyphClass: 2
Flags: W
LayerCount: 2
Fore
SplineSet
998.5 44 m 128,-1,1
 876 -16 876 -16 736.5 -16 c 128,-1,2
 597 -16 597 -16 493 23.5 c 128,-1,3
 389 63 389 63 316 131.5 c 128,-1,4
 243 200 243 200 192.5 293.5 c 128,-1,5
 142 387 142 387 118 495 c 128,-1,6
 94 603 94 603 94 721 c 128,-1,7
 94 839 94 839 118 946.5 c 128,-1,8
 142 1054 142 1054 192.5 1148 c 128,-1,9
 243 1242 243 1242 316 1310 c 0,10,11
 473 1458 473 1458 721 1458 c 0,12,13
 876 1458 876 1458 998.5 1398 c 128,-1,14
 1121 1338 1121 1338 1196 1234.5 c 128,-1,15
 1271 1131 1271 1131 1310 1000.5 c 128,-1,16
 1349 870 1349 870 1349 721 c 128,-1,17
 1349 572 1349 572 1310 441 c 128,-1,18
 1271 310 1271 310 1196 207 c 128,-1,0
 1121 104 1121 104 998.5 44 c 128,-1,1
724 93 m 0,19,20
 832 93 832 93 920 130 c 128,-1,21
 1008 167 1008 167 1065.5 227.5 c 128,-1,22
 1123 288 1123 288 1162 370 c 0,23,24
 1235 523 1235 523 1235 717 c 0,25,26
 1236 1034 1236 1034 1066 1212 c 0,27,28
 939 1346 939 1346 724 1346 c 1,29,30
 416 1346 416 1346 285 1070 c 0,31,32
 213 919 213 919 213 717 c 0,33,34
 214 406 214 406 382 228 c 0,35,36
 510 94 510 94 724 93 c 0,19,20
612 771 m 2,37,-1
 769 771 l 2,38,39
 816 771 816 771 836 800 c 128,-1,40
 856 829 856 829 856 898.5 c 128,-1,41
 856 968 856 968 827.5 992.5 c 128,-1,42
 799 1017 799 1017 738 1017 c 2,43,-1
 612 1017 l 2,44,45
 605 1017 605 1017 605 1004 c 2,46,-1
 605 785 l 2,47,48
 605 771 605 771 612 771 c 2,37,-1
520 356 m 2,49,50
 503 356 503 356 503 388 c 2,51,-1
 503 1072 l 2,52,53
 503 1105 503 1105 520 1105 c 2,54,-1
 724 1105 l 2,55,56
 868 1106 868 1106 910 1056 c 0,57,58
 954 1004 954 1004 955 894 c 0,59,60
 955 745 955 745 863 722 c 1,61,-1
 862 718 l 1,62,-1
 863 717 l 1,63,64
 956 680 956 680 961 512 c 1,65,66
 964 452 964 452 964 404 c 128,-1,67
 964 356 964 356 953 356 c 2,68,-1
 880 356 l 2,69,70
 864 356 864 356 863.5 395 c 128,-1,71
 863 434 863 434 855.5 516.5 c 128,-1,72
 848 599 848 599 843 608 c 1,73,74
 835 652 835 652 812 667 c 128,-1,75
 789 682 789 682 745 682 c 2,76,-1
 612 682 l 2,77,78
 605 682 605 682 605 667 c 2,79,-1
 605 388 l 2,80,81
 605 356 605 356 589 356 c 2,82,-1
 520 356 l 2,49,50
EndSplineSet
EndChar

StartChar: macron
Encoding: 175 175 112
Width: 890
GlyphClass: 2
Flags: W
LayerCount: 2
Fore
SplineSet
274 707 m 2,0,1
 238 707 238 707 238 747 c 2,2,-1
 238 778 l 2,3,4
 238 819 238 819 274 819 c 2,5,-1
 632 819 l 2,6,7
 668 819 668 819 668 779 c 2,8,-1
 668 748 l 2,9,10
 668 707 668 707 632 707 c 2,11,-1
 274 707 l 2,0,1
EndSplineSet
EndChar

StartChar: degree
Encoding: 176 176 113
Width: 1268
GlyphClass: 2
Flags: W
LayerCount: 2
Fore
SplineSet
717.5 1255 m 128,-1,1
 684 1245 684 1245 650.5 1245 c 128,-1,2
 617 1245 617 1245 583 1255 c 0,3,4
 548 1264 548 1264 516 1286 c 0,5,6
 444 1334 444 1334 444 1441 c 0,7,8
 444 1590 444 1590 579 1628 c 0,9,10
 613 1638 613 1638 646.5 1637.5 c 128,-1,11
 680 1637 680 1637 707 1631.5 c 128,-1,12
 734 1626 734 1626 761.5 1612 c 0,13,14
 790 1598 790 1598 810 1576 c 0,15,16
 856 1528 856 1528 855.5 1458 c 128,-1,17
 855 1388 855 1388 835 1348 c 128,-1,18
 815 1308 815 1308 783 1286.5 c 128,-1,0
 751 1265 751 1265 717.5 1255 c 128,-1,1
566 1348.5 m 128,-1,20
 601 1318 601 1318 650 1318 c 128,-1,21
 699 1318 699 1318 733 1348.5 c 128,-1,22
 767 1379 767 1379 767 1442.5 c 128,-1,23
 767 1506 767 1506 732.5 1534.5 c 128,-1,24
 698 1563 698 1563 649.5 1563 c 128,-1,25
 601 1563 601 1563 566 1534.5 c 128,-1,26
 531 1506 531 1506 531 1442.5 c 128,-1,19
 531 1379 531 1379 566 1348.5 c 128,-1,20
EndSplineSet
EndChar

StartChar: plusminus
Encoding: 177 177 114
Width: 802
GlyphClass: 2
Flags: W
LayerCount: 2
Fore
SplineSet
695 192 m 2,0,1
 695 150 695 150 664 150 c 2,2,-1
 141 150 l 2,3,4
 110 150 110 150 110 192 c 2,5,-1
 110 225 l 2,6,7
 110 251 110 251 118 258.5 c 128,-1,8
 126 266 126 266 141 266 c 2,9,-1
 664 266 l 2,10,11
 679 266 679 266 687 258.5 c 128,-1,12
 695 251 695 251 695 225 c 2,13,-1
 695 192 l 2,0,1
489 669 m 2,14,15
 472 669 472 669 472 647 c 2,16,-1
 472 440 l 2,17,18
 472 412 472 412 464.5 403.5 c 128,-1,19
 457 395 457 395 441 395 c 2,20,-1
 369 395 l 2,21,22
 352 395 352 395 344 403.5 c 128,-1,23
 336 412 336 412 336 440 c 2,24,-1
 336 647 l 2,25,26
 336 669 336 669 321 669 c 2,27,-1
 142 669 l 2,28,29
 111 669 111 669 111 710 c 2,30,-1
 111 743 l 2,31,32
 111 770 111 770 118.5 777.5 c 128,-1,33
 126 785 126 785 142 785 c 2,34,-1
 321 785 l 2,35,36
 336 785 336 785 336 807 c 2,37,-1
 336 1004 l 2,38,39
 336 1032 336 1032 344 1040.5 c 128,-1,40
 352 1049 352 1049 369 1049 c 2,41,-1
 441 1049 l 2,42,43
 457 1049 457 1049 464.5 1040.5 c 128,-1,44
 472 1032 472 1032 472 1004 c 2,45,-1
 472 807 l 2,46,47
 472 785 472 785 489 785 c 2,48,-1
 665 785 l 2,49,50
 696 785 696 785 696 743 c 2,51,-1
 696 710 l 2,52,53
 696 669 696 669 665 669 c 2,54,-1
 489 669 l 2,14,15
EndSplineSet
EndChar

StartChar: acute
Encoding: 180 180 115
Width: 597
GlyphClass: 2
Flags: W
LayerCount: 2
Fore
SplineSet
363 1169 m 2,0,1
 348 1168 348 1168 348 1188 c 0,2,3
 348 1208 348 1208 350 1236 c 2,4,-1
 370 1559 l 2,5,6
 374 1614 374 1614 396 1614 c 2,7,-1
 477 1614 l 2,8,9
 487 1614 487 1614 487 1594 c 0,10,11
 487 1574 487 1574 483 1549 c 2,12,-1
 420 1208 l 2,13,14
 413 1169 413 1169 401 1169 c 2,15,-1
 363 1169 l 2,0,1
EndSplineSet
EndChar

StartChar: paragraph
Encoding: 182 182 116
Width: 1239
GlyphClass: 2
Flags: W
LayerCount: 2
Fore
SplineSet
878 767 m 2,0,1
 878 788 878 788 859 788 c 2,2,-1
 738 788 l 1,3,-1
 738 73 l 2,4,5
 738 -1 738 -1 684 -1 c 2,6,-1
 643 -1 l 2,7,8
 589 -1 589 -1 589 73 c 2,9,-1
 589 788 l 1,10,-1
 565 788 l 2,11,12
 455 788 455 788 383 824 c 0,13,14
 312 860 312 860 274 896 c 0,15,16
 190 978 190 978 189 1116 c 0,17,18
 189 1288 189 1288 302 1363 c 128,-1,19
 415 1438 415 1438 674 1438 c 0,20,21
 856 1438 856 1438 971 1413 c 0,22,23
 1001 1407 1001 1407 1010.5 1389 c 128,-1,24
 1020 1371 1020 1371 1020 1335 c 2,25,-1
 1020 73 l 2,26,27
 1020 -1 1020 -1 967 -1 c 2,28,-1
 931 -1 l 2,29,30
 878 -1 878 -1 878 73 c 2,31,-1
 878 767 l 2,0,1
EndSplineSet
EndChar

StartChar: cedilla
Encoding: 184 184 117
Width: 551
GlyphClass: 2
Flags: W
LayerCount: 2
Fore
SplineSet
316 -511 m 0,0,1
 382 -511 382 -511 382 -367 c 0,2,3
 382 -308 382 -308 359.5 -255.5 c 128,-1,4
 337 -203 337 -203 309 -203 c 2,5,-1
 279 -203 l 1,6,7
 267 -204 267 -204 267 -193 c 2,8,-1
 267 -133 l 2,9,10
 267 -116 267 -116 279 -116 c 2,11,-1
 343 -116 l 2,12,13
 403 -116 403 -116 442.5 -186.5 c 128,-1,14
 482 -257 482 -257 482 -364 c 0,15,16
 482 -591 482 -591 310 -591 c 0,17,18
 239 -591 239 -591 194 -547 c 128,-1,19
 149 -503 149 -503 149 -418 c 128,-1,20
 149 -333 149 -333 179 -333 c 2,21,-1
 230 -333 l 2,22,23
 253 -333 253 -333 253 -367 c 1,24,-1
 249 -418 l 1,25,26
 249 -459 249 -459 266 -485 c 128,-1,27
 283 -511 283 -511 316 -511 c 0,0,1
EndSplineSet
EndChar

StartChar: ordmasculine
Encoding: 186 186 118
Width: 691
GlyphClass: 2
Flags: W
LayerCount: 2
Fore
SplineSet
450.5 620.5 m 128,-1,1
 423 615 423 615 391 615 c 128,-1,2
 359 615 359 615 338.5 617.5 c 128,-1,3
 318 620 318 620 291.5 629.5 c 128,-1,4
 265 639 265 639 245.5 656 c 128,-1,5
 226 673 226 673 205.5 704 c 128,-1,6
 185 735 185 735 172 778 c 0,7,8
 142 877 142 877 142 1008 c 128,-1,9
 142 1139 142 1139 158.5 1218.5 c 128,-1,10
 175 1298 175 1298 198 1339.5 c 128,-1,11
 221 1381 221 1381 257 1404.5 c 128,-1,12
 293 1428 293 1428 320.5 1433 c 128,-1,13
 348 1438 348 1438 379.5 1438 c 128,-1,14
 411 1438 411 1438 430.5 1435.5 c 128,-1,15
 450 1433 450 1433 476.5 1424 c 128,-1,16
 503 1415 503 1415 522.5 1398.5 c 128,-1,17
 542 1382 542 1382 562.5 1351.5 c 0,18,19
 583 1320 583 1320 596 1278 c 0,20,21
 626 1180 626 1180 626 1049 c 128,-1,22
 626 918 626 918 610 838 c 128,-1,23
 594 758 594 758 571.5 716 c 128,-1,24
 549 674 549 674 513.5 650 c 128,-1,0
 478 626 478 626 450.5 620.5 c 128,-1,1
342 735 m 0,25,26
 359 724 359 724 384.5 724 c 128,-1,27
 410 724 410 724 427 735 c 128,-1,28
 444 746 444 746 458 777 c 0,29,30
 486 838 486 838 486.5 995 c 128,-1,31
 487 1152 487 1152 473 1220.5 c 128,-1,32
 459 1289 459 1289 439 1309 c 128,-1,33
 419 1329 419 1329 385 1329 c 0,34,35
 350 1329 350 1329 330 1309 c 0,36,37
 282 1262 282 1262 282 1029 c 0,38,39
 282 774 282 774 342 735 c 0,25,26
EndSplineSet
EndChar

StartChar: guillemotright
Encoding: 187 187 119
Width: 829
GlyphClass: 2
Flags: W
LayerCount: 2
Fore
SplineSet
443 215 m 0,0,1
 430 215 430 215 430 255 c 2,2,-1
 430 358 l 2,3,4
 430 422 430 422 454 450 c 1,5,-1
 650 632 l 2,6,7
 653 634 653 634 653 646 c 0,8,9
 653 658 653 658 650 662 c 2,10,-1
 454 854 l 1,11,12
 430 882 430 882 430 948 c 2,13,-1
 430 1057 l 2,14,15
 430 1101 430 1101 444 1101 c 0,16,17
 448 1101 448 1101 453 1094 c 1,18,-1
 730 807 l 2,19,20
 754 782 754 782 754 712 c 2,21,-1
 754 587 l 2,22,23
 754 516 754 516 730 493 c 2,24,-1
 453 222 l 2,25,26
 447 215 447 215 443 215 c 0,0,1
103 214 m 0,27,28
 90 214 90 214 90 255 c 2,29,-1
 90 358 l 2,30,31
 90 423 90 423 114 450 c 1,32,-1
 309 632 l 2,33,34
 313 636 313 636 313 647 c 128,-1,35
 313 658 313 658 309 662 c 2,36,-1
 113 854 l 1,37,38
 90 883 90 883 90 948 c 2,39,-1
 90 1057 l 2,40,41
 90 1101 90 1101 103 1101 c 0,42,43
 106 1101 106 1101 113 1094 c 2,44,-1
 390 807 l 2,45,46
 413 783 413 783 413 712 c 2,47,-1
 413 587 l 2,48,49
 413 515 413 515 390 493 c 2,50,-1
 113 222 l 2,51,52
 105 214 105 214 103 214 c 0,27,28
EndSplineSet
EndChar

StartChar: onequarter
Encoding: 188 188 120
Width: 1807
GlyphClass: 2
Flags: W
LayerCount: 2
Fore
SplineSet
379 288 m 2,0,1
 359 288 359 288 359 342 c 2,2,-1
 359 1226 l 2,3,4
 359 1252 359 1252 349 1250 c 0,5,6
 286 1234 286 1234 285 1234 c 0,7,8
 267 1232 267 1232 267 1269 c 2,9,-1
 267 1346 l 2,10,11
 267 1379 267 1379 286 1382 c 1,12,-1
 498 1436 l 2,13,14
 501 1437 501 1437 505 1437 c 0,15,16
 522 1437 522 1437 522 1399 c 2,17,-1
 522 342 l 2,18,19
 522 288 522 288 502 288 c 2,20,-1
 379 288 l 2,0,1
721 144 m 1,21,-1
 963 1579 l 1,22,23
 966 1606 966 1606 978 1606 c 2,24,-1
 1049 1606 l 2,25,26
 1055 1606 1055 1606 1055 1588 c 1,27,-1
 1056 1584 l 1,28,29
 1056 1579 1056 1579 1055 1579 c 2,30,-1
 814 150 l 1,31,32
 811 123 811 123 799 123 c 2,33,-1
 727 124 l 2,34,35
 721 124 721 124 721 144 c 1,21,-1
1550 287 m 2,36,37
 1520 287 1520 287 1520 336 c 2,38,-1
 1520 516 l 1,39,-1
 1202 516 l 2,40,41
 1185 516 1185 516 1173.5 528 c 128,-1,42
 1162 540 1162 540 1162 553 c 128,-1,43
 1162 566 1162 566 1163 570 c 2,44,-1
 1278 1384 l 2,45,46
 1283 1414 1283 1414 1288.5 1426 c 128,-1,47
 1294 1438 1294 1438 1308 1438 c 2,48,-1
 1374 1438 l 2,49,50
 1402 1438 1402 1438 1402 1398 c 0,51,52
 1402 1389 1402 1389 1401 1384 c 2,53,-1
 1322 679 l 2,54,55
 1321 673 1321 673 1325.5 664.5 c 128,-1,56
 1330 656 1330 656 1337 656 c 2,57,-1
 1520 656 l 1,58,-1
 1520 1390 l 2,59,60
 1520 1438 1520 1438 1550 1438 c 2,61,-1
 1627 1438 l 2,62,63
 1657 1438 1657 1438 1657 1390 c 2,64,-1
 1657 656 l 1,65,-1
 1761 656 l 2,66,67
 1796 656 1796 656 1796 611 c 2,68,-1
 1796 561 l 2,69,70
 1796 516 1796 516 1761 516 c 2,71,-1
 1657 516 l 1,72,-1
 1657 336 l 2,73,74
 1657 287 1657 287 1627 287 c 2,75,-1
 1550 287 l 2,36,37
EndSplineSet
EndChar

StartChar: onehalf
Encoding: 189 189 121
Width: 1653
GlyphClass: 2
Flags: W
LayerCount: 2
Fore
SplineSet
1139 345 m 1,0,-1
 1140 393 l 1,1,2
 1153 611 1153 611 1261 790 c 0,3,4
 1305 864 1305 864 1348 928 c 0,5,6
 1450 1081 1450 1081 1450 1164 c 128,-1,7
 1450 1247 1450 1247 1413.5 1284 c 128,-1,8
 1377 1321 1377 1321 1330 1321 c 128,-1,9
 1283 1321 1283 1321 1254.5 1312.5 c 128,-1,10
 1226 1304 1226 1304 1199.5 1288.5 c 128,-1,11
 1173 1273 1173 1273 1167 1271 c 1,12,13
 1152 1257 1152 1257 1150 1281 c 1,14,15
 1136 1341 1136 1341 1136 1363 c 128,-1,16
 1136 1385 1136 1385 1143 1395 c 1,17,18
 1227 1452 1227 1452 1345 1452 c 0,19,20
 1606 1452 1606 1452 1606 1201 c 0,21,22
 1606 1074 1606 1074 1518 935 c 0,23,24
 1480 874 1480 874 1440 810 c 0,25,26
 1336 644 1336 644 1299 454 c 0,27,28
 1298 452 1298 452 1298 429 c 128,-1,29
 1298 406 1298 406 1309 406 c 2,30,-1
 1560 406 l 2,31,32
 1575 406 1575 406 1575 366 c 2,33,-1
 1575 327 l 2,34,35
 1575 290 1575 290 1560 290 c 2,36,-1
 1160 290 l 2,37,38
 1139 290 1139 290 1139 345 c 1,0,-1
679 145 m 1,39,-1
 921 1580 l 1,40,41
 924 1607 924 1607 936 1607 c 2,42,-1
 1007 1607 l 2,43,44
 1013 1607 1013 1607 1013 1595 c 128,-1,45
 1013 1583 1013 1583 1012 1580 c 2,46,-1
 772 151 l 1,47,48
 769 124 769 124 757 124 c 2,49,-1
 685 125 l 2,50,51
 679 125 679 125 679 145 c 1,39,-1
358 289 m 2,52,53
 338 289 338 289 338 343 c 2,54,-1
 338 1227 l 2,55,56
 338 1253 338 1253 328 1251 c 0,57,58
 265 1235 265 1235 264 1235 c 0,59,60
 246 1233 246 1233 246 1270 c 2,61,-1
 246 1347 l 2,62,63
 246 1380 246 1380 265 1383 c 1,64,-1
 476 1437 l 2,65,66
 479 1438 479 1438 484 1438 c 0,67,68
 501 1438 501 1438 501 1400 c 2,69,-1
 501 343 l 2,70,71
 501 289 501 289 480 289 c 2,72,-1
 358 289 l 2,52,53
EndSplineSet
EndChar

StartChar: threequarters
Encoding: 190 190 122
Width: 1916
GlyphClass: 2
Flags: W
LayerCount: 2
Fore
SplineSet
541 872 m 1,0,1
 704 836 704 836 704 578 c 0,2,3
 704 346 704 346 536 291 c 0,4,5
 490 276 490 276 437 276 c 0,6,7
 323 276 323 276 275 316 c 0,8,9
 264 324 264 324 264 373.5 c 128,-1,10
 264 423 264 423 269 423 c 1,11,12
 270 454 270 454 281 443 c 1,13,-1
 302 431 l 2,14,15
 306 429 306 429 317 424 c 128,-1,16
 328 419 328 419 337 416.5 c 128,-1,17
 346 414 346 414 358 411 c 0,18,19
 383 405 383 405 417 405 c 0,20,21
 566 405 566 405 566 606 c 1,22,23
 565 699 565 699 529.5 752 c 128,-1,24
 494 805 494 805 426 806 c 1,25,-1
 397 806 l 2,26,27
 383 806 383 806 379 812 c 128,-1,28
 375 818 375 818 375 835 c 2,29,-1
 375 921 l 2,30,31
 375 940 375 940 397 940 c 2,32,-1
 425 940 l 1,33,34
 558 943 558 943 558 1130 c 0,35,36
 558 1234 558 1234 526 1278 c 128,-1,37
 494 1322 494 1322 418.5 1322 c 128,-1,38
 343 1322 343 1322 279 1284 c 1,39,40
 268 1274 268 1274 268 1305 c 1,41,42
 267 1305 267 1305 264 1332 c 128,-1,43
 261 1359 261 1359 261 1365 c 0,44,45
 261 1400 261 1400 273 1410 c 1,46,47
 338 1451 338 1451 451 1451 c 128,-1,48
 564 1451 564 1451 631 1377 c 128,-1,49
 698 1303 698 1303 698 1137 c 0,50,51
 698 912 698 912 541 872 c 1,0,1
851 124 m 2,52,53
 845 124 845 124 845 144 c 2,54,-1
 845 150 l 1,55,-1
 1087 1579 l 1,56,57
 1090 1606 1090 1606 1101 1606 c 2,58,-1
 1173 1606 l 2,59,60
 1179 1606 1179 1606 1179 1594 c 128,-1,61
 1179 1582 1179 1582 1178 1579 c 2,62,-1
 937 150 l 1,63,64
 934 123 934 123 923 123 c 2,65,-1
 851 124 l 2,52,53
1482 1438 m 2,66,67
 1511 1438 1511 1438 1511 1398 c 0,68,69
 1511 1394 1511 1394 1509 1384 c 2,70,-1
 1431 679 l 2,71,72
 1430 673 1430 673 1434 664.5 c 128,-1,73
 1438 656 1438 656 1445 656 c 2,74,-1
 1629 656 l 1,75,-1
 1629 1390 l 2,76,77
 1629 1438 1629 1438 1658 1438 c 2,78,-1
 1736 1438 l 2,79,80
 1765 1438 1765 1438 1765 1390 c 2,81,-1
 1765 656 l 1,82,-1
 1869 656 l 2,83,84
 1905 656 1905 656 1905 611 c 2,85,-1
 1905 561 l 2,86,87
 1905 516 1905 516 1869 516 c 2,88,-1
 1765 516 l 1,89,-1
 1765 336 l 2,90,91
 1765 287 1765 287 1736 287 c 2,92,-1
 1658 287 l 2,93,94
 1629 287 1629 287 1629 336 c 2,95,-1
 1629 516 l 1,96,-1
 1310 516 l 2,97,98
 1293 516 1293 516 1282 528 c 128,-1,99
 1271 540 1271 540 1271 553 c 128,-1,100
 1271 566 1271 566 1272 570 c 2,101,-1
 1386 1384 l 2,102,103
 1391 1413 1391 1413 1397 1425.5 c 128,-1,104
 1403 1438 1403 1438 1417 1438 c 2,105,-1
 1482 1438 l 2,66,67
EndSplineSet
EndChar

StartChar: AE
Encoding: 198 198 130
Width: 1027
GlyphClass: 2
Flags: W
LayerCount: 2
Fore
SplineSet
348 443 m 2,0,-1
 520 443 l 2,1,2
 526 443 526 443 526 465 c 2,3,-1
 526 1256 l 2,4,5
 526 1268 526 1268 522.5 1268 c 128,-1,6
 519 1268 519 1268 519 1258 c 1,7,-1
 335 471 l 2,8,9
 333 464 333 464 333 458 c 0,10,11
 333 443 333 443 348 443 c 2,0,-1
972 40 m 2,12,13
 972 0 972 0 946 0 c 2,14,-1
 551 0 l 2,15,16
 538 0 538 0 532 7.5 c 128,-1,17
 526 15 526 15 526 42 c 2,18,-1
 526 318 l 1,19,-1
 309 318 l 2,20,21
 303 318 303 318 298 295 c 2,22,-1
 235 42 l 1,23,24
 228 0 228 0 204 0 c 2,25,-1
 67 0 l 2,26,27
 53 0 53 0 53 29 c 1,28,-1
 52 46 l 2,29,30
 52 57 52 57 55 63 c 1,31,-1
 389 1388 l 1,32,33
 399 1438 399 1438 428 1438 c 2,34,-1
 929 1438 l 2,35,36
 945 1438 945 1438 949.5 1427 c 128,-1,37
 954 1416 954 1416 954 1398 c 2,38,-1
 954 1319 l 2,39,40
 954 1279 954 1279 929 1279 c 2,41,-1
 735 1279 l 2,42,43
 723 1279 723 1279 723 1246 c 2,44,-1
 723 842 l 2,45,46
 723 815 723 815 733 815 c 2,47,-1
 889 815 l 2,48,49
 914 815 914 815 914 769 c 2,50,-1
 914 692 l 2,51,52
 914 646 914 646 889 646 c 2,53,-1
 734 646 l 2,54,55
 723 646 723 646 723 616 c 2,56,-1
 723 159 l 1,57,-1
 946 159 l 2,58,59
 963 159 963 159 967.5 148 c 128,-1,60
 972 137 972 137 972 119 c 2,61,-1
 972 40 l 2,12,13
EndSplineSet
EndChar

StartChar: Eth
Encoding: 208 208 140
Width: 935
GlyphClass: 2
Flags: W
LayerCount: 2
Fore
SplineSet
116 1398 m 2,0,1
 116 1438 116 1438 141 1438 c 2,2,-1
 485 1438 l 2,3,4
 760 1438 760 1438 824 1068 c 0,5,6
 848 928 848 928 848.5 757.5 c 128,-1,7
 849 587 849 587 840 478.5 c 128,-1,8
 831 370 831 370 816.5 292.5 c 128,-1,9
 802 215 802 215 775 161.5 c 128,-1,10
 748 108 748 108 719 76.5 c 128,-1,11
 690 45 690 45 646 28 c 0,12,13
 574 0 574 0 458 0 c 2,14,-1
 141 0 l 2,15,16
 128 0 128 0 122 8 c 128,-1,17
 116 16 116 16 116 44 c 2,18,-1
 116 655 l 1,19,-1
 66 655 l 2,20,21
 40 655 40 655 28.5 665.5 c 128,-1,22
 17 676 17 676 17 703 c 2,23,-1
 17 745 l 2,24,25
 17 773 17 773 28.5 783.5 c 128,-1,26
 40 794 40 794 66 794 c 2,27,-1
 116 794 l 1,28,-1
 116 1398 l 2,0,1
459 697 m 1,29,30
 457 655 457 655 410 655 c 2,31,-1
 313 655 l 1,32,-1
 313 181 l 2,33,34
 313 159 313 159 326 159 c 2,35,-1
 449 159 l 2,36,37
 526 159 526 159 568 205 c 0,38,39
 651 296 651 296 651 726 c 0,40,41
 651 1134 651 1134 563 1233 c 0,42,43
 522 1279 522 1279 456 1279 c 2,44,-1
 325 1279 l 2,45,46
 313 1279 313 1279 313 1257 c 2,47,-1
 313 794 l 1,48,-1
 410 794 l 2,49,50
 436 794 436 794 447.5 783.5 c 128,-1,51
 459 773 459 773 459 746 c 2,52,-1
 459 697 l 1,29,30
EndSplineSet
EndChar

StartChar: multiply
Encoding: 215 215 147
Width: 801
GlyphClass: 2
Flags: W
LayerCount: 2
Fore
SplineSet
197 342 m 2,0,-1
 147 393 l 2,1,2
 136 404 136 404 136 415 c 0,3,4
 136 426 136 426 157 447 c 2,5,-1
 308 598 l 1,6,-1
 157 750 l 2,7,8
 136 771 136 771 136 782 c 0,9,10
 136 793 136 793 148 805 c 2,11,-1
 198 856 l 2,12,13
 208 866 208 866 220 866 c 0,14,15
 232 866 232 866 252 846 c 2,16,-1
 404 694 l 1,17,-1
 555 845 l 2,18,19
 576 866 576 866 587 866 c 0,20,21
 598 866 598 866 609 855 c 2,22,-1
 660 805 l 2,23,24
 671 794 671 794 671 782 c 0,25,26
 671 770 671 770 651 750 c 2,27,-1
 500 598 l 1,28,-1
 651 447 l 2,29,30
 672 426 672 426 672 415 c 0,31,32
 672 404 672 404 661 393 c 2,33,-1
 610 342 l 2,34,35
 599 331 599 331 587 331 c 0,36,37
 575 331 575 331 555 351 c 2,38,-1
 404 503 l 1,39,-1
 252 351 l 2,40,41
 232 331 232 331 220 331 c 0,42,43
 208 331 208 331 197 342 c 2,0,-1
EndSplineSet
EndChar

StartChar: Oslash
Encoding: 216 216 148
Width: 924
GlyphClass: 2
Flags: W
LayerCount: 2
Fore
SplineSet
461 145 m 0,0,1
 531 144 531 144 568 192 c 0,2,3
 639 283 639 283 639 681 c 128,-1,4
 639 1079 639 1079 586 1184 c 1,5,-1
 440 147 l 1,6,7
 454 145 454 145 461 145 c 0,0,1
354 225 m 1,8,-1
 505 1291 l 1,9,10
 483 1296 483 1296 462 1296 c 0,11,12
 392 1296 392 1296 354.5 1246 c 128,-1,13
 317 1196 317 1196 301 1075.5 c 128,-1,14
 285 955 285 955 285 734 c 128,-1,15
 285 513 285 513 301 395.5 c 128,-1,16
 317 278 317 278 354 225 c 1,8,-1
304 -205 m 2,17,18
 301 -205 301 -205 299 -191 c 128,-1,19
 297 -177 297 -177 298 -172 c 2,20,-1
 323 2 l 1,21,22
 238 28 238 28 188 104 c 0,23,24
 86 256 86 256 87 728 c 0,25,26
 88 1239 88 1239 220 1373 c 0,27,28
 268 1421 268 1421 324.5 1440 c 128,-1,29
 381 1459 381 1459 438 1459 c 128,-1,30
 495 1459 495 1459 528 1454 c 1,31,-1
 551 1614 l 2,32,33
 556 1647 556 1647 566 1647 c 2,34,-1
 641 1647 l 2,35,36
 645 1647 645 1647 647 1636 c 128,-1,37
 649 1625 649 1625 647 1614 c 2,38,-1
 621 1433 l 1,39,40
 735 1385 735 1385 786 1224.5 c 128,-1,41
 837 1064 837 1064 837 728 c 0,42,43
 837 370 837 370 782 198 c 0,44,45
 732 42 732 42 604 2 c 0,46,47
 546 -16 546 -16 496 -16 c 128,-1,48
 446 -16 446 -16 416 -14 c 1,49,-1
 394 -173 l 1,50,51
 391 -206 391 -206 379 -206 c 2,52,-1
 304 -205 l 2,17,18
EndSplineSet
EndChar

StartChar: Thorn
Encoding: 222 222 154
Width: 866
GlyphClass: 2
Flags: W
LayerCount: 2
Fore
SplineSet
323 502 m 2,0,-1
 443 502 l 2,1,2
 496 502 496 502 524 509.5 c 0,3,4
 552 518 552 518 574 546 c 0,5,6
 610 593 610 593 610 773 c 0,7,8
 610 948 610 948 571 1002 c 0,9,10
 542 1042 542 1042 514 1048 c 0,11,12
 478 1057 478 1057 424 1057 c 2,13,-1
 323 1057 l 2,14,15
 313 1057 313 1057 313 1037 c 2,16,-1
 313 521 l 2,17,18
 313 502 313 502 323 502 c 2,0,-1
141 0 m 2,19,20
 116 0 116 0 116 52 c 2,21,-1
 116 1385 l 2,22,23
 116 1437 116 1437 141 1437 c 2,24,-1
 288 1437 l 2,25,26
 313 1437 313 1437 313 1385 c 2,27,-1
 313 1216 l 1,28,-1
 435 1216 l 2,29,30
 558 1216 558 1216 598 1201 c 128,-1,31
 638 1186 638 1186 666 1170 c 128,-1,32
 694 1154 694 1154 713.5 1131.5 c 128,-1,33
 733 1109 733 1109 752 1075.5 c 128,-1,34
 771 1042 771 1042 782 1000 c 0,35,36
 807 903 807 903 807 797.5 c 128,-1,37
 807 692 807 692 797 626.5 c 128,-1,38
 787 561 787 561 770.5 516 c 128,-1,39
 754 471 754 471 727.5 439 c 128,-1,40
 701 407 701 407 674 388.5 c 0,41,42
 648 370 648 370 610 360 c 0,43,44
 551 344 551 344 466 343 c 2,45,-1
 324 343 l 2,46,47
 313 343 313 343 313 324 c 2,48,-1
 313 52 l 2,49,50
 313 0 313 0 288 0 c 2,51,-1
 141 0 l 2,19,20
EndSplineSet
EndChar

StartChar: germandbls
Encoding: 223 223 155
Width: 913
GlyphClass: 2
Flags: W
LayerCount: 2
Fore
SplineSet
311 50 m 2,0,1
 311 0 311 0 290 0 c 2,2,-1
 159 0 l 2,3,4
 145 0 145 0 138.5 8 c 128,-1,5
 132 16 132 16 132 44 c 2,6,-1
 132 1042 l 2,7,8
 132 1336 132 1336 334 1414 c 0,9,10
 396 1438 396 1438 477 1438 c 0,11,12
 607 1438 607 1438 684.5 1345.5 c 128,-1,13
 762 1253 762 1253 762 1061 c 0,14,15
 762 934 762 934 746 898 c 0,16,17
 715 831 715 831 663 802 c 1,18,19
 654 792 654 792 654.5 789 c 128,-1,20
 655 786 655 786 664 777 c 1,21,22
 733 748 733 748 772.5 654 c 128,-1,23
 812 560 812 560 812 434 c 0,24,25
 812 0 812 0 432 0 c 1,26,-1
 432 150 l 1,27,28
 532 150 532 150 584.5 223.5 c 128,-1,29
 637 297 637 297 637 435 c 0,30,31
 637 704 637 704 438 704 c 1,32,-1
 438 853 l 1,33,34
 525 853 525 853 562 903 c 128,-1,35
 599 953 599 953 599 1066.5 c 128,-1,36
 599 1180 599 1180 569 1231 c 128,-1,37
 539 1282 539 1282 467 1282 c 0,38,39
 374 1282 374 1282 334 1212 c 0,40,41
 310 1171 310 1171 311 1082 c 2,42,-1
 311 50 l 2,0,1
EndSplineSet
EndChar

StartChar: ae
Encoding: 230 230 162
Width: 1062
GlyphClass: 2
Flags: W
LayerCount: 2
Fore
SplineSet
626 572 m 2,0,-1
 842 572 l 2,1,2
 845 572 845 572 845 597 c 0,3,4
 837 883 837 883 736 883 c 0,5,6
 689 883 689 883 657.5 816.5 c 128,-1,7
 626 750 626 750 624 661 c 0,8,9
 623 631 623 631 623 612 c 0,10,11
 623 572 623 572 626 572 c 2,0,-1
312 111 m 0,12,13
 381 111 381 111 421.5 205 c 128,-1,14
 462 299 462 299 462 401.5 c 128,-1,15
 462 504 462 504 453 504 c 0,16,17
 435 504 435 504 423 498 c 1,18,19
 226 442 226 442 226 250 c 0,20,21
 226 111 226 111 312 111 c 0,12,13
534 223 m 1,22,23
 463 -12 463 -12 282 -12 c 1,24,25
 183 -12 183 -12 130.5 51.5 c 128,-1,26
 78 115 78 115 78 222 c 128,-1,27
 78 329 78 329 104.5 397 c 128,-1,28
 131 465 131 465 171 500 c 128,-1,29
 211 535 211 535 259 558 c 0,30,31
 306 581 306 581 348 588 c 0,32,33
 451 605 451 605 458 615 c 1,34,-1
 458 662 l 2,35,36
 458 831 458 831 408 867 c 0,37,38
 388 882 388 882 356 882 c 0,39,40
 267 882 267 882 237 750 c 1,41,42
 229 722 229 722 213 724 c 1,43,44
 110 750 110 750 108 757 c 1,45,46
 101 761 101 761 101 778 c 0,47,48
 102 797 102 797 110 834 c 0,49,50
 126 903 126 903 192 960 c 128,-1,51
 258 1017 258 1017 356 1017 c 0,52,53
 510 1017 510 1017 555 855 c 1,54,55
 580 935 580 935 630.5 976.5 c 128,-1,56
 681 1018 681 1018 736 1018 c 128,-1,57
 791 1018 791 1018 832 995 c 128,-1,58
 873 972 873 972 906 920 c 0,59,60
 974 812 974 812 978 550 c 1,61,62
 978 466 978 466 953 466 c 2,63,-1
 630 466 l 2,64,65
 622 466 622 466 622 441 c 0,66,67
 622 125 622 125 755 125 c 0,68,69
 842 126 842 126 856 246 c 0,70,71
 858 260 858 260 861 285 c 128,-1,72
 864 310 864 310 878 310 c 2,73,-1
 947 310 l 2,74,75
 970 310 970 310 970 258 c 2,76,-1
 970 242 l 2,77,78
 970 128 970 128 917.5 58.5 c 128,-1,79
 865 -11 865 -11 749 -11 c 0,80,81
 673 -11 673 -11 616.5 49.5 c 128,-1,82
 560 110 560 110 534 223 c 1,22,23
EndSplineSet
EndChar

StartChar: eth
Encoding: 240 240 172
Width: 805
GlyphClass: 2
Flags: W
LayerCount: 2
Fore
SplineSet
400 113 m 0,0,1
 520 114 520 114 548 298 c 0,2,3
 560 372 560 372 560 488 c 128,-1,4
 560 604 560 604 517.5 683.5 c 128,-1,5
 475 763 475 763 398 763 c 0,6,7
 241 763 241 763 241 456 c 0,8,9
 241 272 241 272 279.5 192.5 c 128,-1,10
 318 113 318 113 400 113 c 0,0,1
397 -18 m 0,11,12
 164 -18 164 -18 100 214 c 0,13,14
 74 307 74 307 74 440 c 0,15,16
 74 653 74 653 152 773.5 c 128,-1,17
 230 894 230 894 378 894 c 0,18,19
 463 894 463 894 539 839 c 1,20,21
 529 965 529 965 436 1099 c 1,22,-1
 318 1018 l 1,23,24
 291 1001 291 1001 266 1034 c 1,25,-1
 251 1050 l 1,26,27
 234 1081 234 1081 261 1104 c 1,28,-1
 353 1164 l 1,29,30
 268 1220 268 1220 160 1251 c 1,31,32
 142 1254 142 1254 142 1271 c 128,-1,33
 142 1288 142 1288 147 1306.5 c 128,-1,34
 152 1325 152 1325 157 1325 c 1,35,36
 160 1364 160 1364 180 1364 c 2,37,-1
 182 1364 l 1,38,39
 355 1325 355 1325 454 1255 c 1,40,-1
 576 1340 l 1,41,42
 585 1349 585 1349 598.5 1349 c 128,-1,43
 612 1349 612 1349 628 1325 c 1,44,-1
 646 1305 l 1,45,46
 667 1278 667 1278 636 1251 c 1,47,-1
 534 1185 l 1,48,49
 722 962 722 962 722 580 c 0,50,51
 722 148 722 148 586 38 c 0,52,53
 516 -18 516 -18 397 -18 c 0,11,12
EndSplineSet
EndChar

StartChar: divide
Encoding: 247 247 179
Width: 867
GlyphClass: 2
Flags: W
LayerCount: 2
Fore
SplineSet
378 195 m 2,0,1
 353 195 353 195 353 249 c 2,2,-1
 353 378 l 2,3,4
 353 431 353 431 378 431 c 2,5,-1
 497 431 l 2,6,7
 522 431 522 431 522 378 c 2,8,-1
 522 249 l 2,9,10
 522 195 522 195 497 195 c 2,11,-1
 378 195 l 2,0,1
378 941 m 2,12,13
 353 941 353 941 353 995 c 2,14,-1
 353 1124 l 2,15,16
 353 1177 353 1177 378 1177 c 2,17,-1
 497 1177 l 2,18,19
 522 1177 522 1177 522 1124 c 2,20,-1
 522 995 l 2,21,22
 522 941 522 941 497 941 c 2,23,-1
 378 941 l 2,12,13
772 638 m 2,24,25
 772 612 772 612 714 612 c 2,26,-1
 151 612 l 2,27,28
 95 612 95 612 95 638 c 2,29,-1
 95 750 l 2,30,31
 95 774 95 774 151 774 c 2,32,-1
 714 774 l 2,33,34
 772 774 772 774 772 750 c 2,35,-1
 772 638 l 2,24,25
EndSplineSet
EndChar

StartChar: oslash
Encoding: 248 248 180
Width: 768
GlyphClass: 2
Flags: W
LayerCount: 2
Fore
SplineSet
481 804 m 1,0,-1
 269 282 l 1,1,2
 256 366 256 366 256 495 c 128,-1,3
 256 624 256 624 265 700.5 c 128,-1,4
 274 777 274 777 292.5 815.5 c 128,-1,5
 311 854 311 854 332.5 868 c 128,-1,6
 354 882 354 882 386 882 c 0,7,8
 453 882 453 882 481 804 c 1,0,-1
504 701 m 1,9,10
 513 615 513 615 513 500.5 c 128,-1,11
 513 386 513 386 504 307.5 c 128,-1,12
 495 229 495 229 477 190.5 c 128,-1,13
 459 152 459 152 438 138.5 c 0,14,15
 418 125 418 125 386 125 c 0,16,17
 321 125 321 125 294 186 c 1,18,-1
 504 701 l 1,9,10
182 69 m 1,19,-1
 135 -46 l 1,20,21
 131 -60 131 -60 131 -64 c 128,-1,22
 131 -68 131 -68 132 -68 c 2,23,-1
 177 -84 l 1,24,-1
 178 -84 l 2,25,26
 185 -84 185 -84 191 -65 c 1,27,-1
 229 27 l 1,28,29
 287 -11 287 -11 385 -11 c 0,30,31
 498 -11 498 -11 558 40 c 0,32,33
 686 150 686 150 687 506 c 0,34,35
 687 804 687 804 596 927 c 1,36,-1
 647 1053 l 2,37,38
 652 1063 652 1063 652 1069 c 128,-1,39
 652 1075 652 1075 650 1075 c 2,40,-1
 605 1090 l 1,41,-1
 604 1090 l 2,42,43
 600 1090 600 1090 590 1071 c 1,44,-1
 550 973 l 1,45,46
 490 1018 490 1018 385 1018 c 0,47,48
 272 1018 272 1018 212 968 c 0,49,50
 80 858 80 858 80.5 523 c 128,-1,51
 81 188 81 188 182 69 c 1,19,-1
EndSplineSet
EndChar

StartChar: thorn
Encoding: 254 254 186
Width: 765
GlyphClass: 2
Flags: W
LayerCount: 2
Fore
SplineSet
399 125 m 0,0,1
 518 125 518 125 518 511 c 0,2,3
 518 689 518 689 486 785.5 c 128,-1,4
 454 882 454 882 397 882 c 128,-1,5
 340 882 340 882 302.5 779.5 c 128,-1,6
 265 677 265 677 265 511 c 128,-1,7
 265 345 265 345 302.5 235 c 128,-1,8
 340 125 340 125 399 125 c 0,0,1
265 -300 m 2,9,10
 265 -374 265 -374 240 -374 c 2,11,-1
 128 -374 l 2,12,13
 104 -374 104 -374 104 -300 c 2,14,-1
 104 1355 l 2,15,16
 104 1428 104 1428 129 1428 c 2,17,-1
 240 1428 l 2,18,19
 265 1428 265 1428 265 1355 c 2,20,-1
 265 884 l 2,21,22
 265 869 265 869 270 869 c 128,-1,23
 275 869 275 869 277 876 c 0,24,25
 333 1018 333 1018 446 1018 c 0,26,27
 542 1018 542 1018 610 908 c 0,28,29
 685 786 685 786 685 500 c 0,30,31
 684 120 684 120 524 17 c 0,32,33
 480 -11 480 -11 432 -11 c 128,-1,34
 384 -11 384 -11 339 23.5 c 128,-1,35
 294 58 294 58 265 129 c 1,36,-1
 265 -300 l 2,9,10
EndSplineSet
EndChar

StartChar: Dcroat
Encoding: 272 272 204
Width: 935
GlyphClass: 2
Flags: W
LayerCount: 2
Fore
SplineSet
116 1398 m 2,0,1
 116 1438 116 1438 141 1438 c 2,2,-1
 485 1438 l 2,3,4
 760 1438 760 1438 824 1068 c 0,5,6
 848 928 848 928 848.5 757.5 c 128,-1,7
 849 587 849 587 840 478.5 c 128,-1,8
 831 370 831 370 816.5 292.5 c 128,-1,9
 802 215 802 215 775 161.5 c 128,-1,10
 748 108 748 108 719 76.5 c 128,-1,11
 690 45 690 45 646 28 c 0,12,13
 574 0 574 0 458 0 c 2,14,-1
 141 0 l 2,15,16
 128 0 128 0 122 8 c 128,-1,17
 116 16 116 16 116 44 c 2,18,-1
 116 671 l 1,19,-1
 40 671 l 2,20,21
 5 671 5 671 5 709 c 2,22,-1
 5 738 l 2,23,24
 5 777 5 777 40 777 c 2,25,-1
 116 777 l 1,26,-1
 116 1398 l 2,0,1
326 159 m 2,27,-1
 449 159 l 2,28,29
 526 159 526 159 568 205 c 0,30,31
 651 296 651 296 651 726 c 0,32,33
 651 1134 651 1134 563 1233 c 0,34,35
 522 1279 522 1279 456 1279 c 2,36,-1
 325 1279 l 2,37,38
 313 1279 313 1279 313 1257 c 2,39,-1
 313 777 l 1,40,-1
 455 777 l 2,41,42
 490 777 490 777 490 738 c 2,43,-1
 490 710 l 2,44,45
 490 671 490 671 455 671 c 2,46,-1
 313 671 l 1,47,-1
 313 181 l 2,48,49
 313 159 313 159 326 159 c 2,27,-1
EndSplineSet
EndChar

StartChar: dcroat
Encoding: 273 273 205
Width: 789
GlyphClass: 2
Flags: W
LayerCount: 2
Fore
SplineSet
380 125 m 0,0,1
 510 125 510 125 510 503.5 c 128,-1,2
 510 882 510 882 381 882 c 0,3,4
 285 882 285 882 263 698 c 0,5,6
 254 622 254 622 254 489 c 128,-1,7
 254 356 254 356 270 269 c 128,-1,8
 286 182 286 182 312 153.5 c 128,-1,9
 338 125 338 125 380 125 c 0,0,1
342 -11 m 0,10,11
 79 -11 79 -11 79 503.5 c 128,-1,12
 79 1018 79 1018 335 1018 c 0,13,14
 446 1018 446 1018 499 878 c 1,15,16
 506 868 506 868 508.5 868 c 128,-1,17
 511 868 511 868 511 885 c 2,18,-1
 511 1174 l 1,19,-1
 337 1174 l 2,20,21
 303 1174 303 1174 303 1212 c 2,22,-1
 303 1241 l 2,23,24
 303 1280 303 1280 337 1280 c 2,25,-1
 511 1280 l 1,26,-1
 511 1368 l 2,27,28
 511 1428 511 1428 536 1428 c 2,29,-1
 660 1428 l 2,30,31
 685 1428 685 1428 685 1368 c 2,32,-1
 685 1280 l 1,33,-1
 752 1280 l 2,34,35
 787 1280 787 1280 787 1241 c 2,36,-1
 787 1213 l 2,37,38
 787 1174 787 1174 752 1174 c 2,39,-1
 685 1174 l 1,40,-1
 685 67 l 2,41,42
 685 0 685 0 661 0 c 0,43,44
 629 1 629 1 628 3 c 1,45,46
 607 10 607 10 597 63 c 0,47,48
 572 194 572 194 571.5 204 c 128,-1,49
 571 214 571 214 566 216 c 1,50,51
 563 213 563 213 559 204 c 1,52,53
 532 80 532 80 477 34.5 c 128,-1,54
 422 -11 422 -11 342 -11 c 0,10,11
EndSplineSet
EndChar

StartChar: Hbar
Encoding: 294 294 224
Width: 947
GlyphClass: 2
Flags: W
LayerCount: 2
Fore
SplineSet
313 859 m 2,0,1
 313 836 313 836 323 836 c 2,2,-1
 623 836 l 2,3,4
 626 836 626 836 630 843.5 c 128,-1,5
 634 851 634 851 634 860 c 2,6,-1
 634 1174 l 1,7,-1
 313 1174 l 1,8,-1
 313 859 l 2,0,1
315 47 m 2,9,10
 315 0 315 0 289 0 c 2,11,-1
 142 0 l 2,12,13
 128 0 128 0 122 8.5 c 128,-1,14
 116 17 116 17 116 47 c 2,15,-1
 116 1174 l 1,16,-1
 54 1174 l 2,17,18
 19 1174 19 1174 19 1212 c 2,19,-1
 19 1241 l 2,20,21
 19 1280 19 1280 54 1280 c 2,22,-1
 116 1280 l 1,23,-1
 116 1391 l 2,24,25
 116 1421 116 1421 122 1429.5 c 128,-1,26
 128 1438 128 1438 142 1438 c 2,27,-1
 287 1438 l 2,28,29
 301 1438 301 1438 307 1429.5 c 128,-1,30
 313 1421 313 1421 313 1391 c 2,31,-1
 313 1280 l 1,32,-1
 634 1280 l 1,33,-1
 634 1391 l 2,34,35
 634 1438 634 1438 660 1438 c 2,36,-1
 807 1438 l 2,37,38
 820 1438 820 1438 826 1429.5 c 128,-1,39
 832 1421 832 1421 832 1391 c 2,40,-1
 832 1280 l 1,41,-1
 893 1280 l 2,42,43
 928 1280 928 1280 928 1241 c 2,44,-1
 928 1213 l 2,45,46
 928 1174 928 1174 893 1174 c 2,47,-1
 832 1174 l 1,48,-1
 832 47 l 2,49,50
 832 17 832 17 826 8.5 c 128,-1,51
 820 0 820 0 807 0 c 2,52,-1
 660 0 l 2,53,54
 633 0 633 0 633 47 c 2,55,-1
 633 658 l 2,56,57
 633 679 633 679 622 679 c 2,58,-1
 325 679 l 2,59,60
 315 679 315 679 315 658 c 2,61,-1
 315 47 l 2,9,10
EndSplineSet
EndChar

StartChar: hbar
Encoding: 295 295 225
Width: 785
GlyphClass: 2
Flags: W
LayerCount: 2
Fore
SplineSet
282 49 m 2,0,1
 282 0 282 0 258 0 c 2,2,-1
 130 0 l 2,3,4
 104 0 104 0 104 49 c 2,5,-1
 104 1174 l 1,6,-1
 41 1174 l 2,7,8
 6 1174 6 1174 6 1212 c 2,9,-1
 6 1241 l 2,10,11
 6 1280 6 1280 41 1280 c 2,12,-1
 104 1280 l 1,13,-1
 104 1384 l 2,14,15
 104 1437 104 1437 130 1437 c 2,16,-1
 257 1437 l 2,17,18
 282 1437 282 1437 282 1384 c 2,19,-1
 282 1280 l 1,20,-1
 468 1280 l 2,21,22
 502 1280 502 1280 502 1241 c 2,23,-1
 502 1213 l 2,24,25
 502 1174 502 1174 468 1174 c 2,26,-1
 282 1174 l 1,27,-1
 282 878 l 2,28,29
 282 863 282 863 286 863 c 128,-1,30
 290 863 290 863 294 869 c 1,31,32
 325 946 325 946 378 982 c 128,-1,33
 431 1018 431 1018 482.5 1018 c 128,-1,34
 534 1018 534 1018 570 997 c 128,-1,35
 606 976 606 976 635 927 c 0,36,37
 694 827 694 827 694 574 c 2,38,-1
 694 49 l 2,39,40
 694 0 694 0 669 0 c 2,41,-1
 541 0 l 2,42,43
 516 0 516 0 516 49 c 2,44,-1
 516 595 l 2,45,46
 516 749 516 749 495 815.5 c 128,-1,47
 474 882 474 882 418.5 882 c 128,-1,48
 363 882 363 882 322.5 799.5 c 128,-1,49
 282 717 282 717 282 588 c 2,50,-1
 282 49 l 2,0,1
EndSplineSet
EndChar

StartChar: dotlessi
Encoding: 305 305 235
Width: 363
GlyphClass: 2
Flags: W
LayerCount: 2
Fore
SplineSet
133 0 m 2,0,1
 108 0 108 0 108 67 c 2,2,-1
 108 940 l 2,3,4
 108 1006 108 1006 133 1006 c 2,5,-1
 245 1006 l 2,6,7
 269 1006 269 1006 269 940 c 2,8,-1
 269 67 l 2,9,10
 269 0 269 0 245 0 c 2,11,-1
 133 0 l 2,0,1
EndSplineSet
EndChar

StartChar: kgreenlandic
Encoding: 312 312 242
Width: 706
GlyphClass: 2
Flags: W
LayerCount: 2
Fore
SplineSet
130 0 m 2,0,1
 105 0 105 0 105 61 c 2,2,-1
 105 946 l 2,3,4
 105 1006 105 1006 130 1006 c 2,5,-1
 243 1006 l 2,6,7
 268 1006 268 1006 268 946 c 2,8,-1
 268 590 l 2,9,10
 268 575 268 575 274 575 c 1,11,-1
 277 578 l 1,12,-1
 463 953 l 2,13,14
 489 1006 489 1006 514 1006 c 2,15,-1
 651 1006 l 2,16,17
 660 1006 660 1006 660 987 c 128,-1,18
 660 968 660 968 651 953 c 1,19,-1
 469 579 l 2,20,21
 465 572 465 572 465 561 c 128,-1,22
 465 550 465 550 468 542 c 2,23,-1
 668 59 l 2,24,25
 674 44 674 44 674 22 c 128,-1,26
 674 0 674 0 663 0 c 2,27,-1
 523 0 l 2,28,29
 502 0 502 0 485 48 c 2,30,-1
 345 442 l 1,31,32
 340 452 340 452 335.5 452 c 0,33,34
 330 452 330 452 328 446 c 0,35,36
 324 435 324 435 287 360 c 1,37,-1
 275 335 l 1,38,39
 268 316 268 316 268 288 c 2,40,-1
 268 61 l 2,41,42
 268 0 268 0 243 0 c 2,43,-1
 130 0 l 2,0,1
EndSplineSet
EndChar

StartChar: Lslash
Encoding: 321 321 251
Width: 652
GlyphClass: 2
Flags: W
LayerCount: 2
Fore
SplineSet
612 40 m 2,0,1
 612 0 612 0 587 0 c 2,2,-1
 141 0 l 2,3,4
 128 0 128 0 122 8.5 c 128,-1,5
 116 17 116 17 116 47 c 2,6,-1
 116 653 l 1,7,-1
 38 632 l 1,8,9
 12 628 12 628 12 672 c 2,10,-1
 12 759 l 2,11,12
 12 789 12 789 20 792.5 c 128,-1,13
 28 796 28 796 38 798 c 2,14,-1
 116 819 l 1,15,-1
 116 1391 l 2,16,17
 116 1421 116 1421 122 1429.5 c 128,-1,18
 128 1438 128 1438 141 1438 c 2,19,-1
 288 1438 l 2,20,21
 301 1438 301 1438 307 1429.5 c 128,-1,22
 313 1421 313 1421 313 1391 c 2,23,-1
 313 869 l 1,24,-1
 479 913 l 2,25,26
 491 916 491 916 497.5 907.5 c 128,-1,27
 504 899 504 899 504 873 c 2,28,-1
 504 786 l 2,29,30
 504 755 504 755 496.5 752 c 128,-1,31
 489 749 489 749 479 747 c 2,32,-1
 313 703 l 1,33,-1
 313 181 l 2,34,35
 313 159 313 159 327 159 c 2,36,-1
 587 159 l 2,37,38
 600 159 600 159 606 152 c 128,-1,39
 612 145 612 145 612 120 c 2,40,-1
 612 40 l 2,0,1
EndSplineSet
EndChar

StartChar: lslash
Encoding: 322 322 252
Width: 363
GlyphClass: 2
Flags: W
LayerCount: 2
Fore
SplineSet
247 0 m 2,0,-1
 135 0 l 2,1,2
 110 0 110 0 110 54 c 2,3,-1
 110 734 l 1,4,-1
 1 706 l 1,5,6
 -26 697 -26 697 -26 750 c 2,7,-1
 -26 811 l 2,8,9
 -26 848 -26 848 -12 852 c 0,10,11
 -1 856 -1 856 1 855 c 2,12,-1
 110 883 l 1,13,-1
 110 1402 l 2,14,15
 110 1462 110 1462 135 1462 c 2,16,-1
 247 1462 l 2,17,18
 272 1462 272 1462 272 1402 c 2,19,-1
 272 926 l 1,20,-1
 378 954 l 1,21,22
 405 963 405 963 405 911 c 2,23,-1
 405 849 l 2,24,25
 405 823 405 823 400 817.5 c 128,-1,26
 395 812 395 812 394 810 c 0,27,28
 394 809 394 809 378 806 c 2,29,-1
 272 778 l 1,30,-1
 272 54 l 2,31,32
 272 0 272 0 247 0 c 2,0,-1
EndSplineSet
EndChar

StartChar: OE
Encoding: 338 338 265
Width: 1175
GlyphClass: 2
Flags: W
LayerCount: 2
Fore
SplineSet
572 158 m 2,0,1
 576 158 576 158 576 718.5 c 128,-1,2
 576 1279 576 1279 572 1279 c 2,3,-1
 489 1279 l 2,4,5
 285 1279 285 1279 285 722 c 0,6,7
 285 279 285 279 405 186 c 0,8,9
 441 158 441 158 489 158 c 2,10,-1
 572 158 l 2,0,1
788 653 m 2,11,12
 778 653 778 653 778 623 c 2,13,-1
 778 188 l 2,14,15
 778 159 778 159 786 159 c 2,16,-1
 1094 159 l 2,17,18
 1118 159 1118 159 1118 99 c 2,19,-1
 1118 60 l 2,20,21
 1118 0 1118 0 1094 0 c 2,22,-1
 498 0 l 2,23,24
 338 0 338 0 250 86 c 0,25,26
 88 246 88 246 87 722 c 0,27,28
 88 1182 88 1182 254 1347 c 0,29,30
 346 1438 346 1438 479 1438 c 2,31,-1
 1076 1438 l 2,32,33
 1101 1438 1101 1438 1101 1379 c 2,34,-1
 1101 1339 l 2,35,36
 1101 1279 1101 1279 1076 1279 c 2,37,-1
 789 1279 l 2,38,39
 778 1279 778 1279 778 1246 c 2,40,-1
 778 838 l 2,41,42
 778 811 778 811 787 811 c 2,43,-1
 1030 811 l 2,44,45
 1056 811 1056 811 1056 753 c 2,46,-1
 1056 712 l 2,47,48
 1056 653 1056 653 1030 653 c 2,49,-1
 788 653 l 2,11,12
EndSplineSet
EndChar

StartChar: oe
Encoding: 339 339 266
Width: 1090
GlyphClass: 2
Flags: W
LayerCount: 2
Fore
SplineSet
299 150 m 128,-1,1
 324 125 324 125 361 125 c 128,-1,2
 398 125 398 125 418.5 138.5 c 128,-1,3
 439 152 439 152 457 191 c 0,4,5
 491 265 491 265 491 444.5 c 128,-1,6
 491 624 491 624 482.5 700.5 c 128,-1,7
 474 777 474 777 456.5 815.5 c 128,-1,8
 439 854 439 854 418.5 868 c 128,-1,9
 398 882 398 882 367 882 c 128,-1,10
 336 882 336 882 315 868 c 128,-1,11
 294 854 294 854 276 816 c 0,12,13
 241 741 241 741 241 544 c 128,-1,14
 241 347 241 347 257.5 261 c 128,-1,0
 274 175 274 175 299 150 c 128,-1,1
663 572 m 2,15,-1
 885 572 l 2,16,17
 887 572 887 572 887 597 c 0,18,19
 879 883 879 883 776 883 c 0,20,21
 728 883 728 883 696.5 820.5 c 128,-1,22
 665 758 665 758 662 665 c 0,23,24
 661 625 661 625 661 602 c 0,25,26
 661 572 661 572 663 572 c 2,15,-1
1012 242 m 2,27,28
 1012 132 1012 132 957.5 60.5 c 128,-1,29
 903 -11 903 -11 794 -11 c 0,30,31
 642 -11 642 -11 579 161 c 1,32,33
 515 -11 515 -11 373 -11 c 0,34,35
 262 -11 262 -11 204 40 c 0,36,37
 144 93 144 93 122 169 c 0,38,39
 81 310 81 310 81 458 c 128,-1,40
 81 606 81 606 91 685.5 c 128,-1,41
 101 765 101 765 116 817.5 c 128,-1,42
 131 870 131 870 155.5 908.5 c 128,-1,43
 180 947 180 947 203 967.5 c 128,-1,44
 226 988 226 988 258 1000 c 0,45,46
 305 1018 305 1018 369 1018 c 0,47,48
 508 1018 508 1018 576 857 c 1,49,50
 647 1018 647 1018 778 1018 c 0,51,52
 952 1018 952 1018 1000 774 c 0,53,54
 1018 680 1018 680 1019 574 c 0,55,56
 1019 570 1019 570 1019 565 c 0,57,58
 1019 466 1019 466 996 466 c 2,59,-1
 666 466 l 2,60,61
 658 466 658 466 658 441 c 0,62,63
 660 125 660 125 795 125 c 0,64,65
 886 126 886 126 898 246 c 0,66,67
 900 260 900 260 903 285 c 128,-1,68
 906 310 906 310 920 310 c 2,69,-1
 989 310 l 2,70,71
 1012 310 1012 310 1012 260 c 2,72,-1
 1012 242 l 2,27,28
EndSplineSet
EndChar

StartChar: florin
Encoding: 402 402 305
Width: 526
GlyphClass: 2
Flags: W
LayerCount: 2
Fore
SplineSet
86 797 m 2,0,1
 63 797 63 797 68 839 c 2,2,-1
 74 900 l 1,3,4
 80 947 80 947 102 947 c 2,5,-1
 178 947 l 2,6,7
 183 947 183 947 191.5 1037 c 128,-1,8
 200 1127 200 1127 222.5 1207 c 0,9,10
 246 1287 246 1287 280 1330 c 0,11,12
 342 1407 342 1407 448 1407 c 0,13,14
 480 1407 480 1407 501 1399 c 128,-1,15
 522 1391 522 1391 522 1383 c 1,16,17
 523 1383 523 1383 523 1356 c 2,18,-1
 523 1325 l 1,19,20
 520 1272 520 1272 505 1272 c 2,21,-1
 478 1272 l 2,22,23
 425 1272 425 1272 398.5 1227.5 c 128,-1,24
 372 1183 372 1183 360 1065 c 2,25,-1
 348 953 l 2,26,27
 348 947 348 947 350 947 c 2,28,-1
 460 947 l 2,29,30
 482 947 482 947 478 904 c 2,31,-1
 472 839 l 1,32,33
 467 797 467 797 444 797 c 2,34,-1
 346 797 l 2,35,36
 336 797 336 797 334 766 c 2,37,-1
 295 260 l 1,38,39
 263 -139 263 -139 31 -139 c 2,40,-1
 5 -139 l 2,41,42
 -17 -139 -17 -139 -26 -132 c 128,-1,43
 -35 -125 -35 -125 -35 -104 c 2,44,-1
 -33 -59 l 1,45,46
 -29 -13 -29 -13 -24 -10 c 128,-1,47
 -19 -7 -19 -7 -15 -7 c 2,48,-1
 1 -7 l 2,49,50
 56 -7 56 -7 83 36 c 128,-1,51
 110 79 110 79 120 200 c 2,52,-1
 166 766 l 2,53,54
 168 797 168 797 162 797 c 2,55,-1
 86 797 l 2,0,1
EndSplineSet
EndChar

StartChar: uni0237
Encoding: 567 567 348
Width: 404
GlyphClass: 2
Flags: W
LayerCount: 2
Fore
SplineSet
34 -335 m 2,0,1
 9 -335 9 -335 9 -277 c 2,2,-1
 9 -216 l 2,3,4
 9 -165 9 -165 33 -165 c 2,5,-1
 72 -165 l 2,6,7
 110 -165 110 -165 128 -133.5 c 128,-1,8
 146 -102 146 -102 146 -6 c 2,9,-1
 146 940 l 2,10,11
 146 1006 146 1006 171 1006 c 2,12,-1
 282 1006 l 2,13,14
 307 1006 307 1006 307 940 c 2,15,-1
 307 -3 l 2,16,17
 306 -248 306 -248 228 -306 c 0,18,19
 188 -336 188 -336 118 -335 c 2,20,-1
 34 -335 l 2,0,1
EndSplineSet
EndChar

StartChar: circumflex
Encoding: 710 710 349
Width: 314
GlyphClass: 2
Flags: W
LayerCount: 2
Fore
SplineSet
98 1266 m 1,0,1
 80 1225 80 1225 55.5 1225 c 128,-1,2
 31 1225 31 1225 31 1233 c 1,3,4
 15 1234 15 1234 15 1252.5 c 128,-1,5
 15 1271 15 1271 19 1287 c 1,6,-1
 91 1486 l 1,7,8
 115 1561 115 1561 143 1561 c 2,9,-1
 168 1561 l 2,10,11
 196 1561 196 1561 220 1486 c 1,12,-1
 292 1287 l 1,13,14
 296 1269 296 1269 296 1251.5 c 128,-1,15
 296 1234 296 1234 281 1233 c 1,16,17
 281 1225 281 1225 255 1225 c 128,-1,18
 229 1225 229 1225 213 1266 c 2,19,-1
 166 1384 l 2,20,21
 160 1401 160 1401 155 1401 c 128,-1,22
 150 1401 150 1401 145 1384 c 1,23,-1
 98 1266 l 1,0,1
EndSplineSet
EndChar

StartChar: caron
Encoding: 711 711 350
Width: 314
GlyphClass: 2
Flags: W
LayerCount: 2
Fore
SplineSet
143 1225 m 2,0,1
 115 1225 115 1225 91 1301 c 1,2,-1
 19 1499 l 1,3,4
 15 1516 15 1516 15 1534 c 0,5,6
 15 1552 15 1552 30 1553 c 1,7,8
 30 1561 30 1561 55 1561 c 0,9,10
 80 1561 80 1561 98 1521 c 1,11,-1
 145 1402 l 1,12,13
 148 1386 148 1386 154 1386 c 0,14,15
 160 1386 160 1386 166 1402 c 2,16,-1
 213 1521 l 2,17,18
 228 1561 228 1561 254 1561 c 0,19,20
 280 1561 280 1561 280 1553 c 1,21,22
 296 1552 296 1552 296 1534 c 0,23,24
 296 1516 296 1516 292 1499 c 1,25,-1
 220 1301 l 1,26,27
 196 1225 196 1225 168 1225 c 2,28,-1
 143 1225 l 2,0,1
EndSplineSet
EndChar

StartChar: breve
Encoding: 728 728 351
Width: 1504
GlyphClass: 2
Flags: W
LayerCount: 2
Fore
SplineSet
616 1292 m 128,-1,1
 536 1292 536 1292 480 1341 c 128,-1,2
 424 1390 424 1390 423 1487 c 1,3,-1
 510 1487 l 1,4,5
 510 1436 510 1436 541 1411.5 c 128,-1,6
 572 1387 572 1387 618 1387 c 0,7,8
 664 1387 664 1387 694.5 1411 c 128,-1,9
 725 1435 725 1435 725 1487 c 1,10,-1
 810 1487 l 1,11,12
 809 1391 809 1391 752.5 1341.5 c 128,-1,0
 696 1292 696 1292 616 1292 c 128,-1,1
EndSplineSet
EndChar

StartChar: dotaccent
Encoding: 729 729 352
Width: 398
GlyphClass: 2
Flags: W
LayerCount: 2
Fore
SplineSet
72 43 m 2,0,1
 45 43 45 43 45 93 c 2,2,-1
 45 232 l 2,3,4
 45 282 45 282 72 282 c 2,5,-1
 212 282 l 2,6,7
 239 282 239 282 239 232 c 2,8,-1
 239 93 l 2,9,10
 239 43 239 43 212 43 c 2,11,-1
 72 43 l 2,0,1
EndSplineSet
EndChar

StartChar: ring
Encoding: 730 730 353
Width: 1268
GlyphClass: 2
Flags: W
LayerCount: 2
Fore
SplineSet
717.5 1130 m 128,-1,1
 684 1120 684 1120 650.5 1120 c 128,-1,2
 617 1120 617 1120 583 1130 c 0,3,4
 548 1140 548 1140 516 1162 c 0,5,6
 444 1210 444 1210 444 1316 c 0,7,8
 444 1464 444 1464 579 1502 c 0,9,10
 613 1512 613 1512 646.5 1512 c 128,-1,11
 680 1512 680 1512 707 1506.5 c 128,-1,12
 734 1501 734 1501 761.5 1487 c 0,13,14
 790 1474 790 1474 810 1452 c 0,15,16
 856 1404 856 1404 855.5 1333.5 c 128,-1,17
 855 1263 855 1263 835 1223 c 128,-1,18
 815 1183 815 1183 783 1161.5 c 128,-1,0
 751 1140 751 1140 717.5 1130 c 128,-1,1
566 1223.5 m 128,-1,20
 601 1193 601 1193 650 1193 c 128,-1,21
 699 1193 699 1193 733 1223.5 c 128,-1,22
 767 1254 767 1254 767 1317.5 c 128,-1,23
 767 1381 767 1381 732.5 1409.5 c 128,-1,24
 698 1438 698 1438 649.5 1438 c 128,-1,25
 601 1438 601 1438 566 1409.5 c 128,-1,26
 531 1381 531 1381 531 1317.5 c 128,-1,19
 531 1254 531 1254 566 1223.5 c 128,-1,20
EndSplineSet
EndChar

StartChar: ogonek
Encoding: 731 731 354
Width: 716
GlyphClass: 2
Flags: W
LayerCount: 2
Fore
SplineSet
479 -352 m 2,0,-1
 427 -352 l 1,1,2
 321 -350 321 -350 263.5 -299.5 c 128,-1,3
 206 -249 206 -249 206 -184 c 0,4,5
 206 -84 206 -84 267.5 -28.5 c 128,-1,6
 329 27 329 27 433 35 c 1,7,-1
 431 -2 l 1,8,9
 349 -19 349 -19 349 -128 c 0,10,11
 349 -265 349 -265 467 -265 c 1,12,13
 495 -264 495 -264 495 -275 c 2,14,-1
 495 -335 l 2,15,16
 495 -352 495 -352 479 -352 c 2,0,-1
EndSplineSet
EndChar

StartChar: tilde
Encoding: 732 732 355
Width: 799
GlyphClass: 2
Flags: W
LayerCount: 2
Fore
SplineSet
482 878 m 128,-1,1
 463 878 463 878 431 858 c 0,2,3
 333 797 333 797 277 797 c 0,4,5
 231 796 231 796 209 822 c 0,6,7
 182 853 182 853 160.5 885 c 128,-1,8
 139 917 139 917 139 932 c 128,-1,9
 139 947 139 947 151 958.5 c 128,-1,10
 163 970 163 970 177.5 970 c 128,-1,11
 192 970 192 970 204 958.5 c 128,-1,12
 216 947 216 947 224 933 c 0,13,14
 244 896 244 896 267 896 c 128,-1,15
 290 896 290 896 360.5 936.5 c 128,-1,16
 431 977 431 977 465 977 c 128,-1,17
 499 977 499 977 522 961 c 0,18,19
 553 939 553 939 580.5 896.5 c 128,-1,20
 608 854 608 854 608 839.5 c 128,-1,21
 608 825 608 825 596.5 814.5 c 128,-1,22
 585 804 585 804 567 804 c 128,-1,23
 549 804 549 804 525 841 c 128,-1,0
 501 878 501 878 482 878 c 128,-1,1
EndSplineSet
EndChar

StartChar: hungarumlaut
Encoding: 733 733 356
Width: 597
GlyphClass: 2
Flags: W
LayerCount: 2
Fore
SplineSet
363 1169 m 2,0,1
 349 1169 349 1169 349 1195.5 c 128,-1,2
 349 1222 349 1222 350 1236 c 2,3,-1
 371 1559 l 2,4,5
 374 1614 374 1614 396 1614 c 2,6,-1
 477 1614 l 2,7,8
 487 1614 487 1614 487 1593.5 c 128,-1,9
 487 1573 487 1573 483 1549 c 1,10,-1
 409 1208 l 2,11,12
 401 1169 401 1169 390 1169 c 2,13,-1
 363 1169 l 2,0,1
204 1169 m 2,14,15
 190 1169 190 1169 190 1188.5 c 128,-1,16
 190 1208 190 1208 192 1236 c 2,17,-1
 212 1559 l 2,18,19
 216 1614 216 1614 237 1614 c 2,20,-1
 319 1614 l 2,21,22
 328 1614 328 1614 328 1593.5 c 128,-1,23
 328 1573 328 1573 324 1549 c 1,24,-1
 250 1208 l 1,25,26
 244 1169 244 1169 231 1169 c 2,27,-1
 204 1169 l 2,14,15
EndSplineSet
EndChar

StartChar: endash
Encoding: 8211 8211 379
Width: 1024
GlyphClass: 2
Flags: W
LayerCount: 2
Fore
SplineSet
89 634 m 2,0,1
 89 684 89 684 115 684 c 2,2,-1
 905 684 l 2,3,4
 930 684 930 684 930 634 c 2,5,-1
 930 583 l 2,6,7
 930 532 930 532 905 532 c 2,8,-1
 115 532 l 2,9,10
 89 532 89 532 89 583 c 2,11,-1
 89 634 l 2,0,1
EndSplineSet
EndChar

StartChar: emdash
Encoding: 8212 8212 380
Width: 2048
GlyphClass: 2
Flags: W
LayerCount: 2
Fore
SplineSet
92 634 m 2,0,1
 92 684 92 684 118 684 c 2,2,-1
 1928 684 l 2,3,4
 1953 684 1953 684 1953 634 c 2,5,-1
 1953 583 l 2,6,7
 1953 532 1953 532 1928 532 c 2,8,-1
 118 532 l 2,9,10
 92 532 92 532 92 583 c 2,11,-1
 92 634 l 2,0,1
EndSplineSet
EndChar

StartChar: quoteleft
Encoding: 8216 8216 381
Width: 341
GlyphClass: 2
Flags: W
LayerCount: 2
Fore
SplineSet
254 1400 m 1,0,-1
 251 1382 l 2,1,2
 251 1380 251 1380 248 1376 c 128,-1,3
 245 1372 245 1372 244 1370 c 0,4,5
 239 1362 239 1362 224.5 1345.5 c 128,-1,6
 210 1329 210 1329 197.5 1281.5 c 128,-1,7
 185 1234 185 1234 185 1200 c 128,-1,8
 185 1166 185 1166 191 1166 c 2,9,-1
 234 1166 l 2,10,11
 255 1166 255 1166 255 1109 c 2,12,-1
 255 917 l 2,13,14
 255 858 255 858 234 858 c 2,15,-1
 114 858 l 2,16,17
 88 858 88 858 88 922 c 2,18,-1
 88 1116 l 2,19,20
 88 1274 88 1274 135 1372 c 128,-1,21
 182 1470 182 1470 230 1493 c 0,22,23
 232 1494 232 1494 235 1494 c 0,24,25
 255 1494 255 1494 255 1448 c 2,26,-1
 255 1431 l 1,27,-1
 254 1400 l 1,0,-1
EndSplineSet
EndChar

StartChar: quoteright
Encoding: 8217 8217 382
Width: 336
GlyphClass: 2
Flags: W
LayerCount: 2
Fore
SplineSet
89 933 m 1,0,-1
 92 958 l 2,1,2
 92 964 92 964 101 974.5 c 128,-1,3
 110 985 110 985 122 1000 c 128,-1,4
 134 1015 134 1015 146.5 1062.5 c 128,-1,5
 159 1110 159 1110 159 1144 c 128,-1,6
 159 1178 159 1178 153 1178 c 2,7,-1
 110 1178 l 2,8,9
 89 1178 89 1178 89 1235 c 2,10,-1
 89 1427 l 2,11,12
 89 1486 89 1486 110 1486 c 2,13,-1
 230 1486 l 2,14,15
 256 1486 256 1486 256 1422 c 2,16,-1
 256 1228 l 2,17,18
 256 1070 256 1070 209 972 c 128,-1,19
 162 874 162 874 114 851 c 0,20,21
 112 850 112 850 109 850 c 0,22,23
 89 850 89 850 89 884 c 2,24,-1
 89 933 l 1,0,-1
EndSplineSet
EndChar

StartChar: quotesinglbase
Encoding: 8218 8218 383
Width: 292
GlyphClass: 2
Flags: W
LayerCount: 2
Fore
SplineSet
69 154 m 2,0,1
 69 216 69 216 94 216 c 2,2,-1
 192 216 l 2,3,4
 202 216 202 216 209 197 c 128,-1,5
 216 178 216 178 216 151 c 2,6,-1
 216 142 l 1,7,-1
 179 -387 l 2,8,9
 174 -457 174 -457 156 -457 c 2,10,-1
 130 -457 l 2,11,12
 110 -457 110 -457 107 -387 c 1,13,-1
 69 142 l 1,14,-1
 69 154 l 2,0,1
EndSplineSet
EndChar

StartChar: quotedblleft
Encoding: 8220 8220 384
Width: 611
GlyphClass: 2
Flags: W
LayerCount: 2
Fore
SplineSet
517 1400 m 1,0,-1
 514 1382 l 2,1,2
 514 1380 514 1380 511 1376 c 128,-1,3
 508 1372 508 1372 507 1370 c 0,4,5
 502 1362 502 1362 487.5 1345.5 c 128,-1,6
 473 1329 473 1329 460.5 1281.5 c 128,-1,7
 448 1234 448 1234 448 1200 c 128,-1,8
 448 1166 448 1166 454 1166 c 2,9,-1
 497 1166 l 2,10,11
 518 1166 518 1166 518 1109 c 2,12,-1
 518 917 l 2,13,14
 518 858 518 858 497 858 c 2,15,-1
 377 858 l 2,16,17
 351 858 351 858 351 922 c 2,18,-1
 351 1116 l 2,19,20
 351 1274 351 1274 398 1372 c 128,-1,21
 445 1470 445 1470 493 1493 c 0,22,23
 495 1494 495 1494 498 1494 c 0,24,25
 518 1494 518 1494 518 1448 c 2,26,-1
 518 1431 l 1,27,-1
 517 1400 l 1,0,-1
254 1400 m 1,28,-1
 251 1382 l 2,29,30
 251 1380 251 1380 248 1376 c 128,-1,31
 245 1372 245 1372 244 1370 c 0,32,33
 239 1362 239 1362 224.5 1345.5 c 128,-1,34
 210 1329 210 1329 197.5 1281.5 c 128,-1,35
 185 1234 185 1234 185 1200 c 128,-1,36
 185 1166 185 1166 191 1166 c 2,37,-1
 234 1166 l 2,38,39
 255 1166 255 1166 255 1109 c 2,40,-1
 255 917 l 2,41,42
 255 858 255 858 234 858 c 2,43,-1
 114 858 l 2,44,45
 88 858 88 858 88 922 c 2,46,-1
 88 1116 l 2,47,48
 88 1274 88 1274 135 1372 c 128,-1,49
 182 1470 182 1470 230 1493 c 0,50,51
 232 1494 232 1494 235 1494 c 0,52,53
 255 1494 255 1494 255 1448 c 2,54,-1
 255 1431 l 1,55,-1
 254 1400 l 1,28,-1
EndSplineSet
EndChar

StartChar: quotedblright
Encoding: 8221 8221 385
Width: 608
GlyphClass: 2
Flags: W
LayerCount: 2
Fore
SplineSet
354 944 m 1,0,-1
 357 962 l 2,1,2
 357 964 357 964 360 968 c 128,-1,3
 363 972 363 972 364 974 c 0,4,5
 369 982 369 982 383 998.5 c 128,-1,6
 397 1015 397 1015 410 1063 c 128,-1,7
 423 1111 423 1111 423 1144.5 c 128,-1,8
 423 1178 423 1178 417 1178 c 2,9,-1
 374 1178 l 2,10,11
 353 1178 353 1178 353 1235 c 2,12,-1
 353 1427 l 2,13,14
 353 1486 353 1486 374 1486 c 2,15,-1
 493 1486 l 2,16,17
 520 1486 520 1486 520 1422 c 2,18,-1
 520 1228 l 2,19,20
 520 1004 520 1004 420 888 c 0,21,22
 387 850 387 850 370 850 c 128,-1,23
 353 850 353 850 353 896 c 2,24,-1
 353 913 l 1,25,-1
 354 944 l 1,0,-1
89 933 m 1,26,-1
 92 958 l 2,27,28
 92 964 92 964 101 974.5 c 128,-1,29
 110 985 110 985 122 1000 c 128,-1,30
 134 1015 134 1015 146.5 1062.5 c 128,-1,31
 159 1110 159 1110 159 1144 c 128,-1,32
 159 1178 159 1178 153 1178 c 2,33,-1
 110 1178 l 2,34,35
 89 1178 89 1178 89 1235 c 2,36,-1
 89 1427 l 2,37,38
 89 1486 89 1486 110 1486 c 2,39,-1
 230 1486 l 2,40,41
 256 1486 256 1486 256 1422 c 2,42,-1
 256 1228 l 2,43,44
 256 1070 256 1070 209 972 c 128,-1,45
 162 874 162 874 114 851 c 0,46,47
 112 850 112 850 109 850 c 0,48,49
 89 850 89 850 89 884 c 2,50,-1
 89 933 l 1,26,-1
EndSplineSet
EndChar

StartChar: quotedblbase
Encoding: 8222 8222 386
Width: 533
GlyphClass: 2
Flags: W
LayerCount: 2
Fore
SplineSet
445 216 m 2,0,1
 468 216 468 216 468 154 c 2,2,-1
 468 142 l 1,3,-1
 431 -387 l 1,4,5
 428 -457 428 -457 409 -457 c 2,6,-1
 383 -457 l 2,7,8
 364 -457 364 -457 360 -387 c 1,9,-1
 321 142 l 1,10,-1
 321 151 l 2,11,12
 321 178 321 178 328.5 197 c 128,-1,13
 336 216 336 216 346 216 c 2,14,-1
 445 216 l 2,0,1
69 154 m 2,15,16
 69 216 69 216 94 216 c 2,17,-1
 192 216 l 2,18,19
 202 216 202 216 209 197 c 128,-1,20
 216 178 216 178 216 151 c 2,21,-1
 216 142 l 1,22,-1
 179 -387 l 2,23,24
 174 -457 174 -457 156 -457 c 2,25,-1
 130 -457 l 2,26,27
 110 -457 110 -457 107 -387 c 1,28,-1
 69 142 l 1,29,-1
 69 154 l 2,15,16
EndSplineSet
EndChar

StartChar: dagger
Encoding: 8224 8224 387
Width: 524
GlyphClass: 2
Flags: W
LayerCount: 2
Fore
SplineSet
215 0 m 2,0,1
 190 0 190 0 190 54 c 2,2,-1
 190 898 l 1,3,-1
 -76 898 l 2,4,5
 -128 898 -128 898 -128 923 c 2,6,-1
 -128 1034 l 2,7,8
 -128 1061 -128 1061 -76 1061 c 2,9,-1
 190 1061 l 1,10,-1
 190 1402 l 2,11,12
 190 1462 190 1462 215 1462 c 2,13,-1
 327 1462 l 2,14,15
 352 1462 352 1462 352 1402 c 2,16,-1
 352 1061 l 1,17,-1
 594 1061 l 2,18,19
 651 1061 651 1061 651 1034 c 2,20,-1
 651 923 l 2,21,22
 651 898 651 898 594 898 c 2,23,-1
 352 898 l 1,24,-1
 352 54 l 2,25,26
 352 0 352 0 327 0 c 2,27,-1
 215 0 l 2,0,1
EndSplineSet
EndChar

StartChar: daggerdbl
Encoding: 8225 8225 388
Width: 524
GlyphClass: 2
Flags: W
LayerCount: 2
Fore
SplineSet
215 0 m 2,0,1
 190 0 190 0 190 54 c 2,2,-1
 190 367 l 1,3,-1
 -76 367 l 2,4,5
 -128 367 -128 367 -128 391 c 2,6,-1
 -128 503 l 2,7,8
 -128 529 -128 529 -76 529 c 2,9,-1
 190 529 l 1,10,-1
 190 934 l 1,11,-1
 -76 934 l 2,12,13
 -128 934 -128 934 -128 959 c 2,14,-1
 -128 1070 l 2,15,16
 -128 1097 -128 1097 -76 1097 c 2,17,-1
 190 1097 l 1,18,-1
 190 1402 l 2,19,20
 190 1462 190 1462 215 1462 c 2,21,-1
 327 1462 l 2,22,23
 352 1462 352 1462 352 1402 c 2,24,-1
 352 1097 l 1,25,-1
 594 1097 l 2,26,27
 651 1097 651 1097 651 1070 c 2,28,-1
 651 959 l 2,29,30
 651 934 651 934 594 934 c 2,31,-1
 352 934 l 1,32,-1
 352 529 l 1,33,-1
 594 529 l 2,34,35
 651 529 651 529 651 503 c 2,36,-1
 651 391 l 2,37,38
 651 367 651 367 594 367 c 2,39,-1
 352 367 l 1,40,-1
 352 54 l 2,41,42
 352 0 352 0 327 0 c 2,43,-1
 215 0 l 2,0,1
EndSplineSet
EndChar

StartChar: bullet
Encoding: 8226 8226 389
Width: 1193
GlyphClass: 2
Flags: W
LayerCount: 2
Fore
SplineSet
596 616 m 0,0,1
 520 616 520 616 458 637.5 c 128,-1,2
 396 659 396 659 355.5 694.5 c 0,3,4
 316 730 316 730 288 778 c 0,5,6
 236 867 236 867 236 956 c 128,-1,7
 236 1045 236 1045 256 1107.5 c 128,-1,8
 276 1170 276 1170 317 1223 c 128,-1,9
 358 1276 358 1276 430 1307.5 c 128,-1,10
 502 1339 502 1339 596 1339 c 128,-1,11
 690 1339 690 1339 762 1307.5 c 128,-1,12
 834 1276 834 1276 875 1223 c 0,13,14
 956 1118 956 1118 956 976 c 0,15,16
 956 798 956 798 836 694 c 0,17,18
 746 616 746 616 596 616 c 0,0,1
EndSplineSet
EndChar

StartChar: perthousand
Encoding: 8240 8240 391
Width: 1527
GlyphClass: 2
Flags: W
LayerCount: 2
Fore
SplineSet
1304 768 m 0,0,1
 1483 768 1483 768 1483 384 c 128,-1,2
 1483 0 1483 0 1303.5 0 c 128,-1,3
 1124 0 1124 0 1124 385 c 0,4,5
 1124 586 1124 586 1169 677 c 128,-1,6
 1214 768 1214 768 1304 768 c 0,0,1
1221 381 m 0,7,8
 1221 115 1221 115 1304 115 c 0,9,10
 1347 115 1347 115 1366.5 178.5 c 128,-1,11
 1386 242 1386 242 1386 382.5 c 128,-1,12
 1386 523 1386 523 1366.5 588 c 128,-1,13
 1347 653 1347 653 1303.5 653 c 128,-1,14
 1260 653 1260 653 1240.5 588 c 128,-1,15
 1221 523 1221 523 1221 381 c 0,7,8
848 768 m 0,16,17
 1027 768 1027 768 1027 384 c 128,-1,18
 1027 0 1027 0 847.5 0 c 128,-1,19
 668 0 668 0 668 385 c 0,20,21
 668 586 668 586 713 677 c 128,-1,22
 758 768 758 768 848 768 c 0,16,17
765 381 m 0,23,24
 765 115 765 115 848 115 c 0,25,26
 891 115 891 115 910.5 178.5 c 128,-1,27
 930 242 930 242 930 382.5 c 128,-1,28
 930 523 930 523 910.5 588 c 128,-1,29
 891 653 891 653 847.5 653 c 128,-1,30
 804 653 804 653 784.5 588 c 128,-1,31
 765 523 765 523 765 381 c 0,23,24
403 1055 m 0,32,33
 403 670 403 670 224 670 c 128,-1,34
 45 670 45 670 45 1055 c 0,35,36
 45 1256 45 1256 90 1347 c 128,-1,37
 135 1438 135 1438 224.5 1438 c 128,-1,38
 314 1438 314 1438 358.5 1347 c 128,-1,39
 403 1256 403 1256 403 1055 c 0,32,33
161.5 848.5 m 128,-1,41
 181 785 181 785 224.5 785 c 128,-1,42
 268 785 268 785 287.5 848.5 c 128,-1,43
 307 912 307 912 307 1052.5 c 128,-1,44
 307 1193 307 1193 287.5 1258 c 128,-1,45
 268 1323 268 1323 224.5 1323 c 128,-1,46
 181 1323 181 1323 161.5 1258 c 128,-1,47
 142 1193 142 1193 142 1052.5 c 128,-1,40
 142 912 142 912 161.5 848.5 c 128,-1,41
672 1485 m 2,48,49
 688 1485 688 1485 688 1456.5 c 128,-1,50
 688 1428 688 1428 686 1415 c 2,51,-1
 463 -3 l 2,52,53
 452 -73 452 -73 427 -73 c 2,54,-1
 386 -73 l 2,55,56
 379 -73 379 -73 373.5 -58 c 128,-1,57
 368 -43 368 -43 368 -29.5 c 128,-1,58
 368 -16 368 -16 370 -3 c 2,59,-1
 594 1415 l 2,60,61
 605 1485 605 1485 631 1485 c 2,62,-1
 672 1485 l 2,48,49
EndSplineSet
EndChar

StartChar: guilsinglleft
Encoding: 8249 8249 392
Width: 524
GlyphClass: 2
Flags: W
LayerCount: 2
Fore
SplineSet
405 390 m 1,0,1
 413 382 413 382 413 304 c 128,-1,2
 413 226 413 226 404 226 c 1,3,4
 403 217 403 217 400 217 c 128,-1,5
 397 217 397 217 396 217.5 c 128,-1,6
 395 218 395 218 376 237.5 c 0,7,8
 357 256 357 256 330 284 c 0,9,10
 278 337 278 337 230 388 c 1,11,-1
 210 408 l 2,12,13
 193 425 193 425 145.5 490.5 c 128,-1,14
 98 556 98 556 98 575 c 1,15,16
 90 584 90 584 90 682.5 c 128,-1,17
 90 781 90 781 105 795 c 1,18,19
 105 804 105 804 210.5 910 c 128,-1,20
 316 1016 316 1016 330 1031 c 128,-1,21
 344 1046 344 1046 359 1061.5 c 128,-1,22
 374 1077 374 1077 384 1087.5 c 128,-1,23
 394 1098 394 1098 395 1098 c 2,24,-1
 397 1098 l 2,25,26
 407 1098 407 1098 410 1071 c 1,27,28
 413 1071 413 1071 413 990.5 c 128,-1,29
 413 910 413 910 398 888 c 1,30,31
 398 876 398 876 338 820.5 c 128,-1,32
 278 765 278 765 276.5 764 c 128,-1,33
 275 763 275 763 233 715 c 128,-1,34
 191 667 191 667 190 661.5 c 128,-1,35
 189 656 189 656 191 652.5 c 128,-1,36
 193 649 193 649 210.5 632.5 c 128,-1,37
 228 616 228 616 249 596.5 c 128,-1,38
 270 577 270 577 288 560 c 2,39,-1
 306 543 l 1,40,41
 405 414 405 414 405 390 c 1,0,1
EndSplineSet
EndChar

StartChar: guilsinglright
Encoding: 8250 8250 393
Width: 524
GlyphClass: 2
Flags: W
LayerCount: 2
Fore
SplineSet
103 215 m 0,0,1
 90 215 90 215 90 255 c 2,2,-1
 90 358 l 2,3,4
 90 423 90 423 114 450 c 1,5,-1
 309 632 l 2,6,7
 313 636 313 636 313 647 c 128,-1,8
 313 658 313 658 309 662 c 2,9,-1
 113 854 l 1,10,11
 90 883 90 883 90 948 c 2,12,-1
 90 1057 l 2,13,14
 90 1101 90 1101 103 1101 c 0,15,16
 106 1101 106 1101 113 1094 c 2,17,-1
 390 807 l 2,18,19
 413 783 413 783 413 712 c 2,20,-1
 413 587 l 2,21,22
 413 515 413 515 390 493 c 2,23,-1
 113 222 l 1,24,25
 104 215 104 215 103 215 c 0,0,1
EndSplineSet
EndChar

StartChar: fraction
Encoding: 8260 8260 394
Width: 569
GlyphClass: 2
Flags: W
LayerCount: 2
Fore
SplineSet
78 -180 m 1,0,-1
 381 1614 l 2,1,2
 386 1647 386 1647 399 1647 c 2,3,-1
 488 1647 l 2,4,5
 496 1647 496 1647 496 1632.5 c 128,-1,6
 496 1618 496 1618 495 1614 c 2,7,-1
 194 -173 l 2,8,9
 189 -206 189 -206 176 -206 c 2,10,-1
 86 -205 l 2,11,12
 78 -205 78 -205 78 -180 c 1,0,-1
EndSplineSet
EndChar

StartChar: Euro
Encoding: 8364 8364 395
Width: 717
GlyphClass: 2
Flags: W
LayerCount: 2
Fore
SplineSet
662 1410 m 1,0,-1
 662 1290 l 2,1,2
 662 1277 662 1277 658 1277 c 128,-1,3
 654 1277 654 1277 647.5 1279 c 128,-1,4
 641 1281 641 1281 629 1283.5 c 128,-1,5
 617 1286 617 1286 603 1288 c 0,6,7
 561 1294 561 1294 528 1294 c 128,-1,8
 495 1294 495 1294 466 1287 c 128,-1,9
 437 1280 437 1280 406.5 1257 c 128,-1,10
 376 1234 376 1234 355 1194 c 0,11,12
 308 1105 308 1105 293 924 c 1,13,-1
 460 924 l 2,14,15
 472 924 472 924 477.5 916 c 128,-1,16
 483 908 483 908 483 878 c 2,17,-1
 483 837 l 2,18,19
 483 808 483 808 477.5 800 c 128,-1,20
 472 792 472 792 460 792 c 2,21,-1
 286 792 l 1,22,23
 285 769 285 769 285 718.5 c 128,-1,24
 285 668 285 668 286 645 c 1,25,-1
 460 645 l 2,26,27
 472 645 472 645 477.5 637 c 128,-1,28
 483 629 483 629 483 599 c 2,29,-1
 483 558 l 2,30,31
 483 528 483 528 477.5 520 c 128,-1,32
 472 512 472 512 460 512 c 2,33,-1
 292 512 l 1,34,35
 308 279 308 279 370 205 c 0,36,37
 402 168 402 168 436 155.5 c 128,-1,38
 470 143 470 143 530.5 143 c 128,-1,39
 591 143 591 143 646 162 c 1,40,41
 654 160 654 160 654 141 c 2,42,-1
 654 27 l 2,43,44
 654 7 654 7 642 4 c 1,45,46
 589 -18 589 -18 519 -18 c 128,-1,47
 449 -18 449 -18 414 -14 c 128,-1,48
 379 -10 379 -10 339 3 c 128,-1,49
 299 16 299 16 269 38.5 c 128,-1,50
 239 61 239 61 208.5 101 c 128,-1,51
 178 141 178 141 157 196 c 0,52,53
 110 318 110 318 95 512 c 1,54,-1
 43 512 l 2,55,56
 30 512 30 512 24.5 520 c 128,-1,57
 19 528 19 528 19 558 c 2,58,-1
 19 599 l 2,59,60
 19 629 19 629 24.5 637 c 128,-1,61
 30 645 30 645 43 645 c 2,62,-1
 88 645 l 1,63,-1
 87 720 l 1,64,-1
 88 792 l 1,65,-1
 43 792 l 2,66,67
 30 792 30 792 24.5 799.5 c 128,-1,68
 19 807 19 807 19 837 c 2,69,-1
 19 878 l 2,70,71
 19 908 19 908 24.5 916 c 128,-1,72
 30 924 30 924 43 924 c 2,73,-1
 95 924 l 1,74,75
 130 1359 130 1359 344 1434 c 0,76,77
 410 1457 410 1457 524 1457 c 128,-1,78
 638 1457 638 1457 662 1410 c 1,0,-1
EndSplineSet
EndChar

StartChar: trademark
Encoding: 8482 8482 396
Width: 1563
GlyphClass: 2
Flags: W
LayerCount: 2
Fore
SplineSet
450 326 m 2,0,1
 450 288 450 288 429 288 c 2,2,-1
 311 288 l 2,3,4
 291 288 291 288 291 326 c 2,5,-1
 291 1289 l 2,6,7
 291 1309 291 1309 282 1309 c 2,8,-1
 143 1309 l 2,9,10
 131 1309 131 1309 126.5 1314 c 128,-1,11
 122 1319 122 1319 122 1340 c 2,12,-1
 122 1403 l 2,13,14
 122 1438 122 1438 143 1438 c 2,15,-1
 595 1438 l 2,16,17
 615 1438 615 1438 615 1403 c 2,18,-1
 615 1340 l 2,19,20
 615 1320 615 1320 610.5 1314.5 c 128,-1,21
 606 1309 606 1309 595 1309 c 2,22,-1
 458 1309 l 2,23,24
 450 1309 450 1309 450 1289 c 2,25,-1
 450 326 l 2,0,1
730 288 m 2,26,27
 711 288 711 288 711 327 c 2,28,-1
 711 331 l 1,29,-1
 747 1393 l 2,30,31
 748 1436 748 1436 767 1438 c 1,32,-1
 894 1438 l 1,33,34
 919 1435 919 1435 926 1401 c 2,35,-1
 1061 724 l 1,36,37
 1064 716 1064 716 1067 718.5 c 128,-1,38
 1070 721 1070 721 1070 724 c 2,39,-1
 1206 1398 l 2,40,41
 1213 1436 1213 1436 1237 1438 c 1,42,-1
 1365 1438 l 1,43,44
 1384 1436 1384 1436 1384 1393 c 1,45,-1
 1422 331 l 1,46,-1
 1422 326 l 2,47,48
 1422 288 1422 288 1402 288 c 2,49,-1
 1314 288 l 2,50,51
 1294 288 1294 288 1293 331 c 2,52,-1
 1268 1121 l 2,53,54
 1268 1126 1268 1126 1265.5 1127 c 128,-1,55
 1263 1128 1263 1128 1262 1124 c 2,56,-1
 1117 326 l 1,57,58
 1109 288 1109 288 1090 288 c 2,59,-1
 1038 288 l 2,60,61
 1018 288 1018 288 1010 326 c 1,62,-1
 869 1120 l 1,63,64
 867 1124 867 1124 865 1117 c 1,65,-1
 839 331 l 1,66,67
 839 288 839 288 821 288 c 2,68,-1
 730 288 l 2,26,27
EndSplineSet
EndChar

StartChar: product
Encoding: 8719 8719 397
Width: 947
GlyphClass: 2
Flags: W
LayerCount: 2
Fore
SplineSet
315 47 m 2,0,1
 315 0 315 0 289 0 c 2,2,-1
 142 0 l 2,3,4
 128 0 128 0 122 8.5 c 128,-1,5
 116 17 116 17 116 47 c 2,6,-1
 116 1391 l 2,7,8
 116 1421 116 1421 122 1429.5 c 128,-1,9
 128 1438 128 1438 142 1438 c 2,10,-1
 807 1438 l 2,11,12
 820 1438 820 1438 826 1429.5 c 128,-1,13
 832 1421 832 1421 832 1391 c 2,14,-1
 832 47 l 2,15,16
 832 17 832 17 826 8.5 c 128,-1,17
 820 0 820 0 807 0 c 2,18,-1
 660 0 l 2,19,20
 633 0 633 0 633 47 c 2,21,-1
 633 1258 l 2,22,23
 633 1280 633 1280 622 1280 c 2,24,-1
 325 1280 l 2,25,26
 315 1280 315 1280 315 1259 c 2,27,-1
 315 47 l 2,0,1
EndSplineSet
EndChar

StartChar: infinity
Encoding: 8734 8734 398
Width: 1206
GlyphClass: 2
Flags: W
LayerCount: 2
Fore
SplineSet
168 764 m 128,-1,1
 168 712 168 712 199.5 683.5 c 128,-1,2
 231 655 231 655 270 655 c 128,-1,3
 309 655 309 655 346.5 670.5 c 128,-1,4
 384 686 384 686 445.5 720 c 128,-1,5
 507 754 507 754 527 764 c 1,6,7
 508 774 508 774 446 808 c 0,8,9
 328 873 328 873 279.5 873 c 128,-1,10
 231 873 231 873 199.5 844.5 c 128,-1,0
 168 816 168 816 168 764 c 128,-1,1
1006 683.5 m 128,-1,12
 1038 712 1038 712 1038 751 c 128,-1,13
 1038 790 1038 790 1028.5 811.5 c 128,-1,14
 1019 833 1019 833 1004 846 c 0,15,16
 960 870 960 870 935 873 c 1,17,18
 897 873 897 873 859.5 857.5 c 128,-1,19
 822 842 822 842 760.5 808 c 128,-1,20
 699 774 699 774 678 764 c 1,21,22
 702 752 702 752 743.5 729 c 0,23,24
 786 706 786 706 812 692 c 0,25,26
 901 657 901 657 930 655 c 1,27,11
 974 655 974 655 1006 683.5 c 128,-1,12
603 661 m 128,-1,29
 593 661 593 661 556.5 641 c 0,30,31
 520 620 520 620 478 596 c 0,32,33
 367 532 367 532 283.5 532 c 128,-1,34
 200 532 200 532 141 589.5 c 128,-1,35
 82 647 82 647 82 764 c 128,-1,36
 82 881 82 881 141 938.5 c 128,-1,37
 200 996 200 996 261 996 c 128,-1,38
 322 996 322 996 378.5 976 c 128,-1,39
 435 956 435 956 477.5 931.5 c 128,-1,40
 520 907 520 907 556.5 887 c 128,-1,41
 593 867 593 867 602.5 867 c 128,-1,42
 612 867 612 867 648.5 887 c 0,43,44
 686 908 686 908 728 932 c 0,45,46
 840 996 840 996 930 996 c 0,47,48
 1001 996 1001 996 1059 944 c 0,49,50
 1124 886 1124 886 1124 764 c 0,51,52
 1124 595 1124 595 997 545 c 0,53,54
 964 532 964 532 924 532 c 128,-1,55
 884 532 884 532 827.5 552 c 128,-1,56
 771 572 771 572 729 596.5 c 128,-1,57
 687 621 687 621 650 641 c 128,-1,28
 613 661 613 661 603 661 c 128,-1,29
EndSplineSet
EndChar

StartChar: integral
Encoding: 8747 8747 399
Width: 526
GlyphClass: 2
Flags: W
LayerCount: 2
Fore
SplineSet
-38 -105 m 0,0,1
 -38 -7 -38 -7 -15 -7 c 2,2,-1
 1 -7 l 2,3,4
 56 -7 56 -7 83 36 c 128,-1,5
 110 79 110 79 120 200 c 2,6,-1
 189 1008 l 1,7,8
 211 1247 211 1247 279 1330 c 0,9,10
 342 1407 342 1407 448 1407 c 0,11,12
 482 1407 482 1407 505 1398.5 c 128,-1,13
 528 1390 528 1390 528 1377 c 0,14,15
 528 1272 528 1272 505 1272 c 2,16,-1
 478 1272 l 2,17,18
 424 1272 424 1272 396.5 1227 c 128,-1,19
 369 1182 369 1182 360 1065 c 2,20,-1
 295 260 l 1,21,22
 261 -139 261 -139 31 -139 c 2,23,-1
 1 -139 l 2,24,25
 -21 -139 -21 -139 -29.5 -133 c 128,-1,26
 -38 -127 -38 -127 -38 -105 c 0,0,1
EndSplineSet
EndChar

StartChar: approxequal
Encoding: 8776 8776 400
Width: 949
GlyphClass: 2
Flags: W
LayerCount: 2
Fore
SplineSet
857 773 m 0,0,1
 870 795 870 795 870 813 c 128,-1,2
 870 831 870 831 847.5 867.5 c 128,-1,3
 825 904 825 904 808.5 904 c 128,-1,4
 792 904 792 904 784 887 c 0,5,6
 754 831 754 831 727 813 c 128,-1,7
 700 795 700 795 655.5 795 c 128,-1,8
 611 795 611 795 545.5 827.5 c 128,-1,9
 480 860 480 860 411.5 892 c 128,-1,10
 343 924 343 924 289 924 c 0,11,12
 162 924 162 924 86 803 c 0,13,14
 79 792 79 792 79 770 c 128,-1,15
 79 748 79 748 98 715.5 c 128,-1,16
 117 683 117 683 135 683 c 128,-1,17
 153 683 153 683 175.5 714.5 c 128,-1,18
 198 746 198 746 220 763.5 c 128,-1,19
 242 781 242 781 277 781 c 128,-1,20
 312 781 312 781 363 761 c 0,21,22
 414 740 414 740 457 716 c 0,23,24
 570 652 570 652 678.5 652 c 128,-1,25
 787 652 787 652 857 773 c 0,0,1
857 472 m 0,26,27
 870 494 870 494 870 512 c 128,-1,28
 870 530 870 530 847.5 566.5 c 128,-1,29
 825 603 825 603 808.5 603 c 128,-1,30
 792 603 792 603 784 586 c 0,31,32
 754 530 754 530 727 512 c 128,-1,33
 700 494 700 494 655.5 494 c 128,-1,34
 611 494 611 494 545.5 526.5 c 128,-1,35
 480 559 480 559 411.5 591 c 128,-1,36
 343 623 343 623 289 623 c 0,37,38
 162 623 162 623 86 502 c 0,39,40
 79 491 79 491 79 469 c 128,-1,41
 79 447 79 447 98 414.5 c 128,-1,42
 117 382 117 382 135 382 c 128,-1,43
 153 382 153 382 175.5 413.5 c 128,-1,44
 198 445 198 445 220 462.5 c 128,-1,45
 242 480 242 480 277 480 c 128,-1,46
 312 480 312 480 363 460 c 128,-1,47
 414 440 414 440 457 416 c 0,48,49
 610 356 610 356 678 351 c 1,50,51
 787 351 787 351 857 472 c 0,26,27
EndSplineSet
EndChar

StartChar: notequal
Encoding: 8800 8800 401
Width: 693
GlyphClass: 2
Flags: W
LayerCount: 2
Fore
SplineSet
151 178 m 2,0,1
 142 178 142 178 142 194 c 0,2,3
 142 210 142 210 143 214 c 2,4,-1
 219 448 l 1,5,-1
 100 448 l 2,6,7
 87 448 87 448 81.5 456 c 128,-1,8
 76 464 76 464 76 494 c 2,9,-1
 76 535 l 2,10,11
 76 565 76 565 81.5 572.5 c 128,-1,12
 87 580 87 580 100 580 c 2,13,-1
 261 580 l 1,14,-1
 308 727 l 1,15,-1
 100 727 l 2,16,17
 87 727 87 727 81.5 735 c 128,-1,18
 76 743 76 743 76 773 c 2,19,-1
 76 814 l 2,20,21
 76 844 76 844 81.5 852 c 128,-1,22
 87 860 87 860 100 860 c 2,23,-1
 351 860 l 1,24,-1
 427 1096 l 2,25,26
 438 1130 438 1130 445 1130 c 2,27,-1
 542 1130 l 2,28,29
 552 1130 552 1130 552 1114 c 0,30,31
 552 1098 552 1098 551 1096 c 2,32,-1
 475 860 l 1,33,-1
 594 860 l 2,34,35
 607 860 607 860 612.5 852 c 128,-1,36
 618 844 618 844 618 814 c 2,37,-1
 618 773 l 2,38,39
 618 743 618 743 612.5 735 c 128,-1,40
 607 727 607 727 594 727 c 2,41,-1
 432 727 l 1,42,-1
 384 580 l 1,43,-1
 594 580 l 2,44,45
 607 580 607 580 612.5 572.5 c 128,-1,46
 618 565 618 565 618 535 c 2,47,-1
 618 494 l 2,48,49
 618 464 618 464 612.5 456 c 128,-1,50
 607 448 607 448 594 448 c 2,51,-1
 342 448 l 1,52,-1
 266 214 l 1,53,54
 259 178 259 178 250 178 c 2,55,-1
 151 178 l 2,0,1
EndSplineSet
EndChar

StartChar: lessequal
Encoding: 8804 8804 402
Width: 582
GlyphClass: 2
Flags: W
LayerCount: 2
Fore
SplineSet
475.5 237.5 m 128,-1,1
 466 225 466 225 455.5 225 c 128,-1,2
 445 225 445 225 426 238 c 1,3,-1
 135 499 l 1,4,5
 98 541 98 541 89 562.5 c 128,-1,6
 80 584 80 584 80 606 c 2,7,-1
 80 655 l 2,8,9
 80 694 80 694 96 714.5 c 128,-1,10
 112 735 112 735 136 762 c 1,11,-1
 426 1032 l 2,12,13
 437 1042 437 1042 451.5 1042 c 128,-1,14
 466 1042 466 1042 475.5 1029.5 c 128,-1,15
 485 1017 485 1017 485 999 c 2,16,-1
 485 923 l 2,17,18
 485 895 485 895 479 884 c 128,-1,19
 473 873 473 873 472 870 c 128,-1,20
 471 867 471 867 464.5 859 c 128,-1,21
 458 851 458 851 457 850 c 128,-1,22
 456 849 456 849 447 839 c 128,-1,23
 438 829 438 829 437 828 c 2,24,-1
 243 648 l 2,25,26
 234 640 234 640 234 630 c 128,-1,27
 234 620 234 620 243 612 c 2,28,-1
 437 442 l 1,29,30
 449 430 449 430 454 424 c 128,-1,31
 459 418 459 418 464.5 411.5 c 128,-1,32
 470 405 470 405 472 401.5 c 128,-1,33
 474 398 474 398 477.5 391.5 c 0,34,35
 481 386 481 386 482 380 c 0,36,37
 485 364 485 364 485 350 c 2,38,-1
 485 267 l 2,39,0
 485 250 485 250 475.5 237.5 c 128,-1,1
508 52 m 2,40,41
 508 1 508 1 484 1 c 2,42,-1
 106 1 l 2,43,44
 80 1 80 1 80 52 c 2,45,-1
 80 111 l 2,46,47
 80 161 80 161 106 161 c 2,48,-1
 484 161 l 2,49,50
 508 161 508 161 508 111 c 2,51,-1
 508 52 l 2,40,41
EndSplineSet
EndChar

StartChar: greaterequal
Encoding: 8805 8805 403
Width: 581
GlyphClass: 2
Flags: W
LayerCount: 2
Fore
SplineSet
107.5 237.5 m 128,-1,1
 117 225 117 225 128 225 c 128,-1,2
 139 225 139 225 158 238 c 1,3,-1
 448 499 l 1,4,5
 504 560 504 560 504 606 c 2,6,-1
 504 655 l 2,7,8
 504 690 504 690 488 712 c 0,9,10
 462 748 462 748 448 762 c 2,11,-1
 158 1032 l 2,12,13
 146 1042 146 1042 132 1042 c 128,-1,14
 118 1042 118 1042 108 1029.5 c 128,-1,15
 98 1017 98 1017 98 999 c 2,16,-1
 98 923 l 2,17,18
 98 914 98 914 99.5 906.5 c 128,-1,19
 101 899 101 899 101.5 893.5 c 128,-1,20
 102 888 102 888 106 880.5 c 128,-1,21
 110 873 110 873 111 870 c 128,-1,22
 112 867 112 867 118.5 859 c 128,-1,23
 125 851 125 851 126.5 850 c 128,-1,24
 128 849 128 849 136.5 839 c 128,-1,25
 145 829 145 829 146 828 c 2,26,-1
 340 648 l 2,27,28
 350 640 350 640 350 630 c 128,-1,29
 350 620 350 620 340 612 c 2,30,-1
 146 442 l 1,31,32
 142 436 142 436 132 426 c 128,-1,33
 122 416 122 416 115.5 408 c 0,34,35
 110 400 110 400 108 396 c 0,36,37
 98 371 98 371 98 350 c 2,38,-1
 98 267 l 2,39,0
 98 250 98 250 107.5 237.5 c 128,-1,1
75 52 m 2,40,41
 75 1 75 1 100 1 c 2,42,-1
 477 1 l 2,43,44
 503 1 503 1 503 52 c 2,45,-1
 503 111 l 2,46,47
 503 161 503 161 477 161 c 2,48,-1
 100 161 l 2,49,50
 75 161 75 161 75 111 c 2,51,-1
 75 52 l 2,40,41
EndSplineSet
EndChar

StartChar: lozenge
Encoding: 9674 9674 404
Width: 822
GlyphClass: 2
Flags: W
LayerCount: 2
Fore
SplineSet
410 12 m 128,-1,1
 412 12 412 12 414 18 c 2,2,-1
 544 645 l 1,3,-1
 419 1240 l 2,4,5
 418 1247 418 1247 416 1247 c 128,-1,6
 414 1247 414 1247 412 1240 c 2,7,-1
 277 641 l 1,8,-1
 407 19 l 2,9,0
 408 12 408 12 410 12 c 128,-1,1
326 -202 m 1,10,11
 299 -200 299 -200 289 -152 c 1,12,-1
 99 615 l 2,13,14
 97 627 97 627 97 637 c 128,-1,15
 97 647 97 647 98 650 c 2,16,-1
 287 1411 l 1,17,18
 297 1457 297 1457 323 1461 c 1,19,-1
 499 1461 l 1,20,21
 525 1457 525 1457 535 1411 c 1,22,-1
 724 650 l 2,23,24
 725 646 725 646 725 632 c 2,25,-1
 725 615 l 1,26,-1
 537 -152 l 1,27,28
 527 -200 527 -200 501 -202 c 1,29,-1
 326 -202 l 1,10,11
EndSplineSet
EndChar

StartChar: uniFB00
Encoding: 64256 64256 405
Width: 970
GlyphClass: 2
Flags: W
LayerCount: 2
Fore
SplineSet
945 898 m 2,0,1
 945 857 945 857 923 857 c 2,2,-1
 787 857 l 2,3,4
 779 857 779 857 779 825 c 2,5,-1
 779 61 l 2,6,7
 779 0 779 0 753 0 c 2,8,-1
 637 0 l 2,9,10
 611 0 611 0 611 61 c 2,11,-1
 611 825 l 2,12,13
 611 857 611 857 604 857 c 2,14,-1
 302 857 l 2,15,16
 294 857 294 857 294 825 c 2,17,-1
 294 61 l 2,18,19
 294 0 294 0 268 0 c 2,20,-1
 152 0 l 2,21,22
 126 0 126 0 126 61 c 2,23,-1
 126 825 l 2,24,25
 126 857 126 857 119 857 c 2,26,-1
 67 857 l 2,27,28
 44 857 44 857 44 898 c 2,29,-1
 44 959 l 2,30,31
 44 1006 44 1006 67 1006 c 2,32,-1
 119 1006 l 2,33,34
 126 1006 126 1006 126 1088 c 128,-1,35
 126 1170 126 1170 140.5 1254.5 c 128,-1,36
 155 1339 155 1339 186 1383 c 128,-1,37
 217 1427 217 1427 254.5 1443 c 128,-1,38
 292 1459 292 1459 354 1459 c 128,-1,39
 416 1459 416 1459 441.5 1454 c 128,-1,40
 467 1449 467 1449 467 1417 c 2,41,-1
 467 1352 l 2,42,43
 467 1324 467 1324 465 1315.5 c 128,-1,44
 463 1307 463 1307 454 1307 c 2,45,-1
 391 1307 l 2,46,47
 338 1307 338 1307 316 1262.5 c 128,-1,48
 294 1218 294 1218 294 1100 c 2,49,-1
 294 1012 l 2,50,51
 294 1006 294 1006 297 1006 c 2,52,-1
 604 1006 l 2,53,54
 611 1006 611 1006 611 1088 c 128,-1,55
 611 1170 611 1170 625.5 1254.5 c 128,-1,56
 640 1339 640 1339 671 1383 c 128,-1,57
 702 1427 702 1427 739.5 1443 c 128,-1,58
 777 1459 777 1459 839 1459 c 128,-1,59
 901 1459 901 1459 926.5 1454 c 128,-1,60
 952 1449 952 1449 952 1417 c 2,61,-1
 952 1352 l 2,62,63
 952 1324 952 1324 950 1315.5 c 128,-1,64
 948 1307 948 1307 939 1307 c 2,65,-1
 876 1307 l 2,66,67
 823 1307 823 1307 801 1262.5 c 128,-1,68
 779 1218 779 1218 779 1100 c 2,69,-1
 779 1012 l 2,70,71
 779 1006 779 1006 782 1006 c 2,72,-1
 923 1006 l 2,73,74
 945 1006 945 1006 945 964 c 2,75,-1
 945 898 l 2,0,1
EndSplineSet
EndChar

StartChar: uniFB01
Encoding: 64257 64257 406
Width: 848
GlyphClass: 2
Flags: W
LayerCount: 2
Fore
SplineSet
67 857 m 2,0,1
 44 857 44 857 44 898 c 2,2,-1
 44 959 l 2,3,4
 44 1006 44 1006 67 1006 c 2,5,-1
 119 1006 l 2,6,7
 126 1006 126 1006 126 1088 c 128,-1,8
 126 1170 126 1170 140.5 1254.5 c 128,-1,9
 155 1339 155 1339 186 1383 c 128,-1,10
 217 1427 217 1427 254.5 1443 c 128,-1,11
 292 1459 292 1459 354 1459 c 128,-1,12
 416 1459 416 1459 441.5 1454 c 128,-1,13
 467 1449 467 1449 467 1417 c 2,14,-1
 467 1352 l 2,15,16
 467 1324 467 1324 465 1315.5 c 128,-1,17
 463 1307 463 1307 454 1307 c 2,18,-1
 391 1307 l 2,19,20
 338 1307 338 1307 316 1262.5 c 128,-1,21
 294 1218 294 1218 294 1100 c 2,22,-1
 294 1012 l 2,23,24
 294 1006 294 1006 297 1006 c 2,25,-1
 730 1006 l 2,26,27
 754 1006 754 1006 754 940 c 2,28,-1
 754 67 l 2,29,30
 754 0 754 0 730 0 c 2,31,-1
 618 0 l 2,32,33
 593 0 593 0 593 67 c 2,34,-1
 593 857 l 1,35,-1
 302 857 l 2,36,37
 294 857 294 857 294 825 c 2,38,-1
 294 61 l 2,39,40
 294 0 294 0 268 0 c 2,41,-1
 152 0 l 2,42,43
 126 0 126 0 126 61 c 2,44,-1
 126 825 l 2,45,46
 126 857 126 857 119 857 c 2,47,-1
 67 857 l 2,0,1
614 1161 m 2,48,49
 589 1161 589 1161 589 1215 c 2,50,-1
 589 1344 l 2,51,52
 589 1397 589 1397 614 1397 c 2,53,-1
 733 1397 l 2,54,55
 758 1397 758 1397 758 1344 c 2,56,-1
 758 1215 l 2,57,58
 758 1161 758 1161 733 1161 c 2,59,-1
 614 1161 l 2,48,49
EndSplineSet
EndChar

StartChar: Delta
Encoding: 916 916 408
Width: 822
GlyphClass: 2
Flags: W
LayerCount: 2
Fore
SplineSet
288 385 m 2,0,-1
 542 385 l 2,1,2
 548 385 548 385 548 395 c 128,-1,3
 548 405 548 405 547 411 c 2,4,-1
 415 1229 l 2,5,6
 414 1236 414 1236 411.5 1236 c 128,-1,7
 409 1236 409 1236 408 1229 c 2,8,-1
 274 413 l 2,9,10
 273 407 273 407 273 404 c 0,11,12
 273 385 273 385 288 385 c 2,0,-1
737 311 m 1,13,-1
 741 276 l 1,14,15
 741 247 741 247 724 247 c 2,16,-1
 100 247 l 2,17,18
 84 247 84 247 84 274 c 128,-1,19
 84 301 84 301 85 311 c 2,20,-1
 281 1350 l 2,21,22
 289 1396 289 1396 317 1400 c 1,23,-1
 508 1400 l 1,24,25
 536 1396 536 1396 544 1350 c 2,26,-1
 737 311 l 1,13,-1
EndSplineSet
EndChar

StartChar: uni030F
Encoding: 783 783 409
Width: 597
GlyphClass: 2
Flags: W
LayerCount: 2
Fore
SplineSet
439 1236 m 1,0,-1
 442 1197 l 1,1,2
 442 1169 442 1169 429 1169 c 2,3,-1
 402 1169 l 2,4,5
 389 1169 389 1169 381 1208 c 1,6,-1
 307 1521 l 1,7,8
 303 1545 303 1545 303 1565.5 c 128,-1,9
 303 1586 303 1586 316 1586 c 2,10,-1
 390 1586 l 2,11,12
 415 1586 415 1586 419 1531 c 2,13,-1
 439 1236 l 1,0,-1
216 1169 m 2,14,15
 207 1169 207 1169 203.5 1179 c 128,-1,16
 200 1189 200 1189 199 1191.5 c 128,-1,17
 198 1194 198 1194 197 1200 c 128,-1,18
 196 1206 196 1206 195 1208 c 2,19,-1
 121 1521 l 2,20,21
 116 1541 116 1541 116 1563.5 c 128,-1,22
 116 1586 116 1586 130 1586 c 2,23,-1
 204 1586 l 2,24,25
 228 1586 228 1586 232 1531 c 2,26,-1
 253 1236 l 2,27,28
 255 1208 255 1208 255 1188.5 c 128,-1,29
 255 1169 255 1169 243 1169 c 2,30,-1
 216 1169 l 2,14,15
EndSplineSet
EndChar

StartChar: uniFB03
Encoding: 64259 64259 410
Width: 1333
GlyphClass: 2
Flags: W
LayerCount: 2
Fore
SplineSet
67 857 m 2,0,1
 44 857 44 857 44 898 c 2,2,-1
 44 959 l 2,3,4
 44 1006 44 1006 67 1006 c 2,5,-1
 119 1006 l 2,6,7
 126 1006 126 1006 126 1088 c 128,-1,8
 126 1170 126 1170 140.5 1254.5 c 128,-1,9
 155 1339 155 1339 186 1383 c 128,-1,10
 217 1427 217 1427 254.5 1443 c 128,-1,11
 292 1459 292 1459 354 1459 c 128,-1,12
 416 1459 416 1459 441.5 1454 c 128,-1,13
 467 1449 467 1449 467 1417 c 2,14,-1
 467 1352 l 2,15,16
 467 1324 467 1324 465 1315.5 c 128,-1,17
 463 1307 463 1307 454 1307 c 2,18,-1
 391 1307 l 2,19,20
 338 1307 338 1307 316 1262.5 c 128,-1,21
 294 1218 294 1218 294 1100 c 2,22,-1
 294 1012 l 2,23,24
 294 1006 294 1006 297 1006 c 2,25,-1
 604 1006 l 2,26,27
 611 1006 611 1006 611 1088 c 128,-1,28
 611 1170 611 1170 625.5 1254.5 c 128,-1,29
 640 1339 640 1339 671 1383 c 128,-1,30
 702 1427 702 1427 739.5 1443 c 128,-1,31
 777 1459 777 1459 839 1459 c 128,-1,32
 901 1459 901 1459 926.5 1454 c 128,-1,33
 952 1449 952 1449 952 1417 c 2,34,-1
 952 1352 l 2,35,36
 952 1324 952 1324 950 1315.5 c 128,-1,37
 948 1307 948 1307 939 1307 c 2,38,-1
 876 1307 l 2,39,40
 823 1307 823 1307 801 1262.5 c 128,-1,41
 779 1218 779 1218 779 1100 c 2,42,-1
 779 1012 l 2,43,44
 779 1006 779 1006 782 1006 c 2,45,-1
 1215 1006 l 2,46,47
 1239 1006 1239 1006 1239 940 c 2,48,-1
 1239 67 l 2,49,50
 1239 0 1239 0 1215 0 c 2,51,-1
 1103 0 l 2,52,53
 1078 0 1078 0 1078 67 c 2,54,-1
 1078 857 l 1,55,-1
 787 857 l 2,56,57
 779 857 779 857 779 825 c 2,58,-1
 779 61 l 2,59,60
 779 0 779 0 753 0 c 2,61,-1
 637 0 l 2,62,63
 611 0 611 0 611 61 c 2,64,-1
 611 825 l 2,65,66
 611 857 611 857 604 857 c 2,67,-1
 302 857 l 2,68,69
 294 857 294 857 294 825 c 2,70,-1
 294 61 l 2,71,72
 294 0 294 0 268 0 c 2,73,-1
 152 0 l 2,74,75
 126 0 126 0 126 61 c 2,76,-1
 126 825 l 2,77,78
 126 857 126 857 119 857 c 2,79,-1
 67 857 l 2,0,1
1099 1161 m 2,80,81
 1074 1161 1074 1161 1074 1215 c 2,82,-1
 1074 1344 l 2,83,84
 1074 1397 1074 1397 1099 1397 c 2,85,-1
 1218 1397 l 2,86,87
 1243 1397 1243 1397 1243 1344 c 2,88,-1
 1243 1215 l 2,89,90
 1243 1161 1243 1161 1218 1161 c 2,91,-1
 1099 1161 l 2,80,81
EndSplineSet
EndChar

StartChar: minus
Encoding: 8722 8722 411
Width: 1024
GlyphClass: 2
Flags: W
LayerCount: 2
Fore
SplineSet
920 651 m 2,0,1
 920 595 920 595 867 595 c 2,2,-1
 157 595 l 2,3,4
 103 595 103 595 103 650 c 2,5,-1
 103 705 l 2,6,7
 103 762 103 762 157 762 c 2,8,-1
 867 762 l 2,9,10
 920 762 920 762 920 706 c 2,11,-1
 920 651 l 2,0,1
EndSplineSet
EndChar

StartChar: uni00B9
Encoding: 185 185 412
Width: 403
GlyphClass: 2
Flags: W
LayerCount: 2
Fore
SplineSet
178 288 m 2,0,1
 158 288 158 288 158 342 c 2,2,-1
 158 1226 l 2,3,4
 158 1252 158 1252 148 1250 c 0,5,6
 85 1234 85 1234 84 1234 c 0,7,8
 66 1232 66 1232 66 1269 c 2,9,-1
 66 1346 l 2,10,11
 66 1379 66 1379 85 1382 c 1,12,-1
 297 1436 l 2,13,14
 300 1437 300 1437 304 1437 c 0,15,16
 321 1437 321 1437 321 1399 c 2,17,-1
 321 342 l 2,18,19
 321 288 321 288 301 288 c 2,20,-1
 178 288 l 2,0,1
EndSplineSet
EndChar

StartChar: uni00B3
Encoding: 179 179 413
Width: 544
GlyphClass: 2
Flags: W
LayerCount: 2
Fore
SplineSet
329 872 m 1,0,1
 492 836 492 836 492 578 c 0,2,3
 492 346 492 346 324 291 c 0,4,5
 278 276 278 276 225 276 c 0,6,7
 111 276 111 276 63 316 c 0,8,9
 52 324 52 324 52 373.5 c 128,-1,10
 52 423 52 423 57 423 c 1,11,12
 58 454 58 454 69 443 c 1,13,-1
 90 431 l 2,14,15
 94 429 94 429 105 424 c 128,-1,16
 116 419 116 419 125 416.5 c 128,-1,17
 134 414 134 414 146 411 c 0,18,19
 171 405 171 405 205 405 c 0,20,21
 354 405 354 405 354 606 c 1,22,23
 353 699 353 699 317.5 752 c 128,-1,24
 282 805 282 805 214 806 c 1,25,-1
 185 806 l 2,26,27
 171 806 171 806 167 812 c 128,-1,28
 163 818 163 818 163 835 c 2,29,-1
 163 921 l 2,30,31
 163 940 163 940 185 940 c 2,32,-1
 213 940 l 1,33,34
 346 943 346 943 346 1130 c 0,35,36
 346 1234 346 1234 314 1278 c 128,-1,37
 282 1322 282 1322 206.5 1322 c 128,-1,38
 131 1322 131 1322 67 1284 c 1,39,40
 56 1274 56 1274 56 1305 c 1,41,42
 55 1305 55 1305 52 1332 c 128,-1,43
 49 1359 49 1359 49 1365 c 0,44,45
 49 1400 49 1400 61 1410 c 1,46,47
 126 1451 126 1451 239 1451 c 128,-1,48
 352 1451 352 1451 419 1377 c 128,-1,49
 486 1303 486 1303 486 1137 c 0,50,51
 486 912 486 912 329 872 c 1,0,1
EndSplineSet
EndChar

StartChar: uni00B2
Encoding: 178 178 414
Width: 591
GlyphClass: 2
Flags: W
LayerCount: 2
Fore
SplineSet
66 345 m 1,0,-1
 67 393 l 1,1,2
 80 612 80 612 195 790 c 0,3,4
 242 864 242 864 288 928 c 0,5,6
 397 1081 397 1081 397 1164 c 128,-1,7
 397 1247 397 1247 360.5 1284 c 128,-1,8
 324 1321 324 1321 281.5 1321 c 128,-1,9
 239 1321 239 1321 209 1314.5 c 128,-1,10
 179 1308 179 1308 162.5 1301.5 c 128,-1,11
 146 1295 146 1295 122.5 1284 c 128,-1,12
 99 1273 99 1273 94 1271 c 1,13,14
 79 1257 79 1257 77 1281 c 1,15,16
 63 1341 63 1341 63 1363 c 128,-1,17
 63 1385 63 1385 70 1395 c 1,18,19
 154 1452 154 1452 272 1452 c 0,20,21
 533 1452 533 1452 533 1201 c 0,22,23
 532 1074 532 1074 440 935 c 0,24,25
 400 874 400 874 357 810 c 0,26,27
 247 646 247 646 211 454 c 0,28,29
 210 452 210 452 210 429 c 128,-1,30
 210 406 210 406 221 406 c 2,31,-1
 487 406 l 2,32,33
 502 406 502 406 502 366 c 2,34,-1
 502 327 l 2,35,36
 502 290 502 290 487 290 c 2,37,-1
 87 290 l 2,38,39
 66 290 66 290 66 345 c 1,0,-1
EndSplineSet
EndChar

StartChar: uni2215
Encoding: 8725 8725 415
Width: 564
GlyphClass: 2
Flags: W
LayerCount: 2
Fore
SplineSet
78 -180 m 1,0,-1
 381 1614 l 2,1,2
 386 1647 386 1647 399 1647 c 2,3,-1
 488 1647 l 2,4,5
 496 1647 496 1647 496 1632.5 c 128,-1,6
 496 1618 496 1618 495 1614 c 2,7,-1
 194 -173 l 2,8,9
 189 -206 189 -206 176 -206 c 2,10,-1
 86 -205 l 2,11,12
 78 -205 78 -205 78 -180 c 1,0,-1
EndSplineSet
EndChar

StartChar: uni0311
Encoding: 785 785 419
Width: 1504
GlyphClass: 2
Flags: W
LayerCount: 2
Fore
SplineSet
427 1295 m 1,0,1
 427 1391 427 1391 484 1440.5 c 0,2,3
 540 1490 540 1490 620 1490 c 128,-1,4
 700 1490 700 1490 756 1440.5 c 128,-1,5
 812 1391 812 1391 813 1295 c 1,6,-1
 726 1295 l 1,7,8
 726 1346 726 1346 694.5 1370.5 c 128,-1,9
 663 1395 663 1395 618 1395 c 128,-1,10
 573 1395 573 1395 542 1371 c 128,-1,11
 511 1347 511 1347 511 1295 c 1,12,-1
 427 1295 l 1,0,1
EndSplineSet
EndChar
